<?xml version="1.0" standalone="no"?>
<!DOCTYPE svg PUBLIC "-//W3C//DTD SVG 1.1//EN" "http://www.w3.org/Graphics/SVG/1.1/DTD/svg11.dtd" >
<svg xmlns="http://www.w3.org/2000/svg" xmlns:xlink="http://www.w3.org/1999/xlink" version="1.1">
<metadata>
Created by FontForge 20170731 at Thu Nov  2 02:25:12 2023
 By Aleksey,,,
</metadata>
<defs>
<font id="MonaspaceArgonVar-Regular" horiz-adv-x="1240" >
  <font-face 
    font-family="Monaspace Argon Var"
    font-weight="400"
    font-stretch="normal"
    units-per-em="2000"
    panose-1="0 0 0 0 0 0 0 0 0 0"
    ascent="1565"
    descent="-435"
    x-height="1000"
    cap-height="1460"
    bbox="-144 -747 7333 1953"
    underline-thickness="100"
    underline-position="-350"
    unicode-range="U+0020-2B11"
  />
<missing-glyph horiz-adv-x="965" 
d="M791 -400h-612v1930h612v-1930zM322 214v-218h321v218h-321zM579 59h-193v91h193v-91zM450 548v-108h65v44h64v-91h-193v155h-64v-218h321v218h-193zM579 783v-127h-257v-66h321v193h-64zM322 899v-64h128v-71h-128v-64h193v135h128v64h-321zM450 1017h-64v69h64v-69z
M322 1152v-201h321v66h-128v135h-193zM324 1401v-64h126v-71h-128v-64h321v64h-128v71h128v64h-319zM322 -49v-63h135l-135 -91v-64h321v64h-197l135 91h62v63h-321z" />
    <glyph glyph-name=".notdef" horiz-adv-x="965" 
d="M791 -400h-612v1930h612v-1930zM322 214v-218h321v218h-321zM579 59h-193v91h193v-91zM450 548v-108h65v44h64v-91h-193v155h-64v-218h321v218h-193zM579 783v-127h-257v-66h321v193h-64zM322 899v-64h128v-71h-128v-64h193v135h128v64h-321zM450 1017h-64v69h64v-69z
M322 1152v-201h321v66h-128v135h-193zM324 1401v-64h126v-71h-128v-64h321v64h-128v71h128v64h-319zM322 -49v-63h135l-135 -91v-64h321v64h-197l135 91h62v63h-321z" />
    <glyph glyph-name=".null" horiz-adv-x="0" 
 />
    <glyph glyph-name="nonmarkingreturn" horiz-adv-x="666" 
 />
    <glyph glyph-name="space" unicode=" " 
 />
    <glyph glyph-name="space" unicode="&#xa0;" 
 />
    <glyph glyph-name="exclam" unicode="!" 
d="M569 550l-14 910h130l-12 -910h-104zM556 -9q-29 15 -45.5 43t-16.5 66t16.5 66.5t45.5 43t64 14.5q36 0 65 -14.5t45.5 -43t16.5 -66.5t-16.5 -66t-45.5 -43t-65 -15q-35 0 -64 15z" />
    <glyph glyph-name="quotedbl" unicode="&#x22;" 
d="M309 820l-14 640h126l-12 -640h-100zM833 820l-14 640h126l-12 -640h-100z" />
    <glyph glyph-name="numbersign" unicode="#" 
d="M220 -200l223 1660h118l-223 -1660h-118zM679 -200l223 1660h118l-223 -1660h-118zM168 1000h989v-110h-989v110zM83 370h989v-110h-989v110z" />
    <glyph glyph-name="dollar" unicode="$" 
d="M688 31v-346h-110v346h110zM578 1420v355h110v-355h-110zM579 2v1447h108v-1447h-108zM919.5 1257q-40.5 59 -111 86.5t-173.5 27.5q-167 0 -252 -59.5t-85 -178.5q0 -66 26.5 -111.5t90.5 -87t188 -97.5l50 -22q165 -71 256 -125t143 -127.5t52 -181.5
q0 -111 -51.5 -202.5t-163.5 -147t-285 -55.5q-174 0 -285.5 56.5t-164.5 152.5t-58 219l133 10q10 -113 54.5 -185t124 -106t196.5 -34q116 0 197.5 32t124.5 96t43 157q0 76 -38 126t-103 85.5t-195 91.5l-56 24q-141 61 -226.5 114.5t-134.5 128.5t-49 182
q0 118 56.5 198t163.5 120t259 40q192 0 316.5 -85t138.5 -285l-131 -10q-10 94 -50.5 153z" />
    <glyph glyph-name="percent" unicode="%" 
d="M200.5 1004.5q-53.5 31.5 -84.5 89.5t-31 136q0 77 31 134.5t84.5 88.5t118.5 31t118.5 -31t84.5 -88.5t31 -134.5q0 -78 -31 -136t-84.5 -89.5t-118.5 -31.5t-118.5 31.5zM413.5 1104q36.5 44 36.5 126q0 81 -36.5 124t-94.5 43t-94.5 -43t-36.5 -124q0 -82 36.5 -126
t94.5 -44t94.5 44zM802.5 7.5q-53.5 31.5 -84.5 90t-31 135.5t31 135t84.5 89t118.5 31t118.5 -31t84.5 -89t31 -135t-31 -135.5t-84.5 -90t-118.5 -31.5t-118.5 31.5zM1016 107q37 44 37 126q0 81 -37 124.5t-95 43.5t-94.5 -43.5t-36.5 -124.5q0 -82 36.5 -126t94.5 -44
t95 44zM170 0l788 1460h112l-788 -1460h-112z" />
    <glyph glyph-name="ampersand" unicode="&#x26;" 
d="M918 818h251v-110h-176l46 38q-8 -216 -61 -388t-168 -277t-300 -105q-128 0 -218 50t-136 138t-46 201t45.5 203t124 155t181.5 110l61 -70q-130 -56 -202.5 -152.5t-72.5 -224.5q0 -85 32 -151t95 -103.5t151 -37.5q140 0 228 92t126.5 235t38.5 305v92zM728 1324
q-55 46 -145 46q-69 0 -121 -27t-81 -75.5t-29 -111.5q0 -64 29 -129.5t69.5 -121t105.5 -133.5q16 -19 31 -38l603 -734h-159l-544 657l-44 52q-76 90 -119.5 150t-73.5 135.5t-30 161.5q0 101 43 174.5t124.5 113t195.5 39.5q137 0 222 -60.5t136 -190.5l-118 -41
q-40 87 -95 133z" />
    <glyph glyph-name="quotesingle" unicode="'" 
d="M571 820l-14 640h126l-12 -640h-100z" />
    <glyph glyph-name="parenleft" unicode="(" 
d="M586.5 176q63.5 -183 166 -315t250.5 -261h-124q-141 114 -246.5 246.5t-171.5 320.5t-66 434q0 245 66 433t171.5 321.5t246.5 246.5h124q-148 -129 -250.5 -261t-166 -315t-63.5 -425t63.5 -425z" />
    <glyph glyph-name="parenright" unicode=")" 
d="M653.5 1026q-63.5 183 -166 315t-250.5 261h124q141 -114 246.5 -246.5t171.5 -320.5t66 -434q0 -245 -66 -433t-171.5 -321.5t-246.5 -246.5h-124q148 129 250.5 261t166 315t63.5 425t-63.5 425z" />
    <glyph glyph-name="asterisk" unicode="*" 
d="M575 1014l-27 516h144l-27 -516h-90zM606 1057l485 183l45 -137l-503 -130zM656 1041l326 -407l-115 -86l-284 440zM656 988l-284 -440l-115 86l326 407zM607 973l-503 130l45 137l485 -183z" />
    <glyph glyph-name="plus" unicode="+" 
d="M170 701h900v-110h-900v110zM680 1106v-920h-120v920h120z" />
    <glyph glyph-name="comma" unicode="," 
d="M540 -13q-37 19 -57.5 55t-20.5 83q0 48 21 83t57 53t80 18q49 0 88.5 -22.5t63 -69t23.5 -116.5q0 -128 -76.5 -256.5t-193.5 -232.5l-70 60q100 97 157.5 184.5t72.5 178.5l18 -22q-36 -15 -77 -15q-49 0 -86 19z" />
    <glyph glyph-name="hyphen" unicode="-" 
d="M170 701h900v-110h-900v110z" />
    <glyph glyph-name="period" unicode="." 
d="M540 -12.5q-36 18.5 -57 54t-21 82.5q0 48 21 83t57 53.5t80 18.5q45 0 81 -18.5t57 -53.5t21 -83q0 -47 -21 -82.5t-57 -54t-81 -18.5q-44 0 -80 18.5z" />
    <glyph glyph-name="slash" unicode="/" 
d="M160 -200l744 1660h136l-744 -1660h-136z" />
    <glyph glyph-name="zero" unicode="0" 
d="M403 152q-85 83 -120 236t-35 379q0 236 44.5 358t96.5 174q39 38 90 60.5t126 22.5q145 0 230 -83t120 -236t35 -379q0 -165 -24.5 -276.5t-55 -168t-61.5 -87.5q-39 -38 -90 -60.5t-126 -22.5q-145 0 -230 83zM699 618q30 40 30 118q0 44 -9.5 80t-33 58.5t-63.5 22.5
q-52 0 -82 -40t-30 -118q0 -44 9.5 -80t33 -58.5t63.5 -22.5q52 0 82 40zM886 63q118 82 182.5 247.5t64.5 410.5q0 207 -45 376t-156.5 275t-298.5 106q-162 0 -280 -82t-182 -247.5t-64 -410.5q0 -207 45 -376t156 -275t298 -106q162 0 280 82z" />
    <glyph glyph-name="one" unicode="1" 
d="M557 0v1395l92 -45l-497 -129l20 110l441 129h70v-1460h-126zM152 110h956l-20 -110h-916z" />
    <glyph glyph-name="two" unicode="2" 
d="M355 1459.5q-102 -26.5 -198 -74.5l-11 -123q98 49 206 80t209 31q108 0 185 -36t118 -104t41 -162q0 -131 -72 -259.5t-169 -231.5t-244 -238l-14 -13l-260 -239l29 -90h913l29 110h-791l90 79q208 183 339.5 327.5t203.5 287t72 288.5q0 144 -66 232t-171 125t-230 37
q-107 0 -209 -26.5z" />
    <glyph glyph-name="three" unicode="3" 
d="M407 802l16 -18q161 -50 269.5 -105.5t167 -124.5t58.5 -155t-59.5 -154.5t-180 -108.5t-296.5 -40q-109 0 -219 20l41 -126q10 -2 19 -3q30 -5 64 -7.5t83 -2.5q215 0 369 54.5t234 152t80 223.5q0 111 -61 194.5t-163.5 143t-246.5 111.5l400 500l-28 104h-783
l-36 -110h700z" />
    <glyph glyph-name="four" unicode="4" 
d="M213 593l-49 32h678h37h257v-105h-1014l-23 98l706 852h116v-1470h-126v1408l49 -48z" />
    <glyph glyph-name="five" unicode="5" 
d="M348 1460l-87 -674q89 -13 137 -23q162 -33 278.5 -86t178 -122.5t61.5 -151.5q0 -88 -69 -158t-188.5 -109.5t-264.5 -39.5q-59 0 -109.5 6.5t-101.5 18.5l34 -129q43 -7 84.5 -11t88.5 -4q182 0 330.5 53.5t235.5 155t87 241.5q0 94 -49.5 175t-187.5 152.5t-387 119.5
l-42 8l60 468h570l-26 110h-633z" />
    <glyph glyph-name="six" unicode="6" 
d="M236 1109.5q89 180.5 276 276.5t473 91l21 -122q-181 -1 -306 -29t-194.5 -65.5t-103.5 -75.5q-41 -46 -73.5 -141.5t-43.5 -252.5q-5 -72 -5 -143l-37 53h53q106 79 214 120.5t214 41.5q108 0 198 -44.5t143.5 -134t53.5 -218.5q0 -136 -57.5 -247.5t-166 -176.5
t-256.5 -65q-152 0 -262 73t-170 229t-60 397q0 253 89 433.5zM330 326.5q43 -120.5 126.5 -189t200.5 -68.5q98 0 175 50.5t120 137.5t43 194q0 96 -36 165t-103.5 105t-158.5 36q-95 0 -189 -34t-185 -97q-24 -16 -35 -25q-1 -154 42 -274.5z" />
    <glyph glyph-name="seven" unicode="7" 
d="M980 1185q-87 -158 -175.5 -350t-170.5 -407t-143 -429l-140 2q78 261 192 530t233 494t215 369l10 -44h-856l41 110h864l30 -103q-50 -81 -100 -172z" />
    <glyph glyph-name="eight" unicode="8" 
d="M873 1438q92 -44 140 -120t48 -170q0 -151 -107 -254t-265 -168l-54 36q92 41 161.5 97t109 125.5t39.5 147.5q0 82 -45.5 139t-121.5 85.5t-165 28.5q-139 0 -222 -67q-31 -25 -51 -63.5t-20 -105.5q0 -62 24 -120.5t94 -119t197 -112.5q198 -81 302.5 -139.5
t156.5 -129.5t52 -174q0 -106 -72.5 -193t-196.5 -137t-272 -50t-258 51.5t-167.5 137t-57.5 184.5q0 107 63 189.5t157 137t198 88.5l11 3l53 -36q-169 -77 -257.5 -162.5t-88.5 -205.5q0 -84 43.5 -150t131.5 -104t215 -38q104 0 167 22t106 53t75 77.5t32 116.5
q0 81 -46 142t-136 111.5t-241 110.5q-191 75 -292.5 179.5t-101.5 241.5q0 108 57.5 189.5t159 125.5t227.5 44t218 -44z" />
    <glyph glyph-name="nine" unicode="9" 
d="M1004 344.5q-89 -180.5 -276 -276.5t-473 -91l-21 122q181 1 306 29t194.5 65.5t103.5 75.5q41 46 73.5 141.5t43.5 252.5q5 72 5 143l37 -53h-53q-106 -79 -214 -120.5t-214 -41.5q-108 0 -198 44.5t-143.5 134t-53.5 218.5q0 136 57.5 247.5t166 176.5t256.5 65
q152 0 262 -73t170 -229t60 -397q0 -253 -89 -433.5zM910 1127.5q-43 120.5 -126.5 189t-200.5 68.5q-98 0 -175 -50.5t-120 -137.5t-43 -194q0 -96 36 -165t103.5 -105t158.5 -36q95 0 189 34t185 97q24 16 35 25q1 154 -42 274.5z" />
    <glyph glyph-name="colon" unicode=":" 
d="M540 -11.5q-36 18.5 -57 54t-21 82.5q0 48 21 83t57 53.5t80 18.5q45 0 81 -18.5t57 -53.5t21 -83q0 -47 -21 -82.5t-57 -54t-81 -18.5q-44 0 -80 18.5zM540 771.5q-36 18.5 -57 54t-21 82.5q0 48 21 83t57 53.5t80 18.5q45 0 81 -18.5t57 -53.5t21 -83q0 -47 -21 -82.5
t-57 -54t-81 -18.5q-44 0 -80 18.5z" />
    <glyph glyph-name="semicolon" unicode=";" 
d="M540 -13q-37 19 -57.5 55t-20.5 83q0 48 21 83t57 53t80 18q49 0 88.5 -22.5t63 -69t23.5 -116.5q0 -128 -76.5 -256.5t-193.5 -232.5l-70 60q100 97 157.5 184.5t72.5 178.5l18 -22q-36 -15 -77 -15q-49 0 -86 19zM540 771.5q-36 18.5 -57 54t-21 82.5q0 48 21 83
t57 53.5t80 18.5q45 0 81 -18.5t57 -53.5t21 -83q0 -47 -21 -82.5t-57 -54t-81 -18.5q-44 0 -80 18.5z" />
    <glyph glyph-name="less" unicode="&#x3c;" 
d="M1040 1165l-718 -504v-14l718 -505l-63 -90l-787 552v99l787 552z" />
    <glyph glyph-name="equal" unicode="=" 
d="M170 965h900v-110h-900v110zM170 435h900v-110h-900v110z" />
    <glyph glyph-name="greater" unicode="&#x3e;" 
d="M200 135l718 504v14l-718 505l63 90l787 -552v-99l-787 -552z" />
    <glyph glyph-name="question" unicode="?" 
d="M673 530h-104l-4 250q99 23 170.5 61.5t114.5 104.5t43 165q0 133 -78.5 196.5t-223.5 63.5q-144 0 -224.5 -64.5t-95.5 -202.5l-131 10q14 195 140 282.5t311 87.5q132 0 229.5 -42.5t150.5 -126.5t53 -204q0 -184 -113.5 -273t-287.5 -122l53 49zM556 -9
q-29 15 -45.5 43t-16.5 66t16.5 66.5t45.5 43t64 14.5q36 0 65 -14.5t45.5 -43t16.5 -66.5t-16.5 -66t-45.5 -43t-65 -15q-35 0 -64 15z" />
    <glyph glyph-name="at" unicode="@" 
d="M942 1142q-38 92 -109.5 131.5t-177.5 39.5q-137 0 -231.5 -62t-143 -188.5t-48.5 -317.5v-490q0 -211 61 -334.5t165.5 -173.5t249.5 -50q105 0 202 22.5t187 61.5l1 -123q-93 -42 -187 -62t-203 -20q-187 0 -319.5 62.5t-207.5 214t-75 407.5v474q0 232 64 388.5
t186.5 234t298.5 77.5q143 0 242.5 -55.5t154 -182.5t54.5 -337v-660q0 -58 7 -84t24.5 -31t51.5 6v-96q-31 -18 -76 -18q-53 0 -81 26t-37.5 69.5t-9.5 109.5h-5v716q0 153 -38 245zM505.5 846.5q35.5 96.5 96.5 137t144 40.5q53 0 92 -15t68 -40.5t62 -65.5h32v-161
q-43 93 -94 130.5t-120 37.5q-64 0 -104.5 -32t-60.5 -111t-20 -219v-89q0 -140 19 -220t58.5 -114t105.5 -34t117 36.5t99 128.5v-160h-31q-35 -41 -64.5 -65.5t-68 -39.5t-90.5 -15q-85 0 -146 43t-95.5 141.5t-34.5 258.5v170q0 161 35.5 257.5z" />
    <glyph glyph-name="A" unicode="A" 
d="M1042 0l-417 1309h-11l-418 -1309h-124l479 1460h138l479 -1460h-126zM286 552h663v-103h-663v103z" />
    <glyph glyph-name="B" unicode="B" 
d="M217 0v1460h126v-1460h-126zM863.5 1428.5q78.5 -31.5 121 -95.5t42.5 -159q0 -109 -55.5 -190t-147.5 -130t-202 -67q-8 -1 -16 -3v-5q150 -9 262.5 -47t181 -120.5t68.5 -217.5q0 -121 -56.5 -209.5t-166 -136.5t-264.5 -48h-329v110h375q90 0 160 33t110 96t40 150
q0 123 -79 196t-208 103t-297 32l-75 1l1 88l110 11q151 15 253 61t152 117.5t50 163.5q0 64 -24 105.5t-72 62t-121 20.5h-375v110h375q108 0 186.5 -31.5z" />
    <glyph glyph-name="C" unicode="C" 
d="M1111 1439l9 -130q-69 22 -159.5 38.5t-206.5 16.5q-102 0 -166.5 -18t-110.5 -50l-5 -4q-41 -29 -83 -86.5t-75 -173t-33 -291.5q0 -240 80.5 -385t202.5 -205t257 -60q82 0 159.5 15.5t141.5 42.5l-15 -122l-6 -3q-51 -19 -133 -34.5t-174 -15.5q-176 0 -320 76
t-231.5 242.5t-87.5 424.5q0 229 64.5 399.5t209 268.5t377.5 98q144 0 305 -44z" />
    <glyph glyph-name="D" unicode="D" 
d="M207 0v1460h126v-1460h-126zM880 1363q126 -97 174.5 -255.5t48.5 -366.5q0 -253 -74.5 -417.5t-220 -244t-362.5 -79.5h-154v110h191h16q74 1 135 12.5t106.5 30.5t75.5 43q37 30 69.5 85t55.5 159.5t23 263.5q0 224 -42 364t-144.5 211t-284.5 71h-201v110h241
q221 0 347 -97z" />
    <glyph glyph-name="E" unicode="E" 
d="M217 0v1460h126v-1460h-126zM1068 0h-766v110h786zM955 694h-653v105h653v-105zM302 1350v110h766l20 -110h-786z" />
    <glyph glyph-name="F" unicode="F" 
d="M227 0v1460h126v-1460h-126zM975 667h-663v99h683zM312 1360v100h786l20 -100h-806z" />
    <glyph glyph-name="G" unicode="G" 
d="M941 1354.5q-80 13.5 -172 13.5q-66 0 -121 -9t-99.5 -25.5t-79.5 -40.5q-80 -54 -139.5 -178.5t-59.5 -383.5q0 -228 62.5 -373.5t171 -212.5t249.5 -67q120 0 259 33l-42 -33v606l67 -51h-421l20 110h460l1 -708q-84 -26 -174 -42.5t-181 -16.5q-184 0 -318 79.5
t-207 242.5t-73 409q0 232 67.5 405.5t216 272t382.5 98.5q68 0 135.5 -9t135.5 -28l18 -125q-78 20 -158 33.5z" />
    <glyph glyph-name="H" unicode="H" 
d="M207 0v1460h126v-1460h-126zM907 0v1460h126v-1460h-126zM276 810h692v-101h-692v101z" />
    <glyph glyph-name="I" unicode="I" 
d="M547 0v1460h126v-1460h-126zM1068 1460l20 -110h-936l20 110h896zM152 110h936l-20 -110h-896z" />
    <glyph glyph-name="J" unicode="J" 
d="M918 116q-68 -87 -165.5 -113.5t-218.5 -26.5q-112 0 -187 14t-135 38l-24 125q15 -6 45 -16q76 -25 150 -38t152 -13q95 0 164 17t100 41t46 77.5t15 146.5v1092h126v-1090q0 -167 -68 -254zM942 1350h-716l20 110h696v-110z" />
    <glyph glyph-name="K" unicode="K" 
d="M207 0v1460h126v-1460h-126zM801.5 376.5q-115.5 175.5 -256.5 353.5l71 -30h-329v105h337l-86 -46q140 181 244.5 347.5t199.5 353.5h147q-91 -182 -201 -354t-247 -338v-13q138 -165 263 -351t240 -404h-161q-106 201 -221.5 376.5z" />
    <glyph glyph-name="L" unicode="L" 
d="M207 0v1460h126v-1460h-126zM1098 0h-806v110h826z" />
    <glyph glyph-name="M" unicode="M" 
d="M357 1459l264 -868h12l252 868h166l62 -1459h-114l-55 1286h-15l-269 -897h-84l-278 897h-13l-45 -1286h-113l61 1459h169z" />
    <glyph glyph-name="N" unicode="N" 
d="M207 1460h150l544 -1212h12v1213h120v-1461h-151l-543 1248h-12v-1248h-120v1460z" />
    <glyph glyph-name="O" unicode="O" 
d="M324 87q-104 106 -145.5 274.5t-41.5 376.5q0 236 61 402.5t173 252t262 85.5q178 0 282.5 -106t146 -274.5t41.5 -376.5q0 -236 -61.5 -402.5t-173.5 -252t-262 -85.5q-178 0 -282 106zM743.5 98.5q50.5 21.5 86.5 56.5q28 28 57 87t51 169.5t22 272.5q0 223 -31 373.5
t-108.5 233t-212.5 82.5q-63 0 -113.5 -21t-86.5 -56q-48 -48 -89 -173t-41 -356q0 -223 31 -373.5t108.5 -233.5t212.5 -83q63 0 113.5 21.5z" />
    <glyph glyph-name="P" unicode="P" 
d="M217 0v1460h126v-1460h-126zM689.5 710q134.5 56 206 149.5t71.5 216.5q0 82 -32.5 148t-104 105.5t-182.5 39.5h-342v91h345q132 0 230 -36.5t154 -118t56 -213.5q0 -233 -179 -375t-536 -173l-80 -7l-12 98l86 6q185 13 319.5 69z" />
    <glyph glyph-name="Q" unicode="Q" 
d="M359.5 1400.5q-117.5 -77.5 -181 -226t-63.5 -356.5q0 -274 113 -492.5t351 -370.5t603 -219l71 108q-363 71 -583.5 207t-317 328.5t-96.5 447.5q0 220 40 325.5t92 151.5q38 34 92 55t130 21q137 0 221 -70t120 -184t36 -255q0 -184 -55.5 -327t-155 -250t-242.5 -196
l60 -53q162 80 282.5 202.5t187.5 283t67 347.5q0 152 -48 288t-158.5 224t-286.5 88q-161 0 -278.5 -77.5z" />
    <glyph glyph-name="R" unicode="R" 
d="M207 0v1460h126v-1460h-126zM693 818.5q106 56.5 169.5 138t63.5 191.5q0 75 -31.5 124t-93 73t-153.5 24h-352v91l296 2q140 1 241.5 -24t162.5 -92.5t61 -188.5q0 -128 -68.5 -224t-183.5 -162t-270 -115l6 59l614 -715h-165l-553 662l-1 48q151 52 257 108.5z" />
    <glyph glyph-name="S" unicode="S" 
d="M676 1368q-116 0 -191 -19.5t-111 -48.5t-54.5 -63.5t-18.5 -92.5q0 -64 34.5 -116.5t100.5 -99t172 -98.5q20 -9 39 -19l46 -22q151 -72 226 -118t120 -113.5t45 -170.5q0 -122 -64.5 -214t-184 -142.5t-279.5 -50.5q-111 0 -210 23t-194 62v128q100 -44 214 -72.5
t229 -28.5t180 21t102 52q35 29 58 73.5t23 111.5q0 78 -35.5 129t-98.5 88t-194 99l-63 29q-133 63 -214 121.5t-122.5 130t-41.5 167.5q0 136 74 219t195 118t273 35q73 0 149 -9t154 -27l11 -128q-201 46 -369 46z" />
    <glyph glyph-name="T" unicode="T" 
d="M547 0v1460h126v-1460h-126zM132 1460h976l20 -110h-1016z" />
    <glyph glyph-name="U" unicode="U" 
d="M355 46.5q-92 65.5 -128 170.5t-36 241v1002h126v-923q0 -152 17 -241.5t88 -148t221 -58.5q78 0 130 15t81 43q32 30 50.5 84t18.5 153v1076h126v-1019q0 -178 -55 -279t-151.5 -141t-236.5 -40q-159 0 -251 65.5z" />
    <glyph glyph-name="V" unicode="V" 
d="M392 782q84 -315 223 -613h13q138 297 222 612t129 679h129q-57 -414 -157.5 -771.5t-278.5 -688.5h-106q-178 331 -278.5 688.5t-157.5 771.5h133q45 -363 129 -678z" />
    <glyph glyph-name="W" unicode="W" 
d="M727.5 447q-41.5 220 -82.5 484l-12 74h-14q-7 -40 -14 -81q-47 -271 -90 -485.5t-107 -437.5h-98q-115 352 -180.5 724t-93.5 735h131q22 -283 73.5 -611t119.5 -610h13q45 177 87 393.5t94 510.5l13 73h125q9 -52 18 -105q47 -276 87 -488.5t82 -383.5h12
q66 279 116.5 607t72.5 614h124q-29 -368 -93 -738.5t-178 -720.5h-102q-62 226 -103.5 446z" />
    <glyph glyph-name="X" unicode="X" 
d="M260 1460l887 -1458h-153l-885 1460zM971 1460l153 2l-437 -751l-76 90zM251 2h-158l476 780l77 -94z" />
    <glyph glyph-name="Y" unicode="Y" 
d="M557 0v765h126v-765h-126zM386 1116q96 -167 229 -326h13q133 159 229 326t154 344h127q-69 -205 -186 -408.5t-280 -388.5h-106q-163 185 -280 388.5t-186 408.5h132q58 -177 154 -344z" />
    <glyph glyph-name="Z" unicode="Z" 
d="M1012 1460l15 -79l-727 -1313l-27 43h819l-37 -110h-869l-13 82l713 1287l16 -21h-747l38 110z" />
    <glyph glyph-name="bracketleft" unicode="[" 
d="M367 1602h626v-100h-545l45 35v-1872l-45 35h545v-100h-626v2002z" />
    <glyph glyph-name="backslash" unicode="\" 
d="M1080 -200l-744 1660h-136l744 -1660h136z" />
    <glyph glyph-name="bracketright" unicode="]" 
d="M247 -400v100h545l-45 -35v1872l45 -35h-545v100h626v-2002h-626z" />
    <glyph glyph-name="asciicircum" unicode="^" 
d="M572 1530h97l450 -780l-96 -54l-396 687h-13l-396 -687l-96 54z" />
    <glyph glyph-name="underscore" unicode="_" 
d="M0 -230h1240v-130h-1240v130z" />
    <glyph glyph-name="grave" unicode="`" 
d="M575 1274l-253 323h140l222 -323h-109z" />
    <glyph glyph-name="a" unicode="a" 
d="M908 0v710q0 74 -30 119t-83 65t-124 20q-127 0 -248 -23.5t-237 -70.5l40 129q91 33 200 53.5t218 20.5q137 0 223.5 -31t126.5 -93t40 -157v-742h-126zM649.5 475q-134.5 -9 -218.5 -34q-91 -27 -124.5 -68t-33.5 -95q0 -55 29 -100.5t85.5 -72t134.5 -26.5
q79 0 189.5 27t216.5 79l9 -98h-44q-104 -60 -205.5 -85.5t-182.5 -25.5q-115 0 -194.5 39t-119.5 103t-40 141q0 139 130 211.5t299.5 94.5t347.5 22v-103q-144 0 -278.5 -9z" />
    <glyph glyph-name="b" unicode="b" 
d="M303 126l-40 -126h-70v1530h124v-1390zM1054.5 240q-65.5 -127 -181.5 -195t-266 -68q-102 0 -195.5 30t-170.5 87l24 87q85 -53 178 -80.5t186 -27.5q64 0 113 15.5t99 51.5q63 46 102.5 127.5t39.5 235.5q0 186 -74 301.5t-252 115.5q-92 0 -185.5 -34t-185.5 -91l6 96
h29q81 60 171.5 96t199.5 36q144 0 240 -63t142 -171.5t46 -248.5q0 -173 -65.5 -300z" />
    <glyph glyph-name="c" unicode="c" 
d="M923.5 1013.5q71.5 -10.5 141.5 -28.5l14 -129q-84 25 -178 39.5t-188 14.5t-158.5 -15t-108.5 -46q-56 -39 -99.5 -118.5t-43.5 -203.5q0 -136 60 -234.5t168.5 -150.5t253.5 -52q74 0 144.5 12.5t148.5 34.5l-24 -110q-61 -22 -134.5 -36.5t-163.5 -14.5
q-179 0 -307.5 65t-196 183.5t-67.5 277.5q0 171 77 288t211 175.5t306 58.5q73 0 144.5 -10.5z" />
    <glyph glyph-name="d" unicode="d" 
d="M924 1530h124v-1530h-110v136l-14 14v1380zM185.5 760q65.5 127 181.5 195t266 68q102 0 195.5 -30t170.5 -87l-24 -87q-85 53 -178 80.5t-186 27.5q-64 0 -113 -15.5t-99 -51.5q-63 -46 -102.5 -127.5t-39.5 -235.5q0 -186 74 -301.5t252 -115.5q92 0 185.5 34t185.5 91
l-6 -96h-29q-81 -60 -171.5 -96t-199.5 -36q-144 0 -240 63t-142 171.5t-46 248.5q0 173 65.5 300z" />
    <glyph glyph-name="e" unicode="e" 
d="M332.5 740.5q-46.5 -86.5 -46.5 -231.5q0 -119 39.5 -212t134.5 -149t254 -56q86 0 163 16t146 41l-12 -110q-67 -26 -149.5 -44.5t-180.5 -18.5q-166 0 -280.5 61.5t-173 174t-58.5 265.5q0 172 70.5 295.5t190 187.5t266.5 64q136 0 219.5 -52.5t119 -138t35.5 -190.5
v-107h-797v87h705l-40 -58q4 23 6.5 47t2.5 52q0 86 -30.5 144t-94 88t-162.5 30q-72 0 -128 -15.5t-92 -40.5q-61 -43 -107.5 -129.5z" />
    <glyph glyph-name="f" unicode="f" 
d="M1051 1493.5q-67 10.5 -136 10.5q-60 0 -106 -8t-77.5 -21.5t-49.5 -29.5q-28 -25 -44 -74.5t-16 -140.5v-1230h-124v1152q0 176 60 279t159.5 144t232.5 41q52 0 104.5 -6.5t102.5 -18.5h1l24 -127q-64 19 -131 29.5zM192 99h806l-20 -99h-766zM1177 997l-33 -100h-1026
v60l442 49l29 -9h588z" />
    <glyph glyph-name="g" unicode="g" 
d="M360.5 393.5q-90.5 42.5 -142 117.5t-51.5 167t50.5 171t147.5 127t231 48q91 0 165 -25t137 -78l8 -29q3 -3 6 -7q32 -40 49 -85.5t17 -100.5q0 -100 -54 -179.5t-148 -124t-211 -44.5q-114 0 -204.5 42.5zM970.5 1009.5q67.5 23.5 136.5 25.5l27 -122l-299 -14l18 55
q50 32 117.5 55.5zM504 418l-68 -185q-5 -14 -5 -25t7.5 -19.5t23.5 -12.5l6 -1l440 -77l8 -1q62 -12 110 -35t78 -65t30 -106q0 -96 -74.5 -168t-207.5 -111.5t-305 -39.5q-136 0 -239.5 26.5t-161 79.5t-57.5 130q0 63 43 113.5t145 116.5l114 74l50 -41q-31 -13 -63 -30
q-49 -27 -87 -60.5t-60.5 -71.5t-22.5 -78q0 -53 40.5 -90.5t120.5 -57t195 -19.5q119 0 222 21t167 66.5t64 113.5q0 53 -43 85.5t-130 46.5l-359 56q-65 10 -102 23t-53.5 31.5t-16.5 46.5q0 30 19 71t52 98q20 35 22 40l37 72zM778.5 852.5q-80.5 67.5 -241.5 67.5
q-74 0 -120 -13t-72 -34q-25 -20 -39.5 -59t-14.5 -100q0 -130 80.5 -197.5t241.5 -67.5q74 0 120 13t72 34q25 20 39.5 59t14.5 100q0 130 -80.5 197.5z" />
    <glyph glyph-name="h" unicode="h" 
d="M344 0h-124v1530h124v-654v-14v-862zM893 0v713q0 74 -24.5 119t-68 65t-103.5 20q-83 0 -183 -34.5t-211 -97.5v100h47q102 66 198.5 102t195.5 36q132 0 201.5 -66t70.5 -185l4 -772h-127z" />
    <glyph glyph-name="i" unicode="i" 
d="M671 1000v-1000h-124v946l45 -45h-431l20 99h490zM141 99h956l-20 -99h-916zM523 1324.5q-24 11.5 -37.5 34t-13.5 52.5q0 46 29.5 72t76.5 26t76.5 -26t29.5 -72t-29.5 -72t-76.5 -26q-31 0 -55 11.5z" />
    <glyph glyph-name="j" unicode="j" 
d="M852 1000v-982q0 -177 -59 -274.5t-163.5 -133.5t-261.5 -36q-71 0 -127 6t-109 19l-24 117q65 -19 133.5 -29.5t146.5 -10.5q110 0 176 19t97 47q30 26 48.5 77.5t18.5 140.5v986l45 -45h-599l20 99h658zM705 1324.5q-24 11.5 -37.5 34t-13.5 52.5q0 46 29.5 72t76.5 26
t76.5 -26t29.5 -72t-29.5 -72t-76.5 -26q-31 0 -55 11.5z" />
    <glyph glyph-name="k" unicode="k" 
d="M344 1530v-1530h-124v1530h124zM912.5 776.5q-99.5 -102.5 -221.5 -215.5v-13q127 -115 248.5 -249.5t234.5 -298.5h-161q-111 150 -218.5 272t-239.5 251l71 -30h-326v105h334l-93 -46q132 127 232 234t192 214h154q-107 -121 -206.5 -223.5z" />
    <glyph glyph-name="l" unicode="l" 
d="M547 0v1476l45 -45h-431l20 99h490v-1530h-124zM141 99h956l-20 -99h-916z" />
    <glyph glyph-name="m" unicode="m" 
d="M302 0h-124v1001h117v-125l7 -14v-862zM556 0v813q0 57 -23.5 80.5t-61.5 23.5q-50 0 -101 -34t-102 -91l-7 -7v100h40q43 69 100.5 103.5t125.5 34.5q49 0 83 -18t51.5 -54t17.5 -89l4 -862h-127zM935 0v813q0 57 -23.5 80.5t-61.5 23.5q-51 0 -102.5 -34.5
t-104.5 -93.5l-3 -4v100h40q43 69 100.5 103.5t125.5 34.5q49 0 83 -18t51.5 -54t17.5 -89l4 -862h-127z" />
    <glyph glyph-name="n" unicode="n" 
d="M344 0h-124v1001h117v-125l7 -14v-862zM893 0v713q0 74 -24.5 119t-68 65t-103.5 20q-83 0 -183 -34.5t-211 -97.5v100h40q100 65 201 101.5t200 36.5q132 0 201.5 -66t70.5 -185l4 -772h-127z" />
    <glyph glyph-name="o" unicode="o" 
d="M363 39.5q-107 63.5 -165 181.5t-58 279q0 174 68 292t179.5 175t243.5 57q140 0 246 -63.5t164.5 -182t58.5 -280.5q0 -173 -66.5 -290.5t-177 -174.5t-244.5 -57q-142 0 -249 63.5zM755 100.5q51 12.5 87 37.5q51 35 86 111t35 240q0 114 -25.5 206.5t-106 156
t-231.5 63.5q-67 0 -117 -12t-87 -38q-33 -23 -58.5 -58t-43.5 -106t-18 -186t25.5 -207.5t105.5 -156t231 -63.5q66 0 117 12.5z" />
    <glyph glyph-name="p" unicode="p" 
d="M317 -400h-124v1401h110v-116l14 -14v-1271zM1054.5 240q-65.5 -127 -181.5 -195t-266 -68q-102 0 -195.5 30t-170.5 87l24 87q85 -53 178 -80.5t186 -27.5q64 0 113 15.5t99 51.5q63 46 102.5 127.5t39.5 235.5q0 186 -74 301.5t-252 115.5q-92 0 -185.5 -34t-185.5 -91
l6 96h29q81 60 171.5 96t199.5 36q144 0 240 -63t142 -171.5t46 -248.5q0 -173 -65.5 -300z" />
    <glyph glyph-name="q" unicode="q" 
d="M938 905l20 116h90v-1421h-124v1291zM185.5 761q65.5 127 181.5 195t266 68q102 0 195.5 -30t170.5 -87l-24 -87q-85 53 -178 80.5t-186 27.5q-64 0 -113 -15.5t-99 -51.5q-63 -46 -102.5 -127.5t-39.5 -235.5q0 -186 74 -301.5t252 -115.5q92 0 185.5 34t185.5 91
l-6 -96h-29q-81 -60 -171.5 -96t-199.5 -36q-144 0 -240 63t-142 171.5t-46 248.5q0 173 65.5 300z" />
    <glyph glyph-name="r" unicode="r" 
d="M566 791l15 -14v-777h-124v1000h109v-209zM141 99h856l-20 -99h-816zM161 1000h361v-99h-381zM916.5 879q-96.5 -16 -181.5 -51t-183 -94l-23 82h54q57 65 126.5 111.5t152 71t175.5 24.5q47 0 84 -8l13 -124q-121 4 -217.5 -12z" />
    <glyph glyph-name="s" unicode="s" 
d="M880 1012q73 -10 142 -29l5 -120q-81 21 -175.5 34.5t-200.5 13.5q-94 0 -166.5 -13t-118.5 -45q-28 -19 -43 -43.5t-15 -50.5q0 -39 34 -72t102 -62t175 -56l66 -16q132 -31 209.5 -59.5t125.5 -80t48 -135.5q0 -95 -62.5 -162t-176.5 -101t-268 -34q-109 0 -204.5 16.5
t-178.5 44.5l-8 125q100 -32 218 -52t259 -20q76 0 137.5 9t105.5 35l3 2q28 18 43 45.5t15 64.5q0 58 -40.5 94t-113 59.5t-224.5 60.5q-5 2 -11 3q-123 30 -200.5 65.5t-117 85t-39.5 118.5q0 100 75 164t193.5 92.5t253.5 28.5q80 0 153 -10z" />
    <glyph glyph-name="t" unicode="t" 
d="M549 941v-696q0 -56 20 -90t68.5 -51t133.5 -17q76 0 156.5 15.5t146.5 36.5l-19 -104q-76 -26 -158.5 -42t-177.5 -16q-113 0 -177.5 28.5t-91 87t-26.5 155.5v693h125zM1072 1000l-29 -100h-911v46l381 301h41v-278l-98 31h616z" />
    <glyph glyph-name="u" unicode="u" 
d="M896 1000h124v-1001h-117v125l-7 14v862zM347 1000v-713q0 -74 24.5 -119t68 -65t103.5 -20q83 0 183 34.5t211 97.5v-100h-40q-100 -65 -201 -101.5t-200 -36.5q-132 0 -201.5 66t-70.5 185l-4 772h127z" />
    <glyph glyph-name="v" unicode="v" 
d="M393.5 551q88.5 -218 221.5 -425h13q133 207 221.5 425t131.5 449h127q-53 -255 -162.5 -510.5t-273.5 -489.5h-106q-164 234 -273.5 489.5t-162.5 510.5h132q43 -231 131.5 -449z" />
    <glyph glyph-name="w" unicode="w" 
d="M715.5 356.5q-52.5 175.5 -86.5 321.5h-14q-91 -361 -219 -677h-96q-113 256 -179 500t-91 499h125q21 -223 71 -436.5t121 -399.5h13q51 133 105.5 310.5t96.5 335.5l6 23h123l15 -59q39 -149 88 -316.5t94 -293.5h12q72 194 123.5 406t72.5 430h114q-25 -257 -92 -501
t-184 -498h-97q-69 180 -121.5 355.5z" />
    <glyph glyph-name="x" unicode="x" 
d="M280 1000l857 -998h-163l-855 998h161zM961 1000h153l-447 -521l-54 90zM261 2h-158l486 556l59 -94z" />
    <glyph glyph-name="y" unicode="y" 
d="M405 531q98 -223 226 -443h16q124 227 211 446.5t150 465.5h128q-57 -217 -157 -459t-207 -448l-58 -111q-61 -116 -131 -204t-168.5 -144.5t-225.5 -56.5q-56 0 -124 10l-28 116q83 -16 157 -16q91 0 158.5 30.5t110.5 76t74 100.5l53 94l20 -34l-17 -44
q-103 171 -189.5 343t-160.5 359t-132 388h130q66 -246 164 -469z" />
    <glyph glyph-name="z" unicode="z" 
d="M982 1003l15 -72l-693 -870l-21 43h779l-37 -103h-849l-13 75l679 844l16 -21h-693l38 103z" />
    <glyph glyph-name="braceleft" unicode="{" 
d="M531 558.5q109 -51.5 150.5 -158.5t-2.5 -267l-24 -88q-36 -131 -18.5 -207t74.5 -107t150 -31h235v-100h-258q-139 0 -223 53.5t-105.5 157t22.5 250.5l23 77q38 127 7.5 215t-134.5 135t-284 49v128q180 2 284 49t134.5 135t-7.5 215l-23 77q-44 147 -22.5 250.5
t105.5 157t223 53.5h258v-100h-235q-93 0 -150 -31t-74.5 -107t18.5 -207l24 -88q44 -159 2.5 -266t-150.5 -159t-268 -52v18q159 0 268 -51.5z" />
    <glyph glyph-name="bar" unicode="|" 
d="M557 -400v2002h126v-2002h-126z" />
    <glyph glyph-name="braceright" unicode="}" 
d="M709 644q-109 52 -150.5 159t2.5 266l24 88q36 131 18.5 207t-74.5 107t-150 31h-235v100h258q139 0 223 -53.5t105.5 -157t-22.5 -250.5l-23 -77q-38 -127 -7.5 -215t134.5 -135t284 -49v-128q-180 -2 -284 -49t-134.5 -135t7.5 -215l23 -77q44 -147 22.5 -250.5
t-105.5 -157t-223 -53.5h-258v100h235q93 0 150 31t74.5 107t-18.5 207l-24 88q-44 160 -2.5 267t150.5 158.5t268 51.5v-18q-159 0 -268 52z" />
    <glyph glyph-name="asciitilde" unicode="~" 
d="M732.5 463.5q-47.5 23.5 -80 56.5t-74.5 87q-34 44 -57 68.5t-52 41.5t-65 17q-42 0 -71 -26t-48.5 -84.5t-31.5 -156.5l-112 14q18 199 84.5 284t174.5 85q61 0 108 -23.5t79 -56.5t75 -87q35 -44 58 -68.5t52 -41.5t65 -17q41 0 70 26t48.5 84t31.5 157l112 -14
q-18 -199 -84 -284t-174 -85q-61 0 -108.5 23.5z" />
    <glyph glyph-name="exclamdown" unicode="&#xa1;" 
d="M671 451l14 -910h-130l12 910h104zM684 1010q29 -15 45.5 -43t16.5 -66t-16.5 -66.5t-45.5 -43t-64 -14.5q-36 0 -65 14.5t-45.5 43t-16.5 66.5t16.5 66t45.5 43t65 15q35 0 64 -15z" />
    <glyph glyph-name="cent" unicode="&#xa2;" 
d="M638 234l-36 -343h-114l36 343h114zM1004 304.5q-66 -63.5 -160.5 -96t-206.5 -32.5q-147 0 -261.5 55t-179 161.5t-64.5 255.5t65 254.5t180 160t264 54.5q114 0 208 -32.5t158 -95.5t91 -153l-123 -28q-33 98 -119 147.5t-215 49.5q-114 0 -197.5 -40t-129.5 -120
t-46 -198q0 -117 46 -198t128.5 -121t194.5 -40q126 0 216 50.5t122 146.5l122 -27q-27 -90 -93 -153.5zM611 1053l36 348h114l-36 -348h-114zM527 222l86 843h107l-86 -843h-107z" />
    <glyph glyph-name="sterling" unicode="&#xa3;" 
d="M1078 110v-110h-916v96q104 66 148 165.5t44 240.5q0 84 -11.5 151.5t-34.5 153.5q-21 83 -31.5 140t-10.5 125q0 149 54.5 241t147 131.5t215.5 39.5q113 0 200.5 -34.5t143 -116.5t65.5 -219l-123 -10q-10 94 -46 153t-98 86.5t-150 27.5q-82 0 -143.5 -26t-98 -92
t-36.5 -181q0 -61 9 -116.5t28 -139.5q21 -97 31.5 -163.5t10.5 -145.5q0 -169 -55 -279.5t-160 -173.5v56h817zM162 676v109h598v-109h-598z" />
    <glyph glyph-name="currency" unicode="&#xa4;" 
d="M399 266q-97 57 -151.5 157t-54.5 225t54 224.5t151.5 155.5t221.5 56q125 0 222 -56t151 -155.5t54 -224.5t-54 -225.5t-151.5 -157t-221.5 -56.5t-221 57zM782.5 363q69.5 42 107 116.5t37.5 168.5t-37.5 168t-107 116t-162.5 42t-162 -41.5t-106 -116t-37 -168.5
q0 -95 37 -169t106 -116t162 -42t162.5 42zM929 422l205 -203l-87 -87l-203 206zM839 951l208 209l87 -87l-209 -208zM193 1160l203 -205l-85 -85l-205 203zM106 219l209 208l86 -86l-208 -209z" />
    <glyph glyph-name="yen" unicode="&#xa5;" 
d="M232 259v109h775v-109h-775zM232 600v109h775v-109h-775zM557 0v749h126v-749h-126zM231 1460l389 -674h11l392 674h125l-477 -812h-102l-477 812h139z" />
    <glyph glyph-name="brokenbar" unicode="&#xa6;" 
d="M557 739v863h126v-863h-126zM557 -400v863h126v-863h-126z" />
    <glyph glyph-name="section" unicode="&#xa7;" 
d="M203 832q-38 -71 -38 -157q0 -95 47.5 -162.5t129 -116.5t217.5 -106l50 -21q127 -52 190 -86t100 -86t37 -134q0 -131 -92 -202.5t-259 -71.5q-169 0 -257.5 78t-102.5 247l-129 -10q5 -123 56 -219t158.5 -152.5t274.5 -56.5q166 0 273.5 55t157 145t49.5 198
q0 109 -49.5 182t-137.5 123.5t-246 116.5q-21 9 -43 18q-121 53 -183.5 92t-88.5 81.5t-26 104.5q0 60 22.5 106t69.5 84l-78 75q-64 -54 -102 -125zM1069.5 274.5q34.5 72.5 34.5 152.5q0 98 -49.5 166t-137.5 118t-246 116l-21 9q-130 56 -197 97t-95 85.5t-28 109.5
q0 120 82 181.5t242 61.5q99 0 166.5 -27.5t106.5 -86.5t48 -153l126 10q-10 137 -70.5 219t-154 116.5t-212.5 34.5q-146 0 -249 -40t-157 -119t-54 -195q0 -106 47 -178.5t128.5 -122.5t218.5 -108q18 -8 54 -22q126 -53 187.5 -86t98 -79.5t36.5 -117.5q0 -55 -20 -100
t-56 -80l69 -94q68 60 102.5 132.5z" />
    <glyph glyph-name="dieresis" unicode="&#xa8;" 
d="M298.5 1339q-28.5 26 -28.5 72t28.5 72t75.5 26q46 0 74.5 -26t28.5 -72t-28.5 -72t-74.5 -26q-47 0 -75.5 26zM791.5 1339q-28.5 26 -28.5 72t28.5 72t75.5 26q46 0 74.5 -26t28.5 -72t-28.5 -72t-74.5 -26q-47 0 -75.5 26z" />
    <glyph glyph-name="copyright" unicode="&#xa9;" 
d="M509 589.5q21 -56.5 56 -83.5t78 -27q54 0 86.5 39t40.5 105l100 -7q-11 -111 -72 -172.5t-159 -61.5q-76 0 -132 39.5t-87 118t-31 191.5q0 171 67 260.5t183 89.5q98 0 159 -61.5t72 -172.5l-97 -8q-6 65 -40.5 104.5t-89.5 39.5q-68 0 -111.5 -63t-43.5 -190
q0 -84 21 -140.5zM1108.5 327q-71.5 -171 -198 -261t-290.5 -90t-291 90t-198 261t-71 405q0 232 71 402t198 260t291 90q163 0 290 -90t198.5 -260t71.5 -402q0 -234 -71.5 -405zM1046.5 1105q-63.5 155 -174.5 234.5t-252 79.5t-252 -79.5t-174.5 -234.5t-63.5 -373
q0 -220 63.5 -375.5t174.5 -235.5t252 -80t252 80t174.5 235.5t63.5 375.5q0 218 -63.5 373z" />
    <glyph glyph-name="ordfeminine" unicode="&#xaa;" 
d="M666 1509q60 -45 60 -149v-309q0 -23 6.5 -34.5t22 -14.5t44.5 1v-80q-37 -12 -76 -12t-61.5 14t-31.5 37.5t-9 55.5l-6 10v325q0 71 -35 96.5t-104 25.5q-63 0 -101.5 -23t-39.5 -83v-27h-103v32q0 84 62 132t194 48q118 0 178 -45zM557 1207q-113 0 -172 -27.5
t-59 -89.5q0 -46 31.5 -71t88.5 -25q51 0 93.5 19t90.5 56l3 -67h-22q-48 -42 -96.5 -66.5t-117.5 -24.5q-57 0 -99 19.5t-64.5 57t-22.5 89.5q0 83 56.5 125.5t145 55t215.5 11.5l30 -70q-60 8 -101 8z" />
    <glyph glyph-name="guillemotleft" unicode="&#xab;" 
d="M459 -22l-359 524l102 43l348 -504zM550 963l-350 -503l-100 42l359 524zM969 -26l-359 524l102 43l348 -504zM1060 959l-350 -503l-100 42l359 524z" />
    <glyph glyph-name="logicalnot" unicode="&#xac;" 
d="M170 801h900v-110h-900v110zM1070 801v-485h-120v485h120z" />
    <glyph glyph-name="uni00AD" unicode="&#xad;" 
d="M170 701h900v-110h-900v110z" />
    <glyph glyph-name="registered" unicode="&#xae;" 
d="M885 404h-122l-117 267l85 37zM429 404v654h98v-654h-98zM690 723.5q45 20.5 61 53.5t16 75q0 65 -34 98t-108 33h-147v75l167 1q106 1 164 -50t58 -150t-65.5 -165.5t-223.5 -66.5h-108l1 76h94q80 0 125 20.5zM1108.5 327q-71.5 -171 -198 -261t-290.5 -90t-291 90
t-198 261t-71 405q0 232 71 402t198 260t291 90q163 0 290 -90t198.5 -260t71.5 -402q0 -234 -71.5 -405zM1046.5 1105q-63.5 155 -174.5 234.5t-252 79.5t-252 -79.5t-174.5 -234.5t-63.5 -373q0 -220 63.5 -375.5t174.5 -235.5t252 -80t252 80t174.5 235.5t63.5 375.5
q0 218 -63.5 373z" />
    <glyph glyph-name="macron" unicode="&#xaf;" 
d="M927 1339h-614v100h614v-100z" />
    <glyph glyph-name="degree" unicode="&#xb0;" 
d="M446.5 911.5q-76.5 44.5 -119 123t-42.5 176.5t42.5 176t119 122.5t173.5 44.5t173.5 -44.5t119 -122.5t42.5 -176t-42.5 -176.5t-119 -123t-173.5 -44.5t-173.5 44.5zM737.5 1003.5q50.5 30.5 78 85t27.5 122.5t-27.5 122t-78 84.5t-117.5 30.5t-118 -30.5t-78.5 -84.5
t-27.5 -122t27.5 -122.5t78.5 -85t118 -30.5t117.5 30.5z" />
    <glyph glyph-name="plusminus" unicode="&#xb1;" 
d="M170 1055h900v-110h-900v110zM680 1415v-830h-120v830h120zM170 313h900v-110h-900v110z" />
    <glyph glyph-name="uni00B2" unicode="&#xb2;" 
d="M745.5 1626q57.5 -38 57.5 -116q0 -55 -26 -93t-61 -61t-87 -48q-5 -2 -10 -5q-58 -29 -86.5 -47t-41 -39.5t-11.5 -54.5l-19 18h362v-80h-437v80q0 42 20.5 75.5t58 61t95.5 55.5l13 6q30 14 44 22q42 22 64.5 47t22.5 63q0 41 -28 59t-78 18q-54 0 -83.5 -20t-35.5 -71
l-93 8q0 51 25.5 87t70.5 54.5t104 18.5q102 0 159.5 -38z" />
    <glyph glyph-name="uni00B3" unicode="&#xb3;" 
d="M754.5 1626q55.5 -38 55.5 -110q0 -70 -51.5 -107.5t-122.5 -43.5v27q55 -3 97 -16.5t68 -44t26 -81.5q0 -77 -57.5 -118t-165.5 -41q-73 0 -122.5 18.5t-75 55t-26.5 90.5l93 9q9 -54 40 -74.5t91 -20.5t91 21t31 64q0 29 -22.5 48t-60.5 28t-86 9h-15v71h14
q72 0 115 26.5t43 72.5q0 42 -29 60t-84 18q-53 0 -81.5 -19.5t-34.5 -70.5l-91 9q2 77 54.5 117.5t149.5 40.5q101 0 156.5 -38z" />
    <glyph glyph-name="acute" unicode="&#xb4;" 
d="M665 1274l253 323h-140l-222 -323h109z" />
    <glyph glyph-name="uni00B5" unicode="&#xb5;" 
d="M896 1000h124v-1000h-117v262l-7 14v724zM220 -400v1400h124v-667q0 -138 62.5 -194t164.5 -56q77 0 141 28t113.5 82.5t83.5 134.5l28 -153h-40q-55 -88 -144.5 -143t-219.5 -55q-90 0 -150 28t-90.5 77t-36.5 113l88 -33v-562h-124z" />
    <glyph glyph-name="paragraph" unicode="&#xb6;" 
d="M575 1460h126v-1460h-126v1460zM325 733q-106 54 -159.5 148t-53.5 216q0 129 58 210t154.5 117t217.5 36h78v-781h-37q-152 0 -258 54zM891 1460h126v-1460h-126v1460zM658 1460h470v-110h-470v110z" />
    <glyph glyph-name="periodcentered" unicode="&#xb7;" 
d="M540 508.5q-36 18.5 -57 54t-21 82.5q0 48 21 83t57 53.5t80 18.5q45 0 81 -18.5t57 -53.5t21 -83q0 -47 -21 -82.5t-57 -54t-81 -18.5q-44 0 -80 18.5z" />
    <glyph glyph-name="cedilla" unicode="&#xb8;" 
d="M748.5 -211.5q44.5 -22.5 68 -63.5t23.5 -105q0 -63 -24.5 -103t-82 -61t-155.5 -21h-64v94h39q100 0 139 25t39 75q0 54 -39 81t-118 35v303h90l4 -276l-31 49q67 -10 111.5 -32.5z" />
    <glyph glyph-name="uni00B9" unicode="&#xb9;" 
d="M499 1572q33 13 58 35.5t29 47.5h72q0 -44 -34 -89t-85 -74.5t-98 -29.5v97q25 0 58 13zM586 1100v555h98v-555h-98zM425 1180h423v-80h-423v80z" />
    <glyph glyph-name="ordmasculine" unicode="&#xba;" 
d="M762.5 1055q-39.5 -72 -107.5 -108t-153 -36q-84 0 -152 36t-107.5 108t-39.5 176t39.5 177t107.5 109.5t152 36.5t152.5 -36.5t108 -109.5t39.5 -177t-39.5 -176zM664 1360.5q-23 51.5 -64.5 77t-97.5 25.5q-84 0 -134 -58.5t-50 -172.5t50 -172t134 -58q85 0 135 58
t50 172q0 77 -23 128.5z" />
    <glyph glyph-name="guillemotright" unicode="&#xbb;" 
d="M781 1022l359 -524l-102 -43l-348 504zM690 37l350 503l100 -42l-359 -524zM271 1026l359 -524l-102 -43l-348 504zM180 41l350 503l100 -42l-359 -524z" />
    <glyph glyph-name="onequarter" unicode="&#xbc;" 
d="M174 1377q33 13 58 35.5t29 47.5h72q0 -44 -34 -89t-85 -74.5t-98 -29.5v97q25 0 58 13zM261 905v555h98v-555h-98zM100 985h423v-80h-423v80zM1098 1085l-794 -794l-72 68l794 794zM951 0v473l28 -4l-244 -272l-23 13h269l21 10h118v-79h-466v79l291 335h102v-555h-96z
" />
    <glyph glyph-name="onehalf" unicode="&#xbd;" 
d="M174 1377q33 13 58 35.5t29 47.5h72q0 -44 -34 -89t-85 -74.5t-98 -29.5v97q25 0 58 13zM261 905v555h98v-555h-98zM100 985h423v-80h-423v80zM1088 1085l-794 -794l-72 68l794 794zM1087.5 526q57.5 -38 57.5 -116q0 -55 -26 -93t-61 -61t-87 -48q-5 -2 -10 -5
q-58 -29 -86.5 -47t-41 -39.5t-11.5 -54.5l-19 18h362v-80h-437v80q0 42 20.5 75.5t58 61t95.5 55.5l13 6q30 14 44 22q42 22 64.5 47t22.5 63q0 41 -28 59t-78 18q-54 0 -83.5 -20t-35.5 -71l-93 8q0 51 25.5 87t70.5 54.5t104 18.5q102 0 159.5 -38z" />
    <glyph glyph-name="threequarters" unicode="&#xbe;" 
d="M469.5 1431q55.5 -38 55.5 -110q0 -70 -51.5 -107.5t-122.5 -43.5v27q55 -3 97 -16.5t68 -44t26 -81.5q0 -77 -57.5 -118t-165.5 -41q-73 0 -122.5 18.5t-75 55t-26.5 90.5l93 9q9 -54 40 -74.5t91 -20.5t91 21t31 64q0 29 -22.5 48t-60.5 28t-86 9h-15v71h14
q72 0 115 26.5t43 72.5q0 42 -29 60t-84 18q-53 0 -81.5 -19.5t-34.5 -70.5l-91 9q2 77 54.5 117.5t149.5 40.5q101 0 156.5 -38zM1098 1085l-794 -794l-72 68l794 794zM951 0v473l28 -4l-244 -272l-23 13h269l21 10h118v-79h-466v79l291 335h102v-555h-96z" />
    <glyph glyph-name="questiondown" unicode="&#xbf;" 
d="M567 471h104l4 -250q-99 -23 -170.5 -61.5t-114.5 -104.5t-43 -165q0 -133 78.5 -196.5t223.5 -63.5q144 0 224.5 64.5t95.5 202.5l131 -10q-14 -195 -140 -282.5t-311 -87.5q-132 0 -229.5 42.5t-150.5 126.5t-53 204q0 184 113.5 273t287.5 122l-53 -49zM684 1010
q29 -15 45.5 -43t16.5 -66t-16.5 -66.5t-45.5 -43t-64 -14.5q-36 0 -65 14.5t-45.5 43t-16.5 66.5t16.5 66t45.5 43t65 15q35 0 64 -15z" />
    <glyph glyph-name="Agrave" unicode="&#xc0;" 
d="M1042 0l-417 1309h-11l-418 -1309h-124l479 1460h138l479 -1460h-126zM286 552h663v-103h-663v103zM575 1650l-253 233h140l222 -233h-109z" />
    <glyph glyph-name="Aacute" unicode="&#xc1;" 
d="M1042 0l-417 1309h-11l-418 -1309h-124l479 1460h138l479 -1460h-126zM286 552h663v-103h-663v103zM665 1650l253 233h-140l-222 -233h109z" />
    <glyph glyph-name="Acircumflex" unicode="&#xc2;" 
d="M1042 0l-417 1309h-11l-418 -1309h-124l479 1460h138l479 -1460h-126zM286 552h663v-103h-663v103zM562 1883h116l264 -233h-131l-219 204h56l-219 -204h-131z" />
    <glyph glyph-name="Atilde" unicode="&#xc3;" 
d="M1042 0l-417 1309h-11l-418 -1309h-124l479 1460h138l479 -1460h-126zM286 552h663v-103h-663v103zM540.5 1881.5q32.5 -12.5 55 -29.5t53.5 -46q36 -33 60.5 -48.5t55.5 -15.5q44 0 73.5 34.5t43.5 98.5l90 -26q-15 -100 -67 -153t-134 -53q-40 0 -72.5 12.5t-55.5 30
t-52 45.5q-37 33 -60.5 48.5t-54.5 15.5q-44 0 -74 -34.5t-44 -98.5l-90 26q15 100 66.5 153t133.5 53q40 0 72.5 -12.5z" />
    <glyph glyph-name="Adieresis" unicode="&#xc4;" 
d="M1042 0l-417 1309h-11l-418 -1309h-124l479 1460h138l479 -1460h-126zM286 552h663v-103h-663v103zM298.5 1689q-28.5 26 -28.5 72t28.5 72t75.5 26q46 0 74.5 -26t28.5 -72t-28.5 -72t-74.5 -26q-47 0 -75.5 26zM791.5 1689q-28.5 26 -28.5 72t28.5 72t75.5 26
q46 0 74.5 -26t28.5 -72t-28.5 -72t-74.5 -26q-47 0 -75.5 26z" />
    <glyph glyph-name="Aring" unicode="&#xc5;" 
d="M1042 0l-417 1309h-11l-418 -1309h-124l479 1460h138l479 -1460h-126zM286 552h663v-103h-663v103zM507.5 1468q-49.5 29 -77.5 80t-28 115t28 114.5t77.5 79.5t112.5 29t112.5 -29t77.5 -79.5t28 -114.5t-28 -115t-77.5 -80t-112.5 -29t-112.5 29zM719.5 1561
q37.5 40 37.5 102t-37.5 101.5t-99.5 39.5t-100 -39.5t-38 -101.5t38 -102t100 -40t99.5 40z" />
    <glyph glyph-name="AE" unicode="&#xc6;" 
d="M644 0v1460h126v-1460h-126zM555 1350l-359 -1350h-124l399 1460h213v-110h-129zM276 552h453v-105h-453v105zM1160 0h-434v110h454zM1047 694h-321v105h321v-105zM726 1350v110h434l20 -110h-454z" />
    <glyph glyph-name="Ccedilla" unicode="&#xc7;" 
d="M1111 1439l9 -130q-69 22 -159.5 38.5t-206.5 16.5q-102 0 -166.5 -18t-110.5 -50l-5 -4q-41 -29 -83 -86.5t-75 -173t-33 -291.5q0 -240 80.5 -385t202.5 -205t257 -60q82 0 159.5 15.5t141.5 42.5l-15 -122l-6 -3q-51 -19 -133 -34.5t-174 -15.5q-176 0 -320 76
t-231.5 242.5t-87.5 424.5q0 229 64.5 399.5t209 268.5t377.5 98q144 0 305 -44zM838.5 -211.5q44.5 -22.5 68 -63.5t23.5 -105q0 -63 -24.5 -103t-82 -61t-155.5 -21h-64v94h39q100 0 139 25t39 75q0 54 -39 81t-118 35v303h90l4 -276l-31 49q67 -10 111.5 -32.5z" />
    <glyph glyph-name="Egrave" unicode="&#xc8;" 
d="M217 0v1460h126v-1460h-126zM1068 0h-766v110h786zM955 694h-653v105h653v-105zM302 1350v110h766l20 -110h-786zM575 1650l-253 233h140l222 -233h-109z" />
    <glyph glyph-name="Eacute" unicode="&#xc9;" 
d="M217 0v1460h126v-1460h-126zM1068 0h-766v110h786zM955 694h-653v105h653v-105zM302 1350v110h766l20 -110h-786zM665 1650l253 233h-140l-222 -233h109z" />
    <glyph glyph-name="Ecircumflex" unicode="&#xca;" 
d="M217 0v1460h126v-1460h-126zM1068 0h-766v110h786zM955 694h-653v105h653v-105zM302 1350v110h766l20 -110h-786zM562 1883h116l264 -233h-131l-219 204h56l-219 -204h-131z" />
    <glyph glyph-name="Edieresis" unicode="&#xcb;" 
d="M217 0v1460h126v-1460h-126zM1068 0h-766v110h786zM955 694h-653v105h653v-105zM302 1350v110h766l20 -110h-786zM298.5 1689q-28.5 26 -28.5 72t28.5 72t75.5 26q46 0 74.5 -26t28.5 -72t-28.5 -72t-74.5 -26q-47 0 -75.5 26zM791.5 1689q-28.5 26 -28.5 72t28.5 72
t75.5 26q46 0 74.5 -26t28.5 -72t-28.5 -72t-74.5 -26q-47 0 -75.5 26z" />
    <glyph glyph-name="Igrave" unicode="&#xcc;" 
d="M547 0v1460h126v-1460h-126zM1068 1460l20 -110h-936l20 110h896zM152 110h936l-20 -110h-896zM575 1650l-253 233h140l222 -233h-109z" />
    <glyph glyph-name="Iacute" unicode="&#xcd;" 
d="M547 0v1460h126v-1460h-126zM1068 1460l20 -110h-936l20 110h896zM152 110h936l-20 -110h-896zM665 1650l253 233h-140l-222 -233h109z" />
    <glyph glyph-name="Icircumflex" unicode="&#xce;" 
d="M547 0v1460h126v-1460h-126zM1068 1460l20 -110h-936l20 110h896zM152 110h936l-20 -110h-896zM562 1883h116l264 -233h-131l-219 204h56l-219 -204h-131z" />
    <glyph glyph-name="Idieresis" unicode="&#xcf;" 
d="M547 0v1460h126v-1460h-126zM1068 1460l20 -110h-936l20 110h896zM152 110h936l-20 -110h-896zM298.5 1689q-28.5 26 -28.5 72t28.5 72t75.5 26q46 0 74.5 -26t28.5 -72t-28.5 -72t-74.5 -26q-47 0 -75.5 26zM791.5 1689q-28.5 26 -28.5 72t28.5 72t75.5 26
q46 0 74.5 -26t28.5 -72t-28.5 -72t-74.5 -26q-47 0 -75.5 26z" />
    <glyph glyph-name="Eth" unicode="&#xd0;" 
d="M672 705h-632v110h632v-110zM207 0v1460h126v-1460h-126zM880 1363q126 -97 174.5 -255.5t48.5 -366.5q0 -253 -74.5 -417.5t-220 -244t-362.5 -79.5h-154v110h191h16q74 1 135 12.5t106.5 30.5t75.5 43q37 30 69.5 85t55.5 159.5t23 263.5q0 224 -42 364t-144.5 211
t-284.5 71h-201v110h241q221 0 347 -97z" />
    <glyph glyph-name="Ntilde" unicode="&#xd1;" 
d="M207 1460h150l544 -1212h12v1213h120v-1461h-151l-543 1248h-12v-1248h-120v1460zM540.5 1881.5q32.5 -12.5 55 -29.5t53.5 -46q36 -33 60.5 -48.5t55.5 -15.5q44 0 73.5 34.5t43.5 98.5l90 -26q-15 -100 -67 -153t-134 -53q-40 0 -72.5 12.5t-55.5 30t-52 45.5
q-37 33 -60.5 48.5t-54.5 15.5q-44 0 -74 -34.5t-44 -98.5l-90 26q15 100 66.5 153t133.5 53q40 0 72.5 -12.5z" />
    <glyph glyph-name="Ograve" unicode="&#xd2;" 
d="M324 87q-104 106 -145.5 274.5t-41.5 376.5q0 236 61 402.5t173 252t262 85.5q178 0 282.5 -106t146 -274.5t41.5 -376.5q0 -236 -61.5 -402.5t-173.5 -252t-262 -85.5q-178 0 -282 106zM743.5 98.5q50.5 21.5 86.5 56.5q28 28 57 87t51 169.5t22 272.5q0 223 -31 373.5
t-108.5 233t-212.5 82.5q-63 0 -113.5 -21t-86.5 -56q-48 -48 -89 -173t-41 -356q0 -223 31 -373.5t108.5 -233.5t212.5 -83q63 0 113.5 21.5zM575 1650l-253 233h140l222 -233h-109z" />
    <glyph glyph-name="Oacute" unicode="&#xd3;" 
d="M324 87q-104 106 -145.5 274.5t-41.5 376.5q0 236 61 402.5t173 252t262 85.5q178 0 282.5 -106t146 -274.5t41.5 -376.5q0 -236 -61.5 -402.5t-173.5 -252t-262 -85.5q-178 0 -282 106zM743.5 98.5q50.5 21.5 86.5 56.5q28 28 57 87t51 169.5t22 272.5q0 223 -31 373.5
t-108.5 233t-212.5 82.5q-63 0 -113.5 -21t-86.5 -56q-48 -48 -89 -173t-41 -356q0 -223 31 -373.5t108.5 -233.5t212.5 -83q63 0 113.5 21.5zM665 1650l253 233h-140l-222 -233h109z" />
    <glyph glyph-name="Ocircumflex" unicode="&#xd4;" 
d="M324 87q-104 106 -145.5 274.5t-41.5 376.5q0 236 61 402.5t173 252t262 85.5q178 0 282.5 -106t146 -274.5t41.5 -376.5q0 -236 -61.5 -402.5t-173.5 -252t-262 -85.5q-178 0 -282 106zM743.5 98.5q50.5 21.5 86.5 56.5q28 28 57 87t51 169.5t22 272.5q0 223 -31 373.5
t-108.5 233t-212.5 82.5q-63 0 -113.5 -21t-86.5 -56q-48 -48 -89 -173t-41 -356q0 -223 31 -373.5t108.5 -233.5t212.5 -83q63 0 113.5 21.5zM562 1883h116l264 -233h-131l-219 204h56l-219 -204h-131z" />
    <glyph glyph-name="Otilde" unicode="&#xd5;" 
d="M324 87q-104 106 -145.5 274.5t-41.5 376.5q0 236 61 402.5t173 252t262 85.5q178 0 282.5 -106t146 -274.5t41.5 -376.5q0 -236 -61.5 -402.5t-173.5 -252t-262 -85.5q-178 0 -282 106zM743.5 98.5q50.5 21.5 86.5 56.5q28 28 57 87t51 169.5t22 272.5q0 223 -31 373.5
t-108.5 233t-212.5 82.5q-63 0 -113.5 -21t-86.5 -56q-48 -48 -89 -173t-41 -356q0 -223 31 -373.5t108.5 -233.5t212.5 -83q63 0 113.5 21.5zM540.5 1881.5q32.5 -12.5 55 -29.5t53.5 -46q36 -33 60.5 -48.5t55.5 -15.5q44 0 73.5 34.5t43.5 98.5l90 -26q-15 -100 -67 -153
t-134 -53q-40 0 -72.5 12.5t-55.5 30t-52 45.5q-37 33 -60.5 48.5t-54.5 15.5q-44 0 -74 -34.5t-44 -98.5l-90 26q15 100 66.5 153t133.5 53q40 0 72.5 -12.5z" />
    <glyph glyph-name="Odieresis" unicode="&#xd6;" 
d="M324 87q-104 106 -145.5 274.5t-41.5 376.5q0 236 61 402.5t173 252t262 85.5q178 0 282.5 -106t146 -274.5t41.5 -376.5q0 -236 -61.5 -402.5t-173.5 -252t-262 -85.5q-178 0 -282 106zM743.5 98.5q50.5 21.5 86.5 56.5q28 28 57 87t51 169.5t22 272.5q0 223 -31 373.5
t-108.5 233t-212.5 82.5q-63 0 -113.5 -21t-86.5 -56q-48 -48 -89 -173t-41 -356q0 -223 31 -373.5t108.5 -233.5t212.5 -83q63 0 113.5 21.5zM298.5 1689q-28.5 26 -28.5 72t28.5 72t75.5 26q46 0 74.5 -26t28.5 -72t-28.5 -72t-74.5 -26q-47 0 -75.5 26zM791.5 1689
q-28.5 26 -28.5 72t28.5 72t75.5 26q46 0 74.5 -26t28.5 -72t-28.5 -72t-74.5 -26q-47 0 -75.5 26z" />
    <glyph glyph-name="multiply" unicode="&#xd7;" 
d="M275 1073l772 -772l-82 -82l-772 772zM195 299l772 772l78 -78l-772 -772z" />
    <glyph glyph-name="Oslash" unicode="&#xd8;" 
d="M958 1734l117 -47l-155 -383l-106 74zM824 1392l96 -64l-499 -1249l-92 74zM283 -273l-117 47l163 403l102 -84zM324 87q-104 106 -145.5 274.5t-41.5 376.5q0 236 61 402.5t173 252t262 85.5q178 0 282.5 -106t146 -274.5t41.5 -376.5q0 -236 -61.5 -402.5t-173.5 -252
t-262 -85.5q-178 0 -282 106zM743.5 98.5q50.5 21.5 86.5 56.5q28 28 57 87t51 169.5t22 272.5q0 223 -31 373.5t-108.5 233t-212.5 82.5q-63 0 -113.5 -21t-86.5 -56q-48 -48 -89 -173t-41 -356q0 -223 31 -373.5t108.5 -233.5t212.5 -83q63 0 113.5 21.5z" />
    <glyph glyph-name="Ugrave" unicode="&#xd9;" 
d="M355 46.5q-92 65.5 -128 170.5t-36 241v1002h126v-923q0 -152 17 -241.5t88 -148t221 -58.5q78 0 130 15t81 43q32 30 50.5 84t18.5 153v1076h126v-1019q0 -178 -55 -279t-151.5 -141t-236.5 -40q-159 0 -251 65.5zM575 1650l-253 233h140l222 -233h-109z" />
    <glyph glyph-name="Uacute" unicode="&#xda;" 
d="M355 46.5q-92 65.5 -128 170.5t-36 241v1002h126v-923q0 -152 17 -241.5t88 -148t221 -58.5q78 0 130 15t81 43q32 30 50.5 84t18.5 153v1076h126v-1019q0 -178 -55 -279t-151.5 -141t-236.5 -40q-159 0 -251 65.5zM665 1650l253 233h-140l-222 -233h109z" />
    <glyph glyph-name="Ucircumflex" unicode="&#xdb;" 
d="M355 46.5q-92 65.5 -128 170.5t-36 241v1002h126v-923q0 -152 17 -241.5t88 -148t221 -58.5q78 0 130 15t81 43q32 30 50.5 84t18.5 153v1076h126v-1019q0 -178 -55 -279t-151.5 -141t-236.5 -40q-159 0 -251 65.5zM562 1883h116l264 -233h-131l-219 204h56l-219 -204
h-131z" />
    <glyph glyph-name="Udieresis" unicode="&#xdc;" 
d="M355 46.5q-92 65.5 -128 170.5t-36 241v1002h126v-923q0 -152 17 -241.5t88 -148t221 -58.5q78 0 130 15t81 43q32 30 50.5 84t18.5 153v1076h126v-1019q0 -178 -55 -279t-151.5 -141t-236.5 -40q-159 0 -251 65.5zM298.5 1689q-28.5 26 -28.5 72t28.5 72t75.5 26
q46 0 74.5 -26t28.5 -72t-28.5 -72t-74.5 -26q-47 0 -75.5 26zM791.5 1689q-28.5 26 -28.5 72t28.5 72t75.5 26q46 0 74.5 -26t28.5 -72t-28.5 -72t-74.5 -26q-47 0 -75.5 26z" />
    <glyph glyph-name="Yacute" unicode="&#xdd;" 
d="M557 0v765h126v-765h-126zM386 1116q96 -167 229 -326h13q133 159 229 326t154 344h127q-69 -205 -186 -408.5t-280 -388.5h-106q-163 185 -280 388.5t-186 408.5h132q58 -177 154 -344zM665 1650l253 233h-140l-222 -233h109z" />
    <glyph glyph-name="Thorn" unicode="&#xde;" 
d="M217 0v1460h126v-1460h-126zM689.5 462q134.5 56 206 149.5t71.5 216.5q0 82 -32.5 148t-104 105.5t-182.5 39.5h-362v91h365q203 0 321.5 -87t118.5 -281q0 -233 -179 -375t-536 -173l-80 -7l-12 98l86 6q185 13 319.5 69z" />
    <glyph glyph-name="germandbls" unicode="&#xdf;" 
d="M527.5 1429q-59.5 -20 -92.5 -58q-25 -28 -48 -85t-38.5 -160t-15.5 -253v-873h-126v803q0 256 46.5 420.5t150.5 247.5t275 83q99 0 178 -39.5t124.5 -113t45.5 -173.5q0 -110 -56 -195.5t-141 -137.5t-172 -67v-5q126 -12 227.5 -52t167 -127t65.5 -230
q0 -130 -56.5 -223t-165.5 -142t-265 -49h-98v110h144q90 0 160.5 34t110 101.5t39.5 163.5q0 126 -69 200.5t-159 106.5t-217 57q-4 1 -9 2v78q111 34 191.5 85t125 123t44.5 165q0 74 -25.5 123.5t-76.5 74.5t-128 25t-136.5 -20z" />
    <glyph glyph-name="agrave" unicode="&#xe0;" 
d="M908 0v710q0 74 -30 119t-83 65t-124 20q-127 0 -248 -23.5t-237 -70.5l40 129q91 33 200 53.5t218 20.5q137 0 223.5 -31t126.5 -93t40 -157v-742h-126zM649.5 475q-134.5 -9 -218.5 -34q-91 -27 -124.5 -68t-33.5 -95q0 -55 29 -100.5t85.5 -72t134.5 -26.5
q79 0 189.5 27t216.5 79l9 -98h-44q-104 -60 -205.5 -85.5t-182.5 -25.5q-115 0 -194.5 39t-119.5 103t-40 141q0 139 130 211.5t299.5 94.5t347.5 22v-103q-144 0 -278.5 -9zM575 1274l-253 323h140l222 -323h-109z" />
    <glyph glyph-name="aacute" unicode="&#xe1;" 
d="M908 0v710q0 74 -30 119t-83 65t-124 20q-127 0 -248 -23.5t-237 -70.5l40 129q91 33 200 53.5t218 20.5q137 0 223.5 -31t126.5 -93t40 -157v-742h-126zM649.5 475q-134.5 -9 -218.5 -34q-91 -27 -124.5 -68t-33.5 -95q0 -55 29 -100.5t85.5 -72t134.5 -26.5
q79 0 189.5 27t216.5 79l9 -98h-44q-104 -60 -205.5 -85.5t-182.5 -25.5q-115 0 -194.5 39t-119.5 103t-40 141q0 139 130 211.5t299.5 94.5t347.5 22v-103q-144 0 -278.5 -9zM665 1274l253 323h-140l-222 -323h109z" />
    <glyph glyph-name="acircumflex" unicode="&#xe2;" 
d="M908 0v710q0 74 -30 119t-83 65t-124 20q-127 0 -248 -23.5t-237 -70.5l40 129q91 33 200 53.5t218 20.5q137 0 223.5 -31t126.5 -93t40 -157v-742h-126zM649.5 475q-134.5 -9 -218.5 -34q-91 -27 -124.5 -68t-33.5 -95q0 -55 29 -100.5t85.5 -72t134.5 -26.5
q79 0 189.5 27t216.5 79l9 -98h-44q-104 -60 -205.5 -85.5t-182.5 -25.5q-115 0 -194.5 39t-119.5 103t-40 141q0 139 130 211.5t299.5 94.5t347.5 22v-103q-144 0 -278.5 -9zM572 1597h96l274 -323h-121l-229 288h56l-229 -288h-121z" />
    <glyph glyph-name="atilde" unicode="&#xe3;" 
d="M908 0v710q0 74 -30 119t-83 65t-124 20q-127 0 -248 -23.5t-237 -70.5l40 129q91 33 200 53.5t218 20.5q137 0 223.5 -31t126.5 -93t40 -157v-742h-126zM649.5 475q-134.5 -9 -218.5 -34q-91 -27 -124.5 -68t-33.5 -95q0 -55 29 -100.5t85.5 -72t134.5 -26.5
q79 0 189.5 27t216.5 79l9 -98h-44q-104 -60 -205.5 -85.5t-182.5 -25.5q-115 0 -194.5 39t-119.5 103t-40 141q0 139 130 211.5t299.5 94.5t347.5 22v-103q-144 0 -278.5 -9zM539 1548.5q34 -17.5 58.5 -42t57.5 -63.5q38 -45 62 -65.5t53 -20.5q43 0 70 50t42 136l90 -32
q-10 -82 -36.5 -139t-67.5 -86.5t-93 -29.5q-41 0 -74.5 17.5t-58 41.5t-57.5 64q-37 45 -61 65.5t-53 20.5q-44 0 -71 -50t-42 -136l-90 32q10 82 36 139t67 86.5t93 29.5q41 0 75 -17.5z" />
    <glyph glyph-name="adieresis" unicode="&#xe4;" 
d="M908 0v710q0 74 -30 119t-83 65t-124 20q-127 0 -248 -23.5t-237 -70.5l40 129q91 33 200 53.5t218 20.5q137 0 223.5 -31t126.5 -93t40 -157v-742h-126zM649.5 475q-134.5 -9 -218.5 -34q-91 -27 -124.5 -68t-33.5 -95q0 -55 29 -100.5t85.5 -72t134.5 -26.5
q79 0 189.5 27t216.5 79l9 -98h-44q-104 -60 -205.5 -85.5t-182.5 -25.5q-115 0 -194.5 39t-119.5 103t-40 141q0 139 130 211.5t299.5 94.5t347.5 22v-103q-144 0 -278.5 -9zM298.5 1339q-28.5 26 -28.5 72t28.5 72t75.5 26q46 0 74.5 -26t28.5 -72t-28.5 -72t-74.5 -26
q-47 0 -75.5 26zM791.5 1339q-28.5 26 -28.5 72t28.5 72t75.5 26q46 0 74.5 -26t28.5 -72t-28.5 -72t-74.5 -26q-47 0 -75.5 26z" />
    <glyph glyph-name="aring" unicode="&#xe5;" 
d="M908 0v710q0 74 -30 119t-83 65t-124 20q-127 0 -248 -23.5t-237 -70.5l40 129q91 33 200 53.5t218 20.5q137 0 223.5 -31t126.5 -93t40 -157v-742h-126zM649.5 475q-134.5 -9 -218.5 -34q-91 -27 -124.5 -68t-33.5 -95q0 -55 29 -100.5t85.5 -72t134.5 -26.5
q79 0 189.5 27t216.5 79l9 -98h-44q-104 -60 -205.5 -85.5t-182.5 -25.5q-115 0 -194.5 39t-119.5 103t-40 141q0 139 130 211.5t299.5 94.5t347.5 22v-103q-144 0 -278.5 -9zM507.5 1244q-49.5 29 -77.5 80t-28 115t28 114.5t77.5 79.5t112.5 29t112.5 -29t77.5 -79.5
t28 -114.5t-28 -115t-77.5 -80t-112.5 -29t-112.5 29zM719.5 1337q37.5 40 37.5 102t-37.5 101.5t-99.5 39.5t-100 -39.5t-38 -101.5t38 -102t100 -40t99.5 40z" />
    <glyph glyph-name="ae" unicode="&#xe6;" 
d="M577 552v158q0 72 -25.5 118t-66 66t-87.5 20q-54 0 -133.5 -24.5t-162.5 -69.5l35 129q63 33 132.5 53.5t133.5 20.5q77 0 140.5 -32t101.5 -95.5t38 -153.5v-190h-106zM727 39q-71 63 -108 182.5t-37 285.5l22 32v94q0 132 44 220t113.5 129.5t145.5 41.5
q91 0 149 -47.5t85 -132.5t27 -201v-107h-544v87h455l-33 -58q7 47 7 99q0 125 -45 193.5t-121 68.5q-31 0 -60.5 -11.5t-50.5 -35.5q-34 -40 -56.5 -129.5t-22.5 -240.5q0 -116 25.5 -210.5t77 -150.5t126.5 -56q46 0 97.5 15t104.5 41l1 1l-11 -110q-48 -26 -105.5 -44.5
t-114.5 -18.5q-100 0 -171 63zM195.5 15q-61.5 39 -93 103.5t-31.5 140.5q0 138 99.5 211t224 95t241.5 22v-103h-20q-73 -1 -157 -11.5t-149 -33.5q-71 -25 -97 -66t-26 -95q0 -55 22.5 -100.5t64.5 -72t100 -26.5q67 0 151 38.5t158 108.5v-115h-45q-71 -75 -148 -105
t-147 -30q-86 0 -147.5 39z" />
    <glyph glyph-name="ccedilla" unicode="&#xe7;" 
d="M923.5 1013.5q71.5 -10.5 141.5 -28.5l14 -129q-84 25 -178 39.5t-188 14.5t-158.5 -15t-108.5 -46q-56 -39 -99.5 -118.5t-43.5 -203.5q0 -136 60 -234.5t168.5 -150.5t253.5 -52q74 0 144.5 12.5t148.5 34.5l-24 -110q-61 -22 -134.5 -36.5t-163.5 -14.5
q-179 0 -307.5 65t-196 183.5t-67.5 277.5q0 171 77 288t211 175.5t306 58.5q73 0 144.5 -10.5zM748.5 -211.5q44.5 -22.5 68 -63.5t23.5 -105q0 -63 -24.5 -103t-82 -61t-155.5 -21h-64v94h39q100 0 139 25t39 75q0 54 -39 81t-118 35v303h90l4 -276l-31 49
q67 -10 111.5 -32.5z" />
    <glyph glyph-name="egrave" unicode="&#xe8;" 
d="M332.5 740.5q-46.5 -86.5 -46.5 -231.5q0 -119 39.5 -212t134.5 -149t254 -56q86 0 163 16t146 41l-12 -110q-67 -26 -149.5 -44.5t-180.5 -18.5q-166 0 -280.5 61.5t-173 174t-58.5 265.5q0 172 70.5 295.5t190 187.5t266.5 64q136 0 219.5 -52.5t119 -138t35.5 -190.5
v-107h-797v87h705l-40 -58q4 23 6.5 47t2.5 52q0 86 -30.5 144t-94 88t-162.5 30q-72 0 -128 -15.5t-92 -40.5q-61 -43 -107.5 -129.5zM575 1274l-253 323h140l222 -323h-109z" />
    <glyph glyph-name="eacute" unicode="&#xe9;" 
d="M332.5 740.5q-46.5 -86.5 -46.5 -231.5q0 -119 39.5 -212t134.5 -149t254 -56q86 0 163 16t146 41l-12 -110q-67 -26 -149.5 -44.5t-180.5 -18.5q-166 0 -280.5 61.5t-173 174t-58.5 265.5q0 172 70.5 295.5t190 187.5t266.5 64q136 0 219.5 -52.5t119 -138t35.5 -190.5
v-107h-797v87h705l-40 -58q4 23 6.5 47t2.5 52q0 86 -30.5 144t-94 88t-162.5 30q-72 0 -128 -15.5t-92 -40.5q-61 -43 -107.5 -129.5zM665 1274l253 323h-140l-222 -323h109z" />
    <glyph glyph-name="ecircumflex" unicode="&#xea;" 
d="M332.5 740.5q-46.5 -86.5 -46.5 -231.5q0 -119 39.5 -212t134.5 -149t254 -56q86 0 163 16t146 41l-12 -110q-67 -26 -149.5 -44.5t-180.5 -18.5q-166 0 -280.5 61.5t-173 174t-58.5 265.5q0 172 70.5 295.5t190 187.5t266.5 64q136 0 219.5 -52.5t119 -138t35.5 -190.5
v-107h-797v87h705l-40 -58q4 23 6.5 47t2.5 52q0 86 -30.5 144t-94 88t-162.5 30q-72 0 -128 -15.5t-92 -40.5q-61 -43 -107.5 -129.5zM572 1597h96l274 -323h-121l-229 288h56l-229 -288h-121z" />
    <glyph glyph-name="edieresis" unicode="&#xeb;" 
d="M332.5 740.5q-46.5 -86.5 -46.5 -231.5q0 -119 39.5 -212t134.5 -149t254 -56q86 0 163 16t146 41l-12 -110q-67 -26 -149.5 -44.5t-180.5 -18.5q-166 0 -280.5 61.5t-173 174t-58.5 265.5q0 172 70.5 295.5t190 187.5t266.5 64q136 0 219.5 -52.5t119 -138t35.5 -190.5
v-107h-797v87h705l-40 -58q4 23 6.5 47t2.5 52q0 86 -30.5 144t-94 88t-162.5 30q-72 0 -128 -15.5t-92 -40.5q-61 -43 -107.5 -129.5zM298.5 1339q-28.5 26 -28.5 72t28.5 72t75.5 26q46 0 74.5 -26t28.5 -72t-28.5 -72t-74.5 -26q-47 0 -75.5 26zM791.5 1339
q-28.5 26 -28.5 72t28.5 72t75.5 26q46 0 74.5 -26t28.5 -72t-28.5 -72t-74.5 -26q-47 0 -75.5 26z" />
    <glyph glyph-name="igrave" unicode="&#xec;" 
d="M671 1000v-1000h-124v946l45 -45h-431l20 99h490zM141 99h956l-20 -99h-916zM533 1274l-253 323h140l222 -323h-109z" />
    <glyph glyph-name="iacute" unicode="&#xed;" 
d="M671 1000v-1000h-124v946l45 -45h-431l20 99h490zM141 99h956l-20 -99h-916zM623 1274l253 323h-140l-222 -323h109z" />
    <glyph glyph-name="icircumflex" unicode="&#xee;" 
d="M671 1000v-1000h-124v946l45 -45h-431l20 99h490zM141 99h956l-20 -99h-916zM530 1597h96l274 -323h-121l-229 288h56l-229 -288h-121z" />
    <glyph glyph-name="idieresis" unicode="&#xef;" 
d="M671 1000v-1000h-124v946l45 -45h-431l20 99h490zM141 99h956l-20 -99h-916zM256.5 1339q-28.5 26 -28.5 72t28.5 72t75.5 26q46 0 74.5 -26t28.5 -72t-28.5 -72t-74.5 -26q-47 0 -75.5 26zM749.5 1339q-28.5 26 -28.5 72t28.5 72t75.5 26q46 0 74.5 -26t28.5 -72
t-28.5 -72t-74.5 -26q-47 0 -75.5 26z" />
    <glyph glyph-name="eth" unicode="&#xf0;" 
d="M969 1448l-658 -293l-40 90l658 293zM363 39.5q-107 63.5 -165 181.5t-58 279q0 174 68 292t179.5 175t243.5 57q60 0 117 -12t108 -36l20 -10l124 -200q-82 72 -181 110.5t-219 38.5q-67 0 -117 -12t-87 -38q-33 -23 -58.5 -58t-43.5 -106t-18 -186t25.5 -207.5
t105.5 -156t231 -63.5q66 0 117 12.5t87 37.5q32 22 57.5 57t44.5 107t19 187q1 125 -19 219t-69.5 190t-143.5 228q-41 58 -91.5 115t-142.5 156q-30 32 -44 48t-43 47l109 60q21 -23 44 -47t47 -49q93 -98 151 -162.5t103 -125.5q93 -125 144 -229t71.5 -207.5
t20.5 -233.5q0 -173 -66.5 -290.5t-177 -174.5t-244.5 -57q-142 0 -249 63.5z" />
    <glyph glyph-name="ntilde" unicode="&#xf1;" 
d="M344 0h-124v1001h117v-125l7 -14v-862zM893 0v713q0 74 -24.5 119t-68 65t-103.5 20q-83 0 -183 -34.5t-211 -97.5v100h40q100 65 201 101.5t200 36.5q132 0 201.5 -66t70.5 -185l4 -772h-127zM539 1548.5q34 -17.5 58.5 -42t57.5 -63.5q38 -45 62 -65.5t53 -20.5
q43 0 70 50t42 136l90 -32q-10 -82 -36.5 -139t-67.5 -86.5t-93 -29.5q-41 0 -74.5 17.5t-58 41.5t-57.5 64q-37 45 -61 65.5t-53 20.5q-44 0 -71 -50t-42 -136l-90 32q10 82 36 139t67 86.5t93 29.5q41 0 75 -17.5z" />
    <glyph glyph-name="ograve" unicode="&#xf2;" 
d="M363 39.5q-107 63.5 -165 181.5t-58 279q0 174 68 292t179.5 175t243.5 57q140 0 246 -63.5t164.5 -182t58.5 -280.5q0 -173 -66.5 -290.5t-177 -174.5t-244.5 -57q-142 0 -249 63.5zM755 100.5q51 12.5 87 37.5q51 35 86 111t35 240q0 114 -25.5 206.5t-106 156
t-231.5 63.5q-67 0 -117 -12t-87 -38q-33 -23 -58.5 -58t-43.5 -106t-18 -186t25.5 -207.5t105.5 -156t231 -63.5q66 0 117 12.5zM575 1274l-253 323h140l222 -323h-109z" />
    <glyph glyph-name="oacute" unicode="&#xf3;" 
d="M363 39.5q-107 63.5 -165 181.5t-58 279q0 174 68 292t179.5 175t243.5 57q140 0 246 -63.5t164.5 -182t58.5 -280.5q0 -173 -66.5 -290.5t-177 -174.5t-244.5 -57q-142 0 -249 63.5zM755 100.5q51 12.5 87 37.5q51 35 86 111t35 240q0 114 -25.5 206.5t-106 156
t-231.5 63.5q-67 0 -117 -12t-87 -38q-33 -23 -58.5 -58t-43.5 -106t-18 -186t25.5 -207.5t105.5 -156t231 -63.5q66 0 117 12.5zM665 1274l253 323h-140l-222 -323h109z" />
    <glyph glyph-name="ocircumflex" unicode="&#xf4;" 
d="M363 39.5q-107 63.5 -165 181.5t-58 279q0 174 68 292t179.5 175t243.5 57q140 0 246 -63.5t164.5 -182t58.5 -280.5q0 -173 -66.5 -290.5t-177 -174.5t-244.5 -57q-142 0 -249 63.5zM755 100.5q51 12.5 87 37.5q51 35 86 111t35 240q0 114 -25.5 206.5t-106 156
t-231.5 63.5q-67 0 -117 -12t-87 -38q-33 -23 -58.5 -58t-43.5 -106t-18 -186t25.5 -207.5t105.5 -156t231 -63.5q66 0 117 12.5zM572 1597h96l274 -323h-121l-229 288h56l-229 -288h-121z" />
    <glyph glyph-name="otilde" unicode="&#xf5;" 
d="M363 39.5q-107 63.5 -165 181.5t-58 279q0 174 68 292t179.5 175t243.5 57q140 0 246 -63.5t164.5 -182t58.5 -280.5q0 -173 -66.5 -290.5t-177 -174.5t-244.5 -57q-142 0 -249 63.5zM755 100.5q51 12.5 87 37.5q51 35 86 111t35 240q0 114 -25.5 206.5t-106 156
t-231.5 63.5q-67 0 -117 -12t-87 -38q-33 -23 -58.5 -58t-43.5 -106t-18 -186t25.5 -207.5t105.5 -156t231 -63.5q66 0 117 12.5zM539 1548.5q34 -17.5 58.5 -42t57.5 -63.5q38 -45 62 -65.5t53 -20.5q43 0 70 50t42 136l90 -32q-10 -82 -36.5 -139t-67.5 -86.5t-93 -29.5
q-41 0 -74.5 17.5t-58 41.5t-57.5 64q-37 45 -61 65.5t-53 20.5q-44 0 -71 -50t-42 -136l-90 32q10 82 36 139t67 86.5t93 29.5q41 0 75 -17.5z" />
    <glyph glyph-name="odieresis" unicode="&#xf6;" 
d="M363 39.5q-107 63.5 -165 181.5t-58 279q0 174 68 292t179.5 175t243.5 57q140 0 246 -63.5t164.5 -182t58.5 -280.5q0 -173 -66.5 -290.5t-177 -174.5t-244.5 -57q-142 0 -249 63.5zM755 100.5q51 12.5 87 37.5q51 35 86 111t35 240q0 114 -25.5 206.5t-106 156
t-231.5 63.5q-67 0 -117 -12t-87 -38q-33 -23 -58.5 -58t-43.5 -106t-18 -186t25.5 -207.5t105.5 -156t231 -63.5q66 0 117 12.5zM298.5 1339q-28.5 26 -28.5 72t28.5 72t75.5 26q46 0 74.5 -26t28.5 -72t-28.5 -72t-74.5 -26q-47 0 -75.5 26zM791.5 1339q-28.5 26 -28.5 72
t28.5 72t75.5 26q46 0 74.5 -26t28.5 -72t-28.5 -72t-74.5 -26q-47 0 -75.5 26z" />
    <glyph glyph-name="divide" unicode="&#xf7;" 
d="M566 192.5q-24 12.5 -38 36t-14 55.5q0 48 30 76t76 28q30 0 54.5 -12.5t38.5 -36t14 -55.5t-14 -55.5t-38.5 -36t-54.5 -12.5t-54 12.5zM566 916.5q-24 12.5 -38 36t-14 55.5q0 48 30 76t76 28q30 0 54.5 -12.5t38.5 -36t14 -55.5t-14 -55.5t-38.5 -36t-54.5 -12.5
t-54 12.5zM170 701h900v-110h-900v110z" />
    <glyph glyph-name="oslash" unicode="&#xf8;" 
d="M992 1213l105 -66l-185 -297l-95 82zM828 942l95 -62l-504 -812l-104 50zM248 -213l-105 66l184 295l102 -71zM363 39.5q-107 63.5 -165 181.5t-58 279q0 174 68 292t179.5 175t243.5 57q140 0 246 -63.5t164.5 -182t58.5 -280.5q0 -173 -66.5 -290.5t-177 -174.5
t-244.5 -57q-142 0 -249 63.5zM755 100.5q51 12.5 87 37.5q51 35 86 111t35 240q0 114 -25.5 206.5t-106 156t-231.5 63.5q-67 0 -117 -12t-87 -38q-33 -23 -58.5 -58t-43.5 -106t-18 -186t25.5 -207.5t105.5 -156t231 -63.5q66 0 117 12.5z" />
    <glyph glyph-name="ugrave" unicode="&#xf9;" 
d="M896 1000h124v-1001h-117v125l-7 14v862zM347 1000v-713q0 -74 24.5 -119t68 -65t103.5 -20q83 0 183 34.5t211 97.5v-100h-40q-100 -65 -201 -101.5t-200 -36.5q-132 0 -201.5 66t-70.5 185l-4 772h127zM575 1274l-253 323h140l222 -323h-109z" />
    <glyph glyph-name="uacute" unicode="&#xfa;" 
d="M896 1000h124v-1001h-117v125l-7 14v862zM347 1000v-713q0 -74 24.5 -119t68 -65t103.5 -20q83 0 183 34.5t211 97.5v-100h-40q-100 -65 -201 -101.5t-200 -36.5q-132 0 -201.5 66t-70.5 185l-4 772h127zM665 1274l253 323h-140l-222 -323h109z" />
    <glyph glyph-name="ucircumflex" unicode="&#xfb;" 
d="M896 1000h124v-1001h-117v125l-7 14v862zM347 1000v-713q0 -74 24.5 -119t68 -65t103.5 -20q83 0 183 34.5t211 97.5v-100h-40q-100 -65 -201 -101.5t-200 -36.5q-132 0 -201.5 66t-70.5 185l-4 772h127zM572 1597h96l274 -323h-121l-229 288h56l-229 -288h-121z" />
    <glyph glyph-name="udieresis" unicode="&#xfc;" 
d="M896 1000h124v-1001h-117v125l-7 14v862zM347 1000v-713q0 -74 24.5 -119t68 -65t103.5 -20q83 0 183 34.5t211 97.5v-100h-40q-100 -65 -201 -101.5t-200 -36.5q-132 0 -201.5 66t-70.5 185l-4 772h127zM298.5 1339q-28.5 26 -28.5 72t28.5 72t75.5 26q46 0 74.5 -26
t28.5 -72t-28.5 -72t-74.5 -26q-47 0 -75.5 26zM791.5 1339q-28.5 26 -28.5 72t28.5 72t75.5 26q46 0 74.5 -26t28.5 -72t-28.5 -72t-74.5 -26q-47 0 -75.5 26z" />
    <glyph glyph-name="yacute" unicode="&#xfd;" 
d="M405 531q98 -223 226 -443h16q124 227 211 446.5t150 465.5h128q-57 -217 -157 -459t-207 -448l-58 -111q-61 -116 -131 -204t-168.5 -144.5t-225.5 -56.5q-56 0 -124 10l-28 116q83 -16 157 -16q91 0 158.5 30.5t110.5 76t74 100.5l53 94l20 -34l-17 -44
q-103 171 -189.5 343t-160.5 359t-132 388h130q66 -246 164 -469zM665 1274l253 323h-140l-222 -323h109z" />
    <glyph glyph-name="thorn" unicode="&#xfe;" 
d="M344 -400h-124v1930h124v-1930zM1046.5 240q-65.5 -127 -181.5 -195t-266 -68q-102 0 -195.5 30t-170.5 87l24 87q85 -53 178 -80.5t186 -27.5q64 0 113 15.5t99 51.5q63 46 102.5 127.5t39.5 235.5q0 186 -74 301.5t-252 115.5q-92 0 -185.5 -34t-185.5 -91l6 96h29
q81 60 171.5 96t199.5 36q144 0 240 -63t142 -171.5t46 -248.5q0 -173 -65.5 -300z" />
    <glyph glyph-name="ydieresis" unicode="&#xff;" 
d="M405 531q98 -223 226 -443h16q124 227 211 446.5t150 465.5h128q-57 -217 -157 -459t-207 -448l-58 -111q-61 -116 -131 -204t-168.5 -144.5t-225.5 -56.5q-56 0 -124 10l-28 116q83 -16 157 -16q91 0 158.5 30.5t110.5 76t74 100.5l53 94l20 -34l-17 -44
q-103 171 -189.5 343t-160.5 359t-132 388h130q66 -246 164 -469zM298.5 1339q-28.5 26 -28.5 72t28.5 72t75.5 26q46 0 74.5 -26t28.5 -72t-28.5 -72t-74.5 -26q-47 0 -75.5 26zM791.5 1339q-28.5 26 -28.5 72t28.5 72t75.5 26q46 0 74.5 -26t28.5 -72t-28.5 -72t-74.5 -26
q-47 0 -75.5 26z" />
    <glyph glyph-name="Amacron" unicode="&#x100;" 
d="M1042 0l-417 1309h-11l-418 -1309h-124l479 1460h138l479 -1460h-126zM286 552h663v-103h-663v103zM927 1731h-614v100h614v-100z" />
    <glyph glyph-name="amacron" unicode="&#x101;" 
d="M908 0v710q0 74 -30 119t-83 65t-124 20q-127 0 -248 -23.5t-237 -70.5l40 129q91 33 200 53.5t218 20.5q137 0 223.5 -31t126.5 -93t40 -157v-742h-126zM649.5 475q-134.5 -9 -218.5 -34q-91 -27 -124.5 -68t-33.5 -95q0 -55 29 -100.5t85.5 -72t134.5 -26.5
q79 0 189.5 27t216.5 79l9 -98h-44q-104 -60 -205.5 -85.5t-182.5 -25.5q-115 0 -194.5 39t-119.5 103t-40 141q0 139 130 211.5t299.5 94.5t347.5 22v-103q-144 0 -278.5 -9zM927 1339h-614v100h614v-100z" />
    <glyph glyph-name="Abreve" unicode="&#x102;" 
d="M1042 0l-417 1309h-11l-418 -1309h-124l479 1460h138l479 -1460h-126zM286 552h663v-103h-663v103zM486.5 1767q43.5 -45 133.5 -45t133.5 45t43.5 116h90q5 -71 -24 -125t-91 -84.5t-152 -30.5t-152 30.5t-91 84.5t-24 125h90q0 -71 43.5 -116z" />
    <glyph glyph-name="abreve" unicode="&#x103;" 
d="M908 0v710q0 74 -30 119t-83 65t-124 20q-127 0 -248 -23.5t-237 -70.5l40 129q91 33 200 53.5t218 20.5q137 0 223.5 -31t126.5 -93t40 -157v-742h-126zM649.5 475q-134.5 -9 -218.5 -34q-91 -27 -124.5 -68t-33.5 -95q0 -55 29 -100.5t85.5 -72t134.5 -26.5
q79 0 189.5 27t216.5 79l9 -98h-44q-104 -60 -205.5 -85.5t-182.5 -25.5q-115 0 -194.5 39t-119.5 103t-40 141q0 139 130 211.5t299.5 94.5t347.5 22v-103q-144 0 -278.5 -9zM485 1424.5q42 -59.5 135 -59.5t135 59.5t42 172.5h90q7 -159 -61 -244.5t-206 -85.5t-206 85.5
t-61 244.5h90q0 -113 42 -172.5z" />
    <glyph glyph-name="Aogonek" unicode="&#x104;" 
d="M1042 0l-417 1309h-11l-418 -1309h-124l479 1460h138l479 -1460h-126zM286 552h663v-103h-663v103zM1062.5 -122q-32.5 -54 -32.5 -96q0 -37 25.5 -56t83.5 -19h29v-107h-54q-104 0 -147 43t-43 109q0 70 44.5 135.5t141.5 149.5l58 -37q-73 -68 -105.5 -122z" />
    <glyph glyph-name="aogonek" unicode="&#x105;" 
d="M908 0v710q0 74 -30 119t-83 65t-124 20q-127 0 -248 -23.5t-237 -70.5l40 129q91 33 200 53.5t218 20.5q137 0 223.5 -31t126.5 -93t40 -157v-742h-126zM649.5 475q-134.5 -9 -218.5 -34q-91 -27 -124.5 -68t-33.5 -95q0 -55 29 -100.5t85.5 -72t134.5 -26.5
q79 0 189.5 27t216.5 79l9 -98h-44q-104 -60 -205.5 -85.5t-182.5 -25.5q-115 0 -194.5 39t-119.5 103t-40 141q0 139 130 211.5t299.5 94.5t347.5 22v-103q-144 0 -278.5 -9zM928.5 -122q-32.5 -54 -32.5 -96q0 -37 25.5 -56t83.5 -19h29v-107h-54q-104 0 -147 43t-43 109
q0 70 44.5 135.5t141.5 149.5l58 -37q-73 -68 -105.5 -122z" />
    <glyph glyph-name="Cacute" unicode="&#x106;" 
d="M1111 1439l9 -130q-69 22 -159.5 38.5t-206.5 16.5q-102 0 -166.5 -18t-110.5 -50l-5 -4q-41 -29 -83 -86.5t-75 -173t-33 -291.5q0 -240 80.5 -385t202.5 -205t257 -60q82 0 159.5 15.5t141.5 42.5l-15 -122l-6 -3q-51 -19 -133 -34.5t-174 -15.5q-176 0 -320 76
t-231.5 242.5t-87.5 424.5q0 229 64.5 399.5t209 268.5t377.5 98q144 0 305 -44zM785 1650l253 233h-140l-222 -233h109z" />
    <glyph glyph-name="cacute" unicode="&#x107;" 
d="M923.5 1013.5q71.5 -10.5 141.5 -28.5l14 -129q-84 25 -178 39.5t-188 14.5t-158.5 -15t-108.5 -46q-56 -39 -99.5 -118.5t-43.5 -203.5q0 -136 60 -234.5t168.5 -150.5t253.5 -52q74 0 144.5 12.5t148.5 34.5l-24 -110q-61 -22 -134.5 -36.5t-163.5 -14.5
q-179 0 -307.5 65t-196 183.5t-67.5 277.5q0 171 77 288t211 175.5t306 58.5q73 0 144.5 -10.5zM735 1274l253 323h-140l-222 -323h109z" />
    <glyph glyph-name="Ccircumflex" unicode="&#x108;" 
d="M1111 1439l9 -130q-69 22 -159.5 38.5t-206.5 16.5q-102 0 -166.5 -18t-110.5 -50l-5 -4q-41 -29 -83 -86.5t-75 -173t-33 -291.5q0 -240 80.5 -385t202.5 -205t257 -60q82 0 159.5 15.5t141.5 42.5l-15 -122l-6 -3q-51 -19 -133 -34.5t-174 -15.5q-176 0 -320 76
t-231.5 242.5t-87.5 424.5q0 229 64.5 399.5t209 268.5t377.5 98q144 0 305 -44zM682 1883h116l264 -233h-131l-219 204h56l-219 -204h-131z" />
    <glyph glyph-name="ccircumflex" unicode="&#x109;" 
d="M923.5 1013.5q71.5 -10.5 141.5 -28.5l14 -129q-84 25 -178 39.5t-188 14.5t-158.5 -15t-108.5 -46q-56 -39 -99.5 -118.5t-43.5 -203.5q0 -136 60 -234.5t168.5 -150.5t253.5 -52q74 0 144.5 12.5t148.5 34.5l-24 -110q-61 -22 -134.5 -36.5t-163.5 -14.5
q-179 0 -307.5 65t-196 183.5t-67.5 277.5q0 171 77 288t211 175.5t306 58.5q73 0 144.5 -10.5zM642 1597h96l274 -323h-121l-229 288h56l-229 -288h-121z" />
    <glyph glyph-name="Cdotaccent" unicode="&#x10a;" 
d="M1111 1439l9 -130q-69 22 -159.5 38.5t-206.5 16.5q-102 0 -166.5 -18t-110.5 -50l-5 -4q-41 -29 -83 -86.5t-75 -173t-33 -291.5q0 -240 80.5 -385t202.5 -205t257 -60q82 0 159.5 15.5t141.5 42.5l-15 -122l-6 -3q-51 -19 -133 -34.5t-174 -15.5q-176 0 -320 76
t-231.5 242.5t-87.5 424.5q0 229 64.5 399.5t209 268.5t377.5 98q144 0 305 -44zM663.5 1689q-29.5 26 -29.5 72t29.5 72t76.5 26t76.5 -26t29.5 -72t-29.5 -72t-76.5 -26t-76.5 26z" />
    <glyph glyph-name="cdotaccent" unicode="&#x10b;" 
d="M923.5 1013.5q71.5 -10.5 141.5 -28.5l14 -129q-84 25 -178 39.5t-188 14.5t-158.5 -15t-108.5 -46q-56 -39 -99.5 -118.5t-43.5 -203.5q0 -136 60 -234.5t168.5 -150.5t253.5 -52q74 0 144.5 12.5t148.5 34.5l-24 -110q-61 -22 -134.5 -36.5t-163.5 -14.5
q-179 0 -307.5 65t-196 183.5t-67.5 277.5q0 171 77 288t211 175.5t306 58.5q73 0 144.5 -10.5zM635 1324.5q-24 11.5 -37.5 34t-13.5 52.5q0 46 29.5 72t76.5 26t76.5 -26t29.5 -72t-29.5 -72t-76.5 -26q-31 0 -55 11.5z" />
    <glyph glyph-name="Ccaron" unicode="&#x10c;" 
d="M1111 1439l9 -130q-69 22 -159.5 38.5t-206.5 16.5q-102 0 -166.5 -18t-110.5 -50l-5 -4q-41 -29 -83 -86.5t-75 -173t-33 -291.5q0 -240 80.5 -385t202.5 -205t257 -60q82 0 159.5 15.5t141.5 42.5l-15 -122l-6 -3q-51 -19 -133 -34.5t-174 -15.5q-176 0 -320 76
t-231.5 242.5t-87.5 424.5q0 229 64.5 399.5t209 268.5t377.5 98q144 0 305 -44zM682 1650h116l264 233h-131l-191 -178l-191 178h-131z" />
    <glyph glyph-name="ccaron" unicode="&#x10d;" 
d="M923.5 1013.5q71.5 -10.5 141.5 -28.5l14 -129q-84 25 -178 39.5t-188 14.5t-158.5 -15t-108.5 -46q-56 -39 -99.5 -118.5t-43.5 -203.5q0 -136 60 -234.5t168.5 -150.5t253.5 -52q74 0 144.5 12.5t148.5 34.5l-24 -110q-61 -22 -134.5 -36.5t-163.5 -14.5
q-179 0 -307.5 65t-196 183.5t-67.5 277.5q0 171 77 288t211 175.5t306 58.5q73 0 144.5 -10.5zM642 1274h96l274 323h-121l-201 -253l-201 253h-121z" />
    <glyph glyph-name="Dcaron" unicode="&#x10e;" 
d="M207 0v1460h126v-1460h-126zM880 1363q126 -97 174.5 -255.5t48.5 -366.5q0 -253 -74.5 -417.5t-220 -244t-362.5 -79.5h-154v110h191h16q74 1 135 12.5t106.5 30.5t75.5 43q37 30 69.5 85t55.5 159.5t23 263.5q0 224 -42 364t-144.5 211t-284.5 71h-201v110h241
q221 0 347 -97zM562 1650h116l264 233h-131l-191 -178l-191 178h-131z" />
    <glyph glyph-name="dcaron" unicode="&#x10f;" 
d="M198 756.5q59 127.5 167 197t250 69.5q86 0 167 -29.5t159 -87.5l-24 -87q-86 55 -160 81.5t-142 26.5q-70 0 -122 -17.5t-92 -49.5q-37 -30 -64 -71.5t-44 -112.5t-17 -179q0 -190 63 -303.5t226 -113.5q76 0 155 32.5t176 92.5l-6 -96h-29q-85 -63 -161.5 -97.5
t-169.5 -34.5q-134 0 -221.5 63t-128.5 171.5t-41 248.5q0 169 59 296.5zM866 1530h124v-1530h-110v136l-14 14v1380zM1231 1618h121l-41 -336h-97z" />
    <glyph glyph-name="Dcroat" unicode="&#x110;" 
d="M672 705h-632v110h632v-110zM207 0v1460h126v-1460h-126zM880 1363q126 -97 174.5 -255.5t48.5 -366.5q0 -253 -74.5 -417.5t-220 -244t-362.5 -79.5h-154v110h191h16q74 1 135 12.5t106.5 30.5t75.5 43q37 30 69.5 85t55.5 159.5t23 263.5q0 224 -42 364t-144.5 211
t-284.5 71h-201v110h241q221 0 347 -97z" />
    <glyph glyph-name="dcroat" unicode="&#x111;" 
d="M972 1360h200v-99h-720v99h491h29zM924 1530h124v-1530h-110v136l-14 14v1380zM185.5 760q65.5 127 181.5 195t266 68q102 0 195.5 -30t170.5 -87l-24 -87q-85 53 -178 80.5t-186 27.5q-64 0 -113 -15.5t-99 -51.5q-63 -46 -102.5 -127.5t-39.5 -235.5q0 -186 74 -301.5
t252 -115.5q92 0 185.5 34t185.5 91l-6 -96h-29q-81 -60 -171.5 -96t-199.5 -36q-144 0 -240 63t-142 171.5t-46 248.5q0 173 65.5 300z" />
    <glyph glyph-name="Emacron" unicode="&#x112;" 
d="M217 0v1460h126v-1460h-126zM1068 0h-766v110h786zM955 694h-653v105h653v-105zM302 1350v110h766l20 -110h-786zM927 1731h-614v100h614v-100z" />
    <glyph glyph-name="emacron" unicode="&#x113;" 
d="M332.5 740.5q-46.5 -86.5 -46.5 -231.5q0 -119 39.5 -212t134.5 -149t254 -56q86 0 163 16t146 41l-12 -110q-67 -26 -149.5 -44.5t-180.5 -18.5q-166 0 -280.5 61.5t-173 174t-58.5 265.5q0 172 70.5 295.5t190 187.5t266.5 64q136 0 219.5 -52.5t119 -138t35.5 -190.5
v-107h-797v87h705l-40 -58q4 23 6.5 47t2.5 52q0 86 -30.5 144t-94 88t-162.5 30q-72 0 -128 -15.5t-92 -40.5q-61 -43 -107.5 -129.5zM927 1339h-614v100h614v-100z" />
    <glyph glyph-name="Ebreve" unicode="&#x114;" 
d="M217 0v1460h126v-1460h-126zM1068 0h-766v110h786zM955 694h-653v105h653v-105zM302 1350v110h766l20 -110h-786zM486.5 1767q43.5 -45 133.5 -45t133.5 45t43.5 116h90q5 -71 -24 -125t-91 -84.5t-152 -30.5t-152 30.5t-91 84.5t-24 125h90q0 -71 43.5 -116z" />
    <glyph glyph-name="ebreve" unicode="&#x115;" 
d="M332.5 740.5q-46.5 -86.5 -46.5 -231.5q0 -119 39.5 -212t134.5 -149t254 -56q86 0 163 16t146 41l-12 -110q-67 -26 -149.5 -44.5t-180.5 -18.5q-166 0 -280.5 61.5t-173 174t-58.5 265.5q0 172 70.5 295.5t190 187.5t266.5 64q136 0 219.5 -52.5t119 -138t35.5 -190.5
v-107h-797v87h705l-40 -58q4 23 6.5 47t2.5 52q0 86 -30.5 144t-94 88t-162.5 30q-72 0 -128 -15.5t-92 -40.5q-61 -43 -107.5 -129.5zM485 1424.5q42 -59.5 135 -59.5t135 59.5t42 172.5h90q7 -159 -61 -244.5t-206 -85.5t-206 85.5t-61 244.5h90q0 -113 42 -172.5z" />
    <glyph glyph-name="Edotaccent" unicode="&#x116;" 
d="M217 0v1460h126v-1460h-126zM1068 0h-766v110h786zM955 694h-653v105h653v-105zM302 1350v110h766l20 -110h-786zM543.5 1689q-29.5 26 -29.5 72t29.5 72t76.5 26t76.5 -26t29.5 -72t-29.5 -72t-76.5 -26t-76.5 26z" />
    <glyph glyph-name="edotaccent" unicode="&#x117;" 
d="M332.5 740.5q-46.5 -86.5 -46.5 -231.5q0 -119 39.5 -212t134.5 -149t254 -56q86 0 163 16t146 41l-12 -110q-67 -26 -149.5 -44.5t-180.5 -18.5q-166 0 -280.5 61.5t-173 174t-58.5 265.5q0 172 70.5 295.5t190 187.5t266.5 64q136 0 219.5 -52.5t119 -138t35.5 -190.5
v-107h-797v87h705l-40 -58q4 23 6.5 47t2.5 52q0 86 -30.5 144t-94 88t-162.5 30q-72 0 -128 -15.5t-92 -40.5q-61 -43 -107.5 -129.5zM565 1324.5q-24 11.5 -37.5 34t-13.5 52.5q0 46 29.5 72t76.5 26t76.5 -26t29.5 -72t-29.5 -72t-76.5 -26q-31 0 -55 11.5z" />
    <glyph glyph-name="Eogonek" unicode="&#x118;" 
d="M217 0v1460h126v-1460h-126zM1068 0h-766v110h786zM955 694h-653v105h653v-105zM302 1350v110h766l20 -110h-786zM962.5 -122q-32.5 -54 -32.5 -96q0 -37 25.5 -56t83.5 -19h29v-107h-54q-104 0 -147 43t-43 109q0 70 44.5 135.5t141.5 149.5l58 -37q-73 -68 -105.5 -122
z" />
    <glyph glyph-name="eogonek" unicode="&#x119;" 
d="M332.5 740.5q-46.5 -86.5 -46.5 -231.5q0 -119 39.5 -212t134.5 -149t254 -56q86 0 163 16t146 41l-12 -110q-67 -26 -149.5 -44.5t-180.5 -18.5q-166 0 -280.5 61.5t-173 174t-58.5 265.5q0 172 70.5 295.5t190 187.5t266.5 64q136 0 219.5 -52.5t119 -138t35.5 -190.5
v-107h-797v87h705l-40 -58q4 23 6.5 47t2.5 52q0 86 -30.5 144t-94 88t-162.5 30q-72 0 -128 -15.5t-92 -40.5q-61 -43 -107.5 -129.5zM705.5 -122q-32.5 -54 -32.5 -96q0 -37 25.5 -56t83.5 -19h29v-107h-54q-104 0 -147 43t-43 109q0 70 44.5 135.5t141.5 149.5l58 -37
q-73 -68 -105.5 -122z" />
    <glyph glyph-name="Ecaron" unicode="&#x11a;" 
d="M217 0v1460h126v-1460h-126zM1068 0h-766v110h786zM955 694h-653v105h653v-105zM302 1350v110h766l20 -110h-786zM562 1650h116l264 233h-131l-191 -178l-191 178h-131z" />
    <glyph glyph-name="ecaron" unicode="&#x11b;" 
d="M332.5 740.5q-46.5 -86.5 -46.5 -231.5q0 -119 39.5 -212t134.5 -149t254 -56q86 0 163 16t146 41l-12 -110q-67 -26 -149.5 -44.5t-180.5 -18.5q-166 0 -280.5 61.5t-173 174t-58.5 265.5q0 172 70.5 295.5t190 187.5t266.5 64q136 0 219.5 -52.5t119 -138t35.5 -190.5
v-107h-797v87h705l-40 -58q4 23 6.5 47t2.5 52q0 86 -30.5 144t-94 88t-162.5 30q-72 0 -128 -15.5t-92 -40.5q-61 -43 -107.5 -129.5zM572 1274h96l274 323h-121l-201 -253l-201 253h-121z" />
    <glyph glyph-name="Gcircumflex" unicode="&#x11c;" 
d="M941 1354.5q-80 13.5 -172 13.5q-66 0 -121 -9t-99.5 -25.5t-79.5 -40.5q-80 -54 -139.5 -178.5t-59.5 -383.5q0 -228 62.5 -373.5t171 -212.5t249.5 -67q120 0 259 33l-42 -33v606l67 -51h-421l20 110h460l1 -708q-84 -26 -174 -42.5t-181 -16.5q-184 0 -318 79.5
t-207 242.5t-73 409q0 232 67.5 405.5t216 272t382.5 98.5q68 0 135.5 -9t135.5 -28l18 -125q-78 20 -158 33.5zM682 1883h116l264 -233h-131l-219 204h56l-219 -204h-131z" />
    <glyph glyph-name="gcircumflex" unicode="&#x11d;" 
d="M360.5 393.5q-90.5 42.5 -142 117.5t-51.5 167t50.5 171t147.5 127t231 48q91 0 165 -25t137 -78l8 -29q3 -3 6 -7q32 -40 49 -85.5t17 -100.5q0 -100 -54 -179.5t-148 -124t-211 -44.5q-114 0 -204.5 42.5zM970.5 1009.5q67.5 23.5 136.5 25.5l27 -122l-299 -14l18 55
q50 32 117.5 55.5zM504 418l-68 -185q-5 -14 -5 -25t7.5 -19.5t23.5 -12.5l6 -1l440 -77l8 -1q62 -12 110 -35t78 -65t30 -106q0 -96 -74.5 -168t-207.5 -111.5t-305 -39.5q-136 0 -239.5 26.5t-161 79.5t-57.5 130q0 63 43 113.5t145 116.5l114 74l50 -41q-31 -13 -63 -30
q-49 -27 -87 -60.5t-60.5 -71.5t-22.5 -78q0 -53 40.5 -90.5t120.5 -57t195 -19.5q119 0 222 21t167 66.5t64 113.5q0 53 -43 85.5t-130 46.5l-359 56q-65 10 -102 23t-53.5 31.5t-16.5 46.5q0 30 19 71t52 98q20 35 22 40l37 72zM778.5 852.5q-80.5 67.5 -241.5 67.5
q-74 0 -120 -13t-72 -34q-25 -20 -39.5 -59t-14.5 -100q0 -130 80.5 -197.5t241.5 -67.5q74 0 120 13t72 34q25 20 39.5 59t14.5 100q0 130 -80.5 197.5zM572 1597h96l274 -323h-121l-229 288h56l-229 -288h-121z" />
    <glyph glyph-name="Gbreve" unicode="&#x11e;" 
d="M941 1354.5q-80 13.5 -172 13.5q-66 0 -121 -9t-99.5 -25.5t-79.5 -40.5q-80 -54 -139.5 -178.5t-59.5 -383.5q0 -228 62.5 -373.5t171 -212.5t249.5 -67q120 0 259 33l-42 -33v606l67 -51h-421l20 110h460l1 -708q-84 -26 -174 -42.5t-181 -16.5q-184 0 -318 79.5
t-207 242.5t-73 409q0 232 67.5 405.5t216 272t382.5 98.5q68 0 135.5 -9t135.5 -28l18 -125q-78 20 -158 33.5zM606.5 1767q43.5 -45 133.5 -45t133.5 45t43.5 116h90q5 -71 -24 -125t-91 -84.5t-152 -30.5t-152 30.5t-91 84.5t-24 125h90q0 -71 43.5 -116z" />
    <glyph glyph-name="gbreve" unicode="&#x11f;" 
d="M360.5 393.5q-90.5 42.5 -142 117.5t-51.5 167t50.5 171t147.5 127t231 48q91 0 165 -25t137 -78l8 -29q3 -3 6 -7q32 -40 49 -85.5t17 -100.5q0 -100 -54 -179.5t-148 -124t-211 -44.5q-114 0 -204.5 42.5zM970.5 1009.5q67.5 23.5 136.5 25.5l27 -122l-299 -14l18 55
q50 32 117.5 55.5zM504 418l-68 -185q-5 -14 -5 -25t7.5 -19.5t23.5 -12.5l6 -1l440 -77l8 -1q62 -12 110 -35t78 -65t30 -106q0 -96 -74.5 -168t-207.5 -111.5t-305 -39.5q-136 0 -239.5 26.5t-161 79.5t-57.5 130q0 63 43 113.5t145 116.5l114 74l50 -41q-31 -13 -63 -30
q-49 -27 -87 -60.5t-60.5 -71.5t-22.5 -78q0 -53 40.5 -90.5t120.5 -57t195 -19.5q119 0 222 21t167 66.5t64 113.5q0 53 -43 85.5t-130 46.5l-359 56q-65 10 -102 23t-53.5 31.5t-16.5 46.5q0 30 19 71t52 98q20 35 22 40l37 72zM778.5 852.5q-80.5 67.5 -241.5 67.5
q-74 0 -120 -13t-72 -34q-25 -20 -39.5 -59t-14.5 -100q0 -130 80.5 -197.5t241.5 -67.5q74 0 120 13t72 34q25 20 39.5 59t14.5 100q0 130 -80.5 197.5zM485 1424.5q42 -59.5 135 -59.5t135 59.5t42 172.5h90q7 -159 -61 -244.5t-206 -85.5t-206 85.5t-61 244.5h90
q0 -113 42 -172.5z" />
    <glyph glyph-name="Gdotaccent" unicode="&#x120;" 
d="M941 1354.5q-80 13.5 -172 13.5q-66 0 -121 -9t-99.5 -25.5t-79.5 -40.5q-80 -54 -139.5 -178.5t-59.5 -383.5q0 -228 62.5 -373.5t171 -212.5t249.5 -67q120 0 259 33l-42 -33v606l67 -51h-421l20 110h460l1 -708q-84 -26 -174 -42.5t-181 -16.5q-184 0 -318 79.5
t-207 242.5t-73 409q0 232 67.5 405.5t216 272t382.5 98.5q68 0 135.5 -9t135.5 -28l18 -125q-78 20 -158 33.5zM663.5 1689q-29.5 26 -29.5 72t29.5 72t76.5 26t76.5 -26t29.5 -72t-29.5 -72t-76.5 -26t-76.5 26z" />
    <glyph glyph-name="gdotaccent" unicode="&#x121;" 
d="M360.5 393.5q-90.5 42.5 -142 117.5t-51.5 167t50.5 171t147.5 127t231 48q91 0 165 -25t137 -78l8 -29q3 -3 6 -7q32 -40 49 -85.5t17 -100.5q0 -100 -54 -179.5t-148 -124t-211 -44.5q-114 0 -204.5 42.5zM970.5 1009.5q67.5 23.5 136.5 25.5l27 -122l-299 -14l18 55
q50 32 117.5 55.5zM504 418l-68 -185q-5 -14 -5 -25t7.5 -19.5t23.5 -12.5l6 -1l440 -77l8 -1q62 -12 110 -35t78 -65t30 -106q0 -96 -74.5 -168t-207.5 -111.5t-305 -39.5q-136 0 -239.5 26.5t-161 79.5t-57.5 130q0 63 43 113.5t145 116.5l114 74l50 -41q-31 -13 -63 -30
q-49 -27 -87 -60.5t-60.5 -71.5t-22.5 -78q0 -53 40.5 -90.5t120.5 -57t195 -19.5q119 0 222 21t167 66.5t64 113.5q0 53 -43 85.5t-130 46.5l-359 56q-65 10 -102 23t-53.5 31.5t-16.5 46.5q0 30 19 71t52 98q20 35 22 40l37 72zM778.5 852.5q-80.5 67.5 -241.5 67.5
q-74 0 -120 -13t-72 -34q-25 -20 -39.5 -59t-14.5 -100q0 -130 80.5 -197.5t241.5 -67.5q74 0 120 13t72 34q25 20 39.5 59t14.5 100q0 130 -80.5 197.5zM565 1324.5q-24 11.5 -37.5 34t-13.5 52.5q0 46 29.5 72t76.5 26t76.5 -26t29.5 -72t-29.5 -72t-76.5 -26
q-31 0 -55 11.5z" />
    <glyph glyph-name="uni0122" unicode="&#x122;" 
d="M941 1354.5q-80 13.5 -172 13.5q-66 0 -121 -9t-99.5 -25.5t-79.5 -40.5q-80 -54 -139.5 -178.5t-59.5 -383.5q0 -228 62.5 -373.5t171 -212.5t249.5 -67q120 0 259 33l-42 -33v606l67 -51h-421l20 110h460l1 -708q-84 -26 -174 -42.5t-181 -16.5q-184 0 -318 79.5
t-207 242.5t-73 409q0 232 67.5 405.5t216 272t382.5 98.5q68 0 135.5 -9t135.5 -28l18 -125q-78 20 -158 33.5zM639 -509.5q-27 12.5 -41.5 36.5t-14.5 56q0 49 33 77t82 28q55 0 91.5 -36t36.5 -105q0 -87 -57 -165.5t-141 -128.5l-55 66q41 29 71.5 56.5t53 59.5t33.5 70
l26 -16q-24 -11 -55 -11q-36 0 -63 12.5z" />
    <glyph glyph-name="uni0123" unicode="&#x123;" 
d="M360.5 393.5q-90.5 42.5 -142 117.5t-51.5 167t50.5 171t147.5 127t231 48q91 0 165 -25t137 -78l8 -29q3 -3 6 -7q32 -40 49 -85.5t17 -100.5q0 -100 -54 -179.5t-148 -124t-211 -44.5q-114 0 -204.5 42.5zM970.5 1009.5q67.5 23.5 136.5 25.5l27 -122l-299 -14l18 55
q50 32 117.5 55.5zM504 418l-68 -185q-5 -14 -5 -25t7.5 -19.5t23.5 -12.5l6 -1l440 -77l8 -1q62 -12 110 -35t78 -65t30 -106q0 -96 -74.5 -168t-207.5 -111.5t-305 -39.5q-136 0 -239.5 26.5t-161 79.5t-57.5 130q0 63 43 113.5t145 116.5l114 74l50 -41q-31 -13 -63 -30
q-49 -27 -87 -60.5t-60.5 -71.5t-22.5 -78q0 -53 40.5 -90.5t120.5 -57t195 -19.5q119 0 222 21t167 66.5t64 113.5q0 53 -43 85.5t-130 46.5l-359 56q-65 10 -102 23t-53.5 31.5t-16.5 46.5q0 30 19 71t52 98q20 35 22 40l37 72zM778.5 852.5q-80.5 67.5 -241.5 67.5
q-74 0 -120 -13t-72 -34q-25 -20 -39.5 -59t-14.5 -100q0 -130 80.5 -197.5t241.5 -67.5q74 0 120 13t72 34q25 20 39.5 59t14.5 100q0 130 -80.5 197.5zM681 1509.5q27 -12.5 41.5 -36.5t14.5 -56q0 -49 -33 -77t-82 -28q-55 0 -91.5 36t-36.5 105q0 87 57 165.5t141 128.5
l55 -66q-41 -29 -71.5 -56.5t-53 -59.5t-33.5 -70l-26 16q24 11 55 11q36 0 63 -12.5z" />
    <glyph glyph-name="Hcircumflex" unicode="&#x124;" 
d="M207 0v1460h126v-1460h-126zM907 0v1460h126v-1460h-126zM276 810h692v-101h-692v101zM562 1883h116l264 -233h-131l-219 204h56l-219 -204h-131z" />
    <glyph glyph-name="hcircumflex" unicode="&#x125;" 
d="M344 0h-124v1530h124v-654v-14v-862zM893 0v713q0 74 -24.5 119t-68 65t-103.5 20q-83 0 -183 -34.5t-211 -97.5v100h47q102 66 198.5 102t195.5 36q132 0 201.5 -66t70.5 -185l4 -772h-127zM224 1953h116l264 -233h-131l-219 204h56l-219 -204h-131z" />
    <glyph glyph-name="Hbar" unicode="&#x126;" 
d="M1200 1102h-1160v110h1160v-110zM207 0v1460h126v-1460h-126zM907 0v1460h126v-1460h-126zM276 810h692v-101h-692v101z" />
    <glyph glyph-name="hbar" unicode="&#x127;" 
d="M788 1360v-99h-720v99h200h29h491zM344 0h-124v1530h124v-654v-14v-862zM893 0v713q0 74 -24.5 119t-68 65t-103.5 20q-83 0 -183 -34.5t-211 -97.5v100h47q102 66 198.5 102t195.5 36q132 0 201.5 -66t70.5 -185l4 -772h-127z" />
    <glyph glyph-name="Itilde" unicode="&#x128;" 
d="M547 0v1460h126v-1460h-126zM1068 1460l20 -110h-936l20 110h896zM152 110h936l-20 -110h-896zM540.5 1881.5q32.5 -12.5 55 -29.5t53.5 -46q36 -33 60.5 -48.5t55.5 -15.5q44 0 73.5 34.5t43.5 98.5l90 -26q-15 -100 -67 -153t-134 -53q-40 0 -72.5 12.5t-55.5 30
t-52 45.5q-37 33 -60.5 48.5t-54.5 15.5q-44 0 -74 -34.5t-44 -98.5l-90 26q15 100 66.5 153t133.5 53q40 0 72.5 -12.5z" />
    <glyph glyph-name="Imacron" unicode="&#x12a;" 
d="M547 0v1460h126v-1460h-126zM1068 1460l20 -110h-936l20 110h896zM152 110h936l-20 -110h-896zM927 1731h-614v100h614v-100z" />
    <glyph glyph-name="imacron" unicode="&#x12b;" 
d="M671 1000v-1000h-124v946l45 -45h-431l20 99h490zM141 99h956l-20 -99h-916zM885 1339h-614v100h614v-100z" />
    <glyph glyph-name="Ibreve" unicode="&#x12c;" 
d="M547 0v1460h126v-1460h-126zM1068 1460l20 -110h-936l20 110h896zM152 110h936l-20 -110h-896zM486.5 1767q43.5 -45 133.5 -45t133.5 45t43.5 116h90q5 -71 -24 -125t-91 -84.5t-152 -30.5t-152 30.5t-91 84.5t-24 125h90q0 -71 43.5 -116z" />
    <glyph glyph-name="ibreve" unicode="&#x12d;" 
d="M671 1000v-1000h-124v946l45 -45h-431l20 99h490zM141 99h956l-20 -99h-916zM443 1424.5q42 -59.5 135 -59.5t135 59.5t42 172.5h90q7 -159 -61 -244.5t-206 -85.5t-206 85.5t-61 244.5h90q0 -113 42 -172.5z" />
    <glyph glyph-name="Iogonek" unicode="&#x12e;" 
d="M547 0v1460h126v-1460h-126zM1068 1460l20 -110h-936l20 110h896zM152 110h936l-20 -110h-896zM577.5 -122q-32.5 -54 -32.5 -96q0 -37 25.5 -56t83.5 -19h29v-107h-54q-104 0 -147 43t-43 109q0 70 44.5 135.5t141.5 149.5l58 -37q-73 -68 -105.5 -122z" />
    <glyph glyph-name="iogonek" unicode="&#x12f;" 
d="M671 1000v-1000h-124v946l45 -45h-431l20 99h490zM141 99h956l-20 -99h-916zM523 1324.5q-24 11.5 -37.5 34t-13.5 52.5q0 46 29.5 72t76.5 26t76.5 -26t29.5 -72t-29.5 -72t-76.5 -26q-31 0 -55 11.5zM576.5 -122q-32.5 -54 -32.5 -96q0 -37 25.5 -56t83.5 -19h29v-107
h-54q-104 0 -147 43t-43 109q0 70 44.5 135.5t141.5 149.5l58 -37q-73 -68 -105.5 -122z" />
    <glyph glyph-name="Idotaccent" unicode="&#x130;" 
d="M547 0v1460h126v-1460h-126zM1068 1460l20 -110h-936l20 110h896zM152 110h936l-20 -110h-896zM543.5 1689q-29.5 26 -29.5 72t29.5 72t76.5 26t76.5 -26t29.5 -72t-29.5 -72t-76.5 -26t-76.5 26z" />
    <glyph glyph-name="dotlessi" unicode="&#x131;" 
d="M671 1000v-1000h-124v946l45 -45h-431l20 99h490zM141 99h956l-20 -99h-916z" />
    <glyph glyph-name="IJ" unicode="&#x132;" 
d="M918 116q-68 -87 -165.5 -113.5t-218.5 -26.5q-112 0 -187 14t-135 38l-24 125q15 -6 45 -16q76 -25 150 -38t152 -13q95 0 164 17t100 41t46 77.5t15 146.5v1092h126v-1090q0 -167 -68 -254zM942 1350h-362l20 110h342v-110zM215 510v950h126v-950h-126z" />
    <glyph glyph-name="ij" unicode="&#x133;" 
d="M470 1000v-1000h-124v946l45 -45h-271l20 99h330zM100 99h616l-20 -99h-576zM322 1324.5q-24 11.5 -37.5 34t-13.5 52.5q0 46 29.5 72t76.5 26t76.5 -26t29.5 -72t-29.5 -72t-76.5 -26q-31 0 -55 11.5zM1048 1000v-982q0 -176 -57.5 -274t-154 -134t-232.5 -36
q-71 0 -127 6t-109 19l-24 117q65 -19 133.5 -29.5t146.5 -10.5q84 0 143.5 19.5t89.5 46.5q30 26 48.5 77.5t18.5 140.5v986l45 -45h-271l20 99h330zM901 1324.5q-24 11.5 -37.5 34t-13.5 52.5q0 46 29.5 72t76.5 26t76.5 -26t29.5 -72t-29.5 -72t-76.5 -26q-31 0 -55 11.5
z" />
    <glyph glyph-name="Jcircumflex" unicode="&#x134;" 
d="M918 116q-68 -87 -165.5 -113.5t-218.5 -26.5q-112 0 -187 14t-135 38l-24 125q15 -6 45 -16q76 -25 150 -38t152 -13q95 0 164 17t100 41t46 77.5t15 146.5v1092h126v-1090q0 -167 -68 -254zM942 1350h-716l20 110h696v-110zM591 1883h116l264 -233h-131l-219 204h56
l-219 -204h-131z" />
    <glyph glyph-name="jcircumflex" unicode="&#x135;" 
d="M852 1000v-982q0 -177 -59 -274.5t-163.5 -133.5t-261.5 -36q-71 0 -127 6t-109 19l-24 117q65 -19 133.5 -29.5t146.5 -10.5q110 0 176 19t97 47q30 26 48.5 77.5t18.5 140.5v986l45 -45h-599l20 99h658zM712 1597h96l274 -323h-121l-229 288h56l-229 -288h-121z" />
    <glyph glyph-name="uni0136" unicode="&#x136;" 
d="M207 0v1460h126v-1460h-126zM801.5 376.5q-115.5 175.5 -256.5 353.5l71 -30h-329v105h337l-86 -46q140 181 244.5 347.5t199.5 353.5h147q-91 -182 -201 -354t-247 -338v-13q138 -165 263 -351t240 -404h-161q-106 201 -221.5 376.5zM559 -509.5q-27 12.5 -41.5 36.5
t-14.5 56q0 49 33 77t82 28q55 0 91.5 -36t36.5 -105q0 -87 -57 -165.5t-141 -128.5l-55 66q41 29 71.5 56.5t53 59.5t33.5 70l26 -16q-24 -11 -55 -11q-36 0 -63 12.5z" />
    <glyph glyph-name="uni0137" unicode="&#x137;" 
d="M344 1530v-1530h-124v1530h124zM912.5 776.5q-99.5 -102.5 -221.5 -215.5v-13q127 -115 248.5 -249.5t234.5 -298.5h-161q-111 150 -218.5 272t-239.5 251l71 -30h-326v105h334l-93 -46q132 127 232 234t192 214h154q-107 -121 -206.5 -223.5zM559 -509.5
q-27 12.5 -41.5 36.5t-14.5 56q0 49 33 77t82 28q55 0 91.5 -36t36.5 -105q0 -87 -57 -165.5t-141 -128.5l-55 66q41 29 71.5 56.5t53 59.5t33.5 70l26 -16q-24 -11 -55 -11q-36 0 -63 12.5z" />
    <glyph glyph-name="kgreenlandic" unicode="&#x138;" 
d="M220 0v1000h124v-1000h-124zM912.5 776.5q-99.5 -102.5 -221.5 -215.5v-13q127 -115 248.5 -249.5t234.5 -298.5h-161q-111 150 -218.5 272t-239.5 251l71 -30h-326v105h334l-93 -46q132 127 232 234t192 214h154q-107 -121 -206.5 -223.5z" />
    <glyph glyph-name="Lacute" unicode="&#x139;" 
d="M207 0v1460h126v-1460h-126zM1098 0h-806v110h826zM338 1650l253 233h-140l-222 -233h109z" />
    <glyph glyph-name="lacute" unicode="&#x13a;" 
d="M547 0v1476l45 -45h-431l20 99h490v-1530h-124zM141 99h956l-20 -99h-916zM665 1720l253 233h-140l-222 -233h109z" />
    <glyph glyph-name="uni013B" unicode="&#x13b;" 
d="M207 0v1460h126v-1460h-126zM1098 0h-806v110h826zM559 -509.5q-27 12.5 -41.5 36.5t-14.5 56q0 49 33 77t82 28q55 0 91.5 -36t36.5 -105q0 -87 -57 -165.5t-141 -128.5l-55 66q41 29 71.5 56.5t53 59.5t33.5 70l26 -16q-24 -11 -55 -11q-36 0 -63 12.5z" />
    <glyph glyph-name="uni013C" unicode="&#x13c;" 
d="M547 0v1476l45 -45h-431l20 99h490v-1530h-124zM141 99h956l-20 -99h-916zM559 -509.5q-27 12.5 -41.5 36.5t-14.5 56q0 49 33 77t82 28q55 0 91.5 -36t36.5 -105q0 -87 -57 -165.5t-141 -128.5l-55 66q41 29 71.5 56.5t53 59.5t33.5 70l26 -16q-24 -11 -55 -11
q-36 0 -63 12.5z" />
    <glyph glyph-name="Lcaron" unicode="&#x13d;" 
d="M207 0v1460h126v-1460h-126zM1098 0h-806v110h826zM583 1548h121l-41 -336h-97z" />
    <glyph glyph-name="lcaron" unicode="&#x13e;" 
d="M547 0v1476l45 -45h-431l20 99h490v-1530h-124zM141 99h956l-20 -99h-916zM910 1618h121l-41 -336h-97z" />
    <glyph glyph-name="Ldot" unicode="&#x13f;" 
d="M832.5 736q-29.5 26 -29.5 72t29.5 72t76.5 26t76.5 -26t29.5 -72t-29.5 -72t-76.5 -26t-76.5 26zM207 0v1460h126v-1460h-126zM1098 0h-806v110h826z" />
    <glyph glyph-name="ldot" unicode="&#x140;" 
d="M1037.5 736q-29.5 26 -29.5 72t29.5 72t76.5 26t76.5 -26t29.5 -72t-29.5 -72t-76.5 -26t-76.5 26zM547 0v1476l45 -45h-431l20 99h490v-1530h-124zM141 99h956l-20 -99h-916z" />
    <glyph glyph-name="Lslash" unicode="&#x141;" 
d="M738 937l-718 -350v115l718 350v-115zM207 0v1460h126v-1460h-126zM1098 0h-806v110h826z" />
    <glyph glyph-name="lslash" unicode="&#x142;" 
d="M979 957l-718 -350v115l718 350v-115zM547 0v1476l45 -45h-431l20 99h490v-1530h-124zM141 99h956l-20 -99h-916z" />
    <glyph glyph-name="Nacute" unicode="&#x143;" 
d="M207 1460h150l544 -1212h12v1213h120v-1461h-151l-543 1248h-12v-1248h-120v1460zM665 1650l253 233h-140l-222 -233h109z" />
    <glyph glyph-name="nacute" unicode="&#x144;" 
d="M344 0h-124v1001h117v-125l7 -14v-862zM893 0v713q0 74 -24.5 119t-68 65t-103.5 20q-83 0 -183 -34.5t-211 -97.5v100h40q100 65 201 101.5t200 36.5q132 0 201.5 -66t70.5 -185l4 -772h-127zM665 1274l253 323h-140l-222 -323h109z" />
    <glyph glyph-name="uni0145" unicode="&#x145;" 
d="M207 1460h150l544 -1212h12v1213h120v-1461h-151l-543 1248h-12v-1248h-120v1460zM559 -509.5q-27 12.5 -41.5 36.5t-14.5 56q0 49 33 77t82 28q55 0 91.5 -36t36.5 -105q0 -87 -57 -165.5t-141 -128.5l-55 66q41 29 71.5 56.5t53 59.5t33.5 70l26 -16q-24 -11 -55 -11
q-36 0 -63 12.5z" />
    <glyph glyph-name="uni0146" unicode="&#x146;" 
d="M344 0h-124v1001h117v-125l7 -14v-862zM893 0v713q0 74 -24.5 119t-68 65t-103.5 20q-83 0 -183 -34.5t-211 -97.5v100h40q100 65 201 101.5t200 36.5q132 0 201.5 -66t70.5 -185l4 -772h-127zM559 -509.5q-27 12.5 -41.5 36.5t-14.5 56q0 49 33 77t82 28q55 0 91.5 -36
t36.5 -105q0 -87 -57 -165.5t-141 -128.5l-55 66q41 29 71.5 56.5t53 59.5t33.5 70l26 -16q-24 -11 -55 -11q-36 0 -63 12.5z" />
    <glyph glyph-name="Ncaron" unicode="&#x147;" 
d="M207 1460h150l544 -1212h12v1213h120v-1461h-151l-543 1248h-12v-1248h-120v1460zM562 1650h116l264 233h-131l-191 -178l-191 178h-131z" />
    <glyph glyph-name="ncaron" unicode="&#x148;" 
d="M344 0h-124v1001h117v-125l7 -14v-862zM893 0v713q0 74 -24.5 119t-68 65t-103.5 20q-83 0 -183 -34.5t-211 -97.5v100h40q100 65 201 101.5t200 36.5q132 0 201.5 -66t70.5 -185l4 -772h-127zM572 1274h96l274 323h-121l-201 -253l-201 253h-121z" />
    <glyph glyph-name="Eng" unicode="&#x14a;" 
d="M658 -314l-22 114q55 -25 91 -36.5t70 -11.5q20 0 42 4.5t38 17.5q18 14 25.5 38.5t9 56.5t1.5 100v31h120v-36q0 -118 -36.5 -188t-90.5 -98.5t-112 -28.5q-66 0 -136 37zM207 1460h150l544 -1212h12v1213h120v-1461l-87 -146l-607 1394h-12v-1248h-120v1460z" />
    <glyph glyph-name="eng" unicode="&#x14b;" 
d="M638 -314l-22 114q55 -25 91 -36.5t70 -11.5q20 0 42 4.5t38 17.5q18 14 25.5 39t9 59.5t1.5 111.5v36h127v-56q0 -118 -37 -188.5t-92.5 -98.5t-116.5 -28q-66 0 -136 37zM344 0h-124v1001h117v-125l7 -14v-862zM893 0v713q0 74 -24.5 119t-68 65t-103.5 20
q-83 0 -183 -34.5t-211 -97.5v100h40q100 65 201 101.5t200 36.5q132 0 201.5 -66t70.5 -185l4 -772h-127z" />
    <glyph glyph-name="Omacron" unicode="&#x14c;" 
d="M324 87q-104 106 -145.5 274.5t-41.5 376.5q0 236 61 402.5t173 252t262 85.5q178 0 282.5 -106t146 -274.5t41.5 -376.5q0 -236 -61.5 -402.5t-173.5 -252t-262 -85.5q-178 0 -282 106zM743.5 98.5q50.5 21.5 86.5 56.5q28 28 57 87t51 169.5t22 272.5q0 223 -31 373.5
t-108.5 233t-212.5 82.5q-63 0 -113.5 -21t-86.5 -56q-48 -48 -89 -173t-41 -356q0 -223 31 -373.5t108.5 -233.5t212.5 -83q63 0 113.5 21.5zM927 1731h-614v100h614v-100z" />
    <glyph glyph-name="omacron" unicode="&#x14d;" 
d="M363 39.5q-107 63.5 -165 181.5t-58 279q0 174 68 292t179.5 175t243.5 57q140 0 246 -63.5t164.5 -182t58.5 -280.5q0 -173 -66.5 -290.5t-177 -174.5t-244.5 -57q-142 0 -249 63.5zM755 100.5q51 12.5 87 37.5q51 35 86 111t35 240q0 114 -25.5 206.5t-106 156
t-231.5 63.5q-67 0 -117 -12t-87 -38q-33 -23 -58.5 -58t-43.5 -106t-18 -186t25.5 -207.5t105.5 -156t231 -63.5q66 0 117 12.5zM927 1339h-614v100h614v-100z" />
    <glyph glyph-name="Obreve" unicode="&#x14e;" 
d="M324 87q-104 106 -145.5 274.5t-41.5 376.5q0 236 61 402.5t173 252t262 85.5q178 0 282.5 -106t146 -274.5t41.5 -376.5q0 -236 -61.5 -402.5t-173.5 -252t-262 -85.5q-178 0 -282 106zM743.5 98.5q50.5 21.5 86.5 56.5q28 28 57 87t51 169.5t22 272.5q0 223 -31 373.5
t-108.5 233t-212.5 82.5q-63 0 -113.5 -21t-86.5 -56q-48 -48 -89 -173t-41 -356q0 -223 31 -373.5t108.5 -233.5t212.5 -83q63 0 113.5 21.5zM486.5 1767q43.5 -45 133.5 -45t133.5 45t43.5 116h90q5 -71 -24 -125t-91 -84.5t-152 -30.5t-152 30.5t-91 84.5t-24 125h90
q0 -71 43.5 -116z" />
    <glyph glyph-name="obreve" unicode="&#x14f;" 
d="M363 39.5q-107 63.5 -165 181.5t-58 279q0 174 68 292t179.5 175t243.5 57q140 0 246 -63.5t164.5 -182t58.5 -280.5q0 -173 -66.5 -290.5t-177 -174.5t-244.5 -57q-142 0 -249 63.5zM755 100.5q51 12.5 87 37.5q51 35 86 111t35 240q0 114 -25.5 206.5t-106 156
t-231.5 63.5q-67 0 -117 -12t-87 -38q-33 -23 -58.5 -58t-43.5 -106t-18 -186t25.5 -207.5t105.5 -156t231 -63.5q66 0 117 12.5zM485 1424.5q42 -59.5 135 -59.5t135 59.5t42 172.5h90q7 -159 -61 -244.5t-206 -85.5t-206 85.5t-61 244.5h90q0 -113 42 -172.5z" />
    <glyph glyph-name="Ohungarumlaut" unicode="&#x150;" 
d="M324 87q-104 106 -145.5 274.5t-41.5 376.5q0 236 61 402.5t173 252t262 85.5q178 0 282.5 -106t146 -274.5t41.5 -376.5q0 -236 -61.5 -402.5t-173.5 -252t-262 -85.5q-178 0 -282 106zM743.5 98.5q50.5 21.5 86.5 56.5q28 28 57 87t51 169.5t22 272.5q0 223 -31 373.5
t-108.5 233t-212.5 82.5q-63 0 -113.5 -21t-86.5 -56q-48 -48 -89 -173t-41 -356q0 -223 31 -373.5t108.5 -233.5t212.5 -83q63 0 113.5 21.5zM528 1883h129l-175 -233h-101zM889 1883h130l-176 -233h-100z" />
    <glyph glyph-name="ohungarumlaut" unicode="&#x151;" 
d="M363 39.5q-107 63.5 -165 181.5t-58 279q0 174 68 292t179.5 175t243.5 57q140 0 246 -63.5t164.5 -182t58.5 -280.5q0 -173 -66.5 -290.5t-177 -174.5t-244.5 -57q-142 0 -249 63.5zM755 100.5q51 12.5 87 37.5q51 35 86 111t35 240q0 114 -25.5 206.5t-106 156
t-231.5 63.5q-67 0 -117 -12t-87 -38q-33 -23 -58.5 -58t-43.5 -106t-18 -186t25.5 -207.5t105.5 -156t231 -63.5q66 0 117 12.5zM528 1597h129l-175 -323h-101zM889 1597h130l-176 -323h-100z" />
    <glyph glyph-name="OE" unicode="&#x152;" 
d="M634 0v1460h126v-1460h-126zM1160 0h-434v110h454zM1047 694h-321v105h321v-105zM726 1350v110h434l20 -110h-454zM324.5 105q-104.5 105 -146 269.5t-41.5 363.5q0 227 61 390t173 247.5t262 84.5h40v-105h-65q-63 0 -113.5 -21t-86.5 -56q-48 -48 -89 -169.5
t-41 -341.5q0 -214 31 -360.5t108.5 -228.5t212.5 -82h30v-96h-54q-177 0 -281.5 105z" />
    <glyph glyph-name="oe" unicode="&#x153;" 
d="M727 39q-71 63 -108 182.5t-37 285.5l22 32v94q0 132 44 220t113.5 129.5t145.5 41.5q91 0 149 -47.5t85 -132.5t27 -201v-107h-544v87h455l-33 -58q7 47 7 99q0 125 -45 193.5t-121 68.5q-31 0 -60.5 -11.5t-50.5 -35.5q-34 -40 -56.5 -129.5t-22.5 -240.5
q0 -116 25.5 -210.5t77 -150.5t126.5 -56q44 0 94 14t100 39q5 2 9 4l-11 -110q-48 -26 -105.5 -44.5t-114.5 -18.5q-100 0 -171 63zM201.5 35.5q-64.5 59.5 -98 176.5t-33.5 288q0 175 40 293t108 174.5t153 56.5q91 0 155 -59.5t98 -177t34 -289.5q0 -174 -39 -291.5
t-106.5 -174t-153.5 -56.5q-93 0 -157.5 59.5zM479 138q25 34 42 110t17 241q0 184 -35.5 305t-143.5 121q-33 0 -57 -12t-43 -38q-26 -36 -42.5 -110.5t-16.5 -239.5q0 -184 36 -305.5t143 -121.5q64 0 100 50z" />
    <glyph glyph-name="Racute" unicode="&#x154;" 
d="M207 0v1460h126v-1460h-126zM693 818.5q106 56.5 169.5 138t63.5 191.5q0 75 -31.5 124t-93 73t-153.5 24h-352v91l296 2q140 1 241.5 -24t162.5 -92.5t61 -188.5q0 -128 -68.5 -224t-183.5 -162t-270 -115l6 59l614 -715h-165l-553 662l-1 48q151 52 257 108.5z
M665 1650l253 233h-140l-222 -233h109z" />
    <glyph glyph-name="racute" unicode="&#x155;" 
d="M566 791l15 -14v-777h-124v1000h109v-209zM141 99h856l-20 -99h-816zM161 1000h361v-99h-381zM916.5 879q-96.5 -16 -181.5 -51t-183 -94l-23 82h54q57 65 126.5 111.5t152 71t175.5 24.5q47 0 84 -8l13 -124q-121 4 -217.5 -12zM665 1274l253 323h-140l-222 -323h109z
" />
    <glyph glyph-name="uni0156" unicode="&#x156;" 
d="M207 0v1460h126v-1460h-126zM693 818.5q106 56.5 169.5 138t63.5 191.5q0 75 -31.5 124t-93 73t-153.5 24h-352v91l296 2q140 1 241.5 -24t162.5 -92.5t61 -188.5q0 -128 -68.5 -224t-183.5 -162t-270 -115l6 59l614 -715h-165l-553 662l-1 48q151 52 257 108.5z
M559 -509.5q-27 12.5 -41.5 36.5t-14.5 56q0 49 33 77t82 28q55 0 91.5 -36t36.5 -105q0 -87 -57 -165.5t-141 -128.5l-55 66q41 29 71.5 56.5t53 59.5t33.5 70l26 -16q-24 -11 -55 -11q-36 0 -63 12.5z" />
    <glyph glyph-name="uni0157" unicode="&#x157;" 
d="M566 791l15 -14v-777h-124v1000h109v-209zM141 99h856l-20 -99h-816zM161 1000h361v-99h-381zM916.5 879q-96.5 -16 -181.5 -51t-183 -94l-23 82h54q57 65 126.5 111.5t152 71t175.5 24.5q47 0 84 -8l13 -124q-121 4 -217.5 -12zM501 -509.5q-27 12.5 -41.5 36.5
t-14.5 56q0 49 33 77t82 28q55 0 91.5 -36t36.5 -105q0 -87 -57 -165.5t-141 -128.5l-55 66q41 29 71.5 56.5t53 59.5t33.5 70l26 -16q-24 -11 -55 -11q-36 0 -63 12.5z" />
    <glyph glyph-name="Rcaron" unicode="&#x158;" 
d="M207 0v1460h126v-1460h-126zM693 818.5q106 56.5 169.5 138t63.5 191.5q0 75 -31.5 124t-93 73t-153.5 24h-352v91l296 2q140 1 241.5 -24t162.5 -92.5t61 -188.5q0 -128 -68.5 -224t-183.5 -162t-270 -115l6 59l614 -715h-165l-553 662l-1 48q151 52 257 108.5z
M562 1650h116l264 233h-131l-191 -178l-191 178h-131z" />
    <glyph glyph-name="rcaron" unicode="&#x159;" 
d="M566 791l15 -14v-777h-124v1000h109v-209zM141 99h856l-20 -99h-816zM161 1000h361v-99h-381zM916.5 879q-96.5 -16 -181.5 -51t-183 -94l-23 82h54q57 65 126.5 111.5t152 71t175.5 24.5q47 0 84 -8l13 -124q-121 4 -217.5 -12zM572 1274h96l274 323h-121l-201 -253
l-201 253h-121z" />
    <glyph glyph-name="Sacute" unicode="&#x15a;" 
d="M676 1368q-116 0 -191 -19.5t-111 -48.5t-54.5 -63.5t-18.5 -92.5q0 -64 34.5 -116.5t100.5 -99t172 -98.5q20 -9 39 -19l46 -22q151 -72 226 -118t120 -113.5t45 -170.5q0 -122 -64.5 -214t-184 -142.5t-279.5 -50.5q-111 0 -210 23t-194 62v128q100 -44 214 -72.5
t229 -28.5t180 21t102 52q35 29 58 73.5t23 111.5q0 78 -35.5 129t-98.5 88t-194 99l-63 29q-133 63 -214 121.5t-122.5 130t-41.5 167.5q0 136 74 219t195 118t273 35q73 0 149 -9t154 -27l11 -128q-201 46 -369 46zM665 1650l253 233h-140l-222 -233h109z" />
    <glyph glyph-name="sacute" unicode="&#x15b;" 
d="M880 1012q73 -10 142 -29l5 -120q-81 21 -175.5 34.5t-200.5 13.5q-94 0 -166.5 -13t-118.5 -45q-28 -19 -43 -43.5t-15 -50.5q0 -39 34 -72t102 -62t175 -56l66 -16q132 -31 209.5 -59.5t125.5 -80t48 -135.5q0 -95 -62.5 -162t-176.5 -101t-268 -34q-109 0 -204.5 16.5
t-178.5 44.5l-8 125q100 -32 218 -52t259 -20q76 0 137.5 9t105.5 35l3 2q28 18 43 45.5t15 64.5q0 58 -40.5 94t-113 59.5t-224.5 60.5q-5 2 -11 3q-123 30 -200.5 65.5t-117 85t-39.5 118.5q0 100 75 164t193.5 92.5t253.5 28.5q80 0 153 -10zM665 1274l253 323h-140
l-222 -323h109z" />
    <glyph glyph-name="Scircumflex" unicode="&#x15c;" 
d="M676 1368q-116 0 -191 -19.5t-111 -48.5t-54.5 -63.5t-18.5 -92.5q0 -64 34.5 -116.5t100.5 -99t172 -98.5q20 -9 39 -19l46 -22q151 -72 226 -118t120 -113.5t45 -170.5q0 -122 -64.5 -214t-184 -142.5t-279.5 -50.5q-111 0 -210 23t-194 62v128q100 -44 214 -72.5
t229 -28.5t180 21t102 52q35 29 58 73.5t23 111.5q0 78 -35.5 129t-98.5 88t-194 99l-63 29q-133 63 -214 121.5t-122.5 130t-41.5 167.5q0 136 74 219t195 118t273 35q73 0 149 -9t154 -27l11 -128q-201 46 -369 46zM562 1883h116l264 -233h-131l-219 204h56l-219 -204
h-131z" />
    <glyph glyph-name="scircumflex" unicode="&#x15d;" 
d="M880 1012q73 -10 142 -29l5 -120q-81 21 -175.5 34.5t-200.5 13.5q-94 0 -166.5 -13t-118.5 -45q-28 -19 -43 -43.5t-15 -50.5q0 -39 34 -72t102 -62t175 -56l66 -16q132 -31 209.5 -59.5t125.5 -80t48 -135.5q0 -95 -62.5 -162t-176.5 -101t-268 -34q-109 0 -204.5 16.5
t-178.5 44.5l-8 125q100 -32 218 -52t259 -20q76 0 137.5 9t105.5 35l3 2q28 18 43 45.5t15 64.5q0 58 -40.5 94t-113 59.5t-224.5 60.5q-5 2 -11 3q-123 30 -200.5 65.5t-117 85t-39.5 118.5q0 100 75 164t193.5 92.5t253.5 28.5q80 0 153 -10zM572 1597h96l274 -323h-121
l-229 288h56l-229 -288h-121z" />
    <glyph glyph-name="Scedilla" unicode="&#x15e;" 
d="M676 1368q-116 0 -191 -19.5t-111 -48.5t-54.5 -63.5t-18.5 -92.5q0 -64 34.5 -116.5t100.5 -99t172 -98.5q20 -9 39 -19l46 -22q151 -72 226 -118t120 -113.5t45 -170.5q0 -122 -64.5 -214t-184 -142.5t-279.5 -50.5q-111 0 -210 23t-194 62v128q100 -44 214 -72.5
t229 -28.5t180 21t102 52q35 29 58 73.5t23 111.5q0 78 -35.5 129t-98.5 88t-194 99l-63 29q-133 63 -214 121.5t-122.5 130t-41.5 167.5q0 136 74 219t195 118t273 35q73 0 149 -9t154 -27l11 -128q-201 46 -369 46zM748.5 -211.5q44.5 -22.5 68 -63.5t23.5 -105
q0 -63 -24.5 -103t-82 -61t-155.5 -21h-64v94h39q100 0 139 25t39 75q0 54 -39 81t-118 35v303h90l4 -276l-31 49q67 -10 111.5 -32.5z" />
    <glyph glyph-name="scedilla" unicode="&#x15f;" 
d="M880 1012q73 -10 142 -29l5 -120q-81 21 -175.5 34.5t-200.5 13.5q-94 0 -166.5 -13t-118.5 -45q-28 -19 -43 -43.5t-15 -50.5q0 -39 34 -72t102 -62t175 -56l66 -16q132 -31 209.5 -59.5t125.5 -80t48 -135.5q0 -95 -62.5 -162t-176.5 -101t-268 -34q-109 0 -204.5 16.5
t-178.5 44.5l-8 125q100 -32 218 -52t259 -20q76 0 137.5 9t105.5 35l3 2q28 18 43 45.5t15 64.5q0 58 -40.5 94t-113 59.5t-224.5 60.5q-5 2 -11 3q-123 30 -200.5 65.5t-117 85t-39.5 118.5q0 100 75 164t193.5 92.5t253.5 28.5q80 0 153 -10zM748.5 -211.5
q44.5 -22.5 68 -63.5t23.5 -105q0 -63 -24.5 -103t-82 -61t-155.5 -21h-64v94h39q100 0 139 25t39 75q0 54 -39 81t-118 35v303h90l4 -276l-31 49q67 -10 111.5 -32.5z" />
    <glyph glyph-name="Scaron" unicode="&#x160;" 
d="M676 1368q-116 0 -191 -19.5t-111 -48.5t-54.5 -63.5t-18.5 -92.5q0 -64 34.5 -116.5t100.5 -99t172 -98.5q20 -9 39 -19l46 -22q151 -72 226 -118t120 -113.5t45 -170.5q0 -122 -64.5 -214t-184 -142.5t-279.5 -50.5q-111 0 -210 23t-194 62v128q100 -44 214 -72.5
t229 -28.5t180 21t102 52q35 29 58 73.5t23 111.5q0 78 -35.5 129t-98.5 88t-194 99l-63 29q-133 63 -214 121.5t-122.5 130t-41.5 167.5q0 136 74 219t195 118t273 35q73 0 149 -9t154 -27l11 -128q-201 46 -369 46zM562 1650h116l264 233h-131l-191 -178l-191 178h-131z
" />
    <glyph glyph-name="scaron" unicode="&#x161;" 
d="M880 1012q73 -10 142 -29l5 -120q-81 21 -175.5 34.5t-200.5 13.5q-94 0 -166.5 -13t-118.5 -45q-28 -19 -43 -43.5t-15 -50.5q0 -39 34 -72t102 -62t175 -56l66 -16q132 -31 209.5 -59.5t125.5 -80t48 -135.5q0 -95 -62.5 -162t-176.5 -101t-268 -34q-109 0 -204.5 16.5
t-178.5 44.5l-8 125q100 -32 218 -52t259 -20q76 0 137.5 9t105.5 35l3 2q28 18 43 45.5t15 64.5q0 58 -40.5 94t-113 59.5t-224.5 60.5q-5 2 -11 3q-123 30 -200.5 65.5t-117 85t-39.5 118.5q0 100 75 164t193.5 92.5t253.5 28.5q80 0 153 -10zM572 1274h96l274 323h-121
l-201 -253l-201 253h-121z" />
    <glyph glyph-name="uni0162" unicode="&#x162;" 
d="M547 0v1460h126v-1460h-126zM132 1460h976l20 -110h-1016zM739.5 -211.5q44.5 -22.5 68 -63.5t23.5 -105q0 -63 -24.5 -103t-82 -61t-155.5 -21h-64v94h39q100 0 139 25t39 75q0 54 -39 81t-118 35v303h90l4 -276l-31 49q67 -10 111.5 -32.5z" />
    <glyph glyph-name="uni0163" unicode="&#x163;" 
d="M549 941v-696q0 -56 20 -90t68.5 -51t133.5 -17q76 0 156.5 15.5t146.5 36.5l-19 -104q-76 -26 -158.5 -42t-177.5 -16q-113 0 -177.5 28.5t-91 87t-26.5 155.5v693h125zM1072 1000l-29 -100h-911v46l381 301h41v-278l-98 31h616zM861.5 -211.5q44.5 -22.5 68 -63.5
t23.5 -105q0 -63 -24.5 -103t-82 -61t-155.5 -21h-64v94h39q100 0 139 25t39 75q0 54 -39 81t-118 35v303h90l4 -276l-31 49q67 -10 111.5 -32.5z" />
    <glyph glyph-name="Tcaron" unicode="&#x164;" 
d="M547 0v1460h126v-1460h-126zM132 1460h976l20 -110h-1016zM562 1650h116l264 233h-131l-191 -178l-191 178h-131z" />
    <glyph glyph-name="tcaron" unicode="&#x165;" 
d="M549 941v-696q0 -56 20 -90t68.5 -51t133.5 -17q76 0 156.5 15.5t146.5 36.5l-19 -104q-76 -26 -158.5 -42t-177.5 -16q-113 0 -177.5 28.5t-91 87t-26.5 155.5v693h125zM1072 1000l-29 -100h-911v46l381 301h41v-278l-98 31h616zM910 1548h121l-41 -336h-97z" />
    <glyph glyph-name="Tbar" unicode="&#x166;" 
d="M274 815h692v-110h-692v110zM547 0v1460h126v-1460h-126zM132 1460h976l20 -110h-1016z" />
    <glyph glyph-name="tbar" unicode="&#x167;" 
d="M1072 738l-29 -99h-911v99h326h29h585zM549 1035v-790q0 -56 20 -90t68.5 -51t133.5 -17q76 0 156.5 15.5t146.5 36.5l-19 -104q-76 -26 -158.5 -42t-177.5 -16q-113 0 -177.5 28.5t-91 87t-26.5 155.5v787h125zM1072 1094l-29 -100h-911v46l381 301h41v-278l-98 31h616z
" />
    <glyph glyph-name="Utilde" unicode="&#x168;" 
d="M355 46.5q-92 65.5 -128 170.5t-36 241v1002h126v-923q0 -152 17 -241.5t88 -148t221 -58.5q78 0 130 15t81 43q32 30 50.5 84t18.5 153v1076h126v-1019q0 -178 -55 -279t-151.5 -141t-236.5 -40q-159 0 -251 65.5zM540.5 1881.5q32.5 -12.5 55 -29.5t53.5 -46
q36 -33 60.5 -48.5t55.5 -15.5q44 0 73.5 34.5t43.5 98.5l90 -26q-15 -100 -67 -153t-134 -53q-40 0 -72.5 12.5t-55.5 30t-52 45.5q-37 33 -60.5 48.5t-54.5 15.5q-44 0 -74 -34.5t-44 -98.5l-90 26q15 100 66.5 153t133.5 53q40 0 72.5 -12.5z" />
    <glyph glyph-name="utilde" unicode="&#x169;" 
d="M896 1000h124v-1001h-117v125l-7 14v862zM347 1000v-713q0 -74 24.5 -119t68 -65t103.5 -20q83 0 183 34.5t211 97.5v-100h-40q-100 -65 -201 -101.5t-200 -36.5q-132 0 -201.5 66t-70.5 185l-4 772h127zM539 1548.5q34 -17.5 58.5 -42t57.5 -63.5q38 -45 62 -65.5
t53 -20.5q43 0 70 50t42 136l90 -32q-10 -82 -36.5 -139t-67.5 -86.5t-93 -29.5q-41 0 -74.5 17.5t-58 41.5t-57.5 64q-37 45 -61 65.5t-53 20.5q-44 0 -71 -50t-42 -136l-90 32q10 82 36 139t67 86.5t93 29.5q41 0 75 -17.5z" />
    <glyph glyph-name="Umacron" unicode="&#x16a;" 
d="M355 46.5q-92 65.5 -128 170.5t-36 241v1002h126v-923q0 -152 17 -241.5t88 -148t221 -58.5q78 0 130 15t81 43q32 30 50.5 84t18.5 153v1076h126v-1019q0 -178 -55 -279t-151.5 -141t-236.5 -40q-159 0 -251 65.5zM927 1731h-614v100h614v-100z" />
    <glyph glyph-name="umacron" unicode="&#x16b;" 
d="M896 1000h124v-1001h-117v125l-7 14v862zM347 1000v-713q0 -74 24.5 -119t68 -65t103.5 -20q83 0 183 34.5t211 97.5v-100h-40q-100 -65 -201 -101.5t-200 -36.5q-132 0 -201.5 66t-70.5 185l-4 772h127zM927 1339h-614v100h614v-100z" />
    <glyph glyph-name="Ubreve" unicode="&#x16c;" 
d="M355 46.5q-92 65.5 -128 170.5t-36 241v1002h126v-923q0 -152 17 -241.5t88 -148t221 -58.5q78 0 130 15t81 43q32 30 50.5 84t18.5 153v1076h126v-1019q0 -178 -55 -279t-151.5 -141t-236.5 -40q-159 0 -251 65.5zM486.5 1767q43.5 -45 133.5 -45t133.5 45t43.5 116h90
q5 -71 -24 -125t-91 -84.5t-152 -30.5t-152 30.5t-91 84.5t-24 125h90q0 -71 43.5 -116z" />
    <glyph glyph-name="ubreve" unicode="&#x16d;" 
d="M896 1000h124v-1001h-117v125l-7 14v862zM347 1000v-713q0 -74 24.5 -119t68 -65t103.5 -20q83 0 183 34.5t211 97.5v-100h-40q-100 -65 -201 -101.5t-200 -36.5q-132 0 -201.5 66t-70.5 185l-4 772h127zM485 1424.5q42 -59.5 135 -59.5t135 59.5t42 172.5h90
q7 -159 -61 -244.5t-206 -85.5t-206 85.5t-61 244.5h90q0 -113 42 -172.5z" />
    <glyph glyph-name="Uring" unicode="&#x16e;" 
d="M355 46.5q-92 65.5 -128 170.5t-36 241v1002h126v-923q0 -152 17 -241.5t88 -148t221 -58.5q78 0 130 15t81 43q32 30 50.5 84t18.5 153v1076h126v-1019q0 -178 -55 -279t-151.5 -141t-236.5 -40q-159 0 -251 65.5zM507.5 1468q-49.5 29 -77.5 80t-28 115t28 114.5
t77.5 79.5t112.5 29t112.5 -29t77.5 -79.5t28 -114.5t-28 -115t-77.5 -80t-112.5 -29t-112.5 29zM719.5 1561q37.5 40 37.5 102t-37.5 101.5t-99.5 39.5t-100 -39.5t-38 -101.5t38 -102t100 -40t99.5 40z" />
    <glyph glyph-name="uring" unicode="&#x16f;" 
d="M896 1000h124v-1001h-117v125l-7 14v862zM347 1000v-713q0 -74 24.5 -119t68 -65t103.5 -20q83 0 183 34.5t211 97.5v-100h-40q-100 -65 -201 -101.5t-200 -36.5q-132 0 -201.5 66t-70.5 185l-4 772h127zM507.5 1244q-49.5 29 -77.5 80t-28 115t28 114.5t77.5 79.5
t112.5 29t112.5 -29t77.5 -79.5t28 -114.5t-28 -115t-77.5 -80t-112.5 -29t-112.5 29zM719.5 1337q37.5 40 37.5 102t-37.5 101.5t-99.5 39.5t-100 -39.5t-38 -101.5t38 -102t100 -40t99.5 40z" />
    <glyph glyph-name="Uhungarumlaut" unicode="&#x170;" 
d="M355 46.5q-92 65.5 -128 170.5t-36 241v1002h126v-923q0 -152 17 -241.5t88 -148t221 -58.5q78 0 130 15t81 43q32 30 50.5 84t18.5 153v1076h126v-1019q0 -178 -55 -279t-151.5 -141t-236.5 -40q-159 0 -251 65.5zM528 1883h129l-175 -233h-101zM889 1883h130l-176 -233
h-100z" />
    <glyph glyph-name="uhungarumlaut" unicode="&#x171;" 
d="M896 1000h124v-1001h-117v125l-7 14v862zM347 1000v-713q0 -74 24.5 -119t68 -65t103.5 -20q83 0 183 34.5t211 97.5v-100h-40q-100 -65 -201 -101.5t-200 -36.5q-132 0 -201.5 66t-70.5 185l-4 772h127zM528 1597h129l-175 -323h-101zM889 1597h130l-176 -323h-100z" />
    <glyph glyph-name="Uogonek" unicode="&#x172;" 
d="M355 46.5q-92 65.5 -128 170.5t-36 241v1002h126v-923q0 -152 17 -241.5t88 -148t221 -58.5q78 0 130 15t81 43q32 30 50.5 84t18.5 153v1076h126v-1019q0 -178 -55 -279t-151.5 -141t-236.5 -40q-159 0 -251 65.5zM674.5 -122q-32.5 -54 -32.5 -96q0 -37 25.5 -56
t83.5 -19h29v-107h-54q-104 0 -147 43t-43 109q0 70 44.5 135.5t141.5 149.5l58 -37q-73 -68 -105.5 -122z" />
    <glyph glyph-name="uogonek" unicode="&#x173;" 
d="M896 1000h124v-1001h-117v125l-7 14v862zM347 1000v-713q0 -74 24.5 -119t68 -65t103.5 -20q83 0 183 34.5t211 97.5v-100h-40q-100 -65 -201 -101.5t-200 -36.5q-132 0 -201.5 66t-70.5 185l-4 772h127zM914.5 -122q-32.5 -54 -32.5 -96q0 -37 25.5 -56t83.5 -19h29
v-107h-54q-104 0 -147 43t-43 109q0 70 44.5 135.5t141.5 149.5l58 -37q-73 -68 -105.5 -122z" />
    <glyph glyph-name="Wcircumflex" unicode="&#x174;" 
d="M727.5 447q-41.5 220 -82.5 484l-12 74h-14q-7 -40 -14 -81q-47 -271 -90 -485.5t-107 -437.5h-98q-115 352 -180.5 724t-93.5 735h131q22 -283 73.5 -611t119.5 -610h13q45 177 87 393.5t94 510.5l13 73h125q9 -52 18 -105q47 -276 87 -488.5t82 -383.5h12
q66 279 116.5 607t72.5 614h124q-29 -368 -93 -738.5t-178 -720.5h-102q-62 226 -103.5 446zM562 1883h116l264 -233h-131l-219 204h56l-219 -204h-131z" />
    <glyph glyph-name="wcircumflex" unicode="&#x175;" 
d="M715.5 356.5q-52.5 175.5 -86.5 321.5h-14q-91 -361 -219 -677h-96q-113 256 -179 500t-91 499h125q21 -223 71 -436.5t121 -399.5h13q51 133 105.5 310.5t96.5 335.5l6 23h123l15 -59q39 -149 88 -316.5t94 -293.5h12q72 194 123.5 406t72.5 430h114q-25 -257 -92 -501
t-184 -498h-97q-69 180 -121.5 355.5zM572 1597h96l274 -323h-121l-229 288h56l-229 -288h-121z" />
    <glyph glyph-name="Ycircumflex" unicode="&#x176;" 
d="M557 0v765h126v-765h-126zM386 1116q96 -167 229 -326h13q133 159 229 326t154 344h127q-69 -205 -186 -408.5t-280 -388.5h-106q-163 185 -280 388.5t-186 408.5h132q58 -177 154 -344zM562 1883h116l264 -233h-131l-219 204h56l-219 -204h-131z" />
    <glyph glyph-name="ycircumflex" unicode="&#x177;" 
d="M405 531q98 -223 226 -443h16q124 227 211 446.5t150 465.5h128q-57 -217 -157 -459t-207 -448l-58 -111q-61 -116 -131 -204t-168.5 -144.5t-225.5 -56.5q-56 0 -124 10l-28 116q83 -16 157 -16q91 0 158.5 30.5t110.5 76t74 100.5l53 94l20 -34l-17 -44
q-103 171 -189.5 343t-160.5 359t-132 388h130q66 -246 164 -469zM572 1597h96l274 -323h-121l-229 288h56l-229 -288h-121z" />
    <glyph glyph-name="Ydieresis" unicode="&#x178;" 
d="M557 0v765h126v-765h-126zM386 1116q96 -167 229 -326h13q133 159 229 326t154 344h127q-69 -205 -186 -408.5t-280 -388.5h-106q-163 185 -280 388.5t-186 408.5h132q58 -177 154 -344zM298.5 1689q-28.5 26 -28.5 72t28.5 72t75.5 26q46 0 74.5 -26t28.5 -72t-28.5 -72
t-74.5 -26q-47 0 -75.5 26zM791.5 1689q-28.5 26 -28.5 72t28.5 72t75.5 26q46 0 74.5 -26t28.5 -72t-28.5 -72t-74.5 -26q-47 0 -75.5 26z" />
    <glyph glyph-name="Zacute" unicode="&#x179;" 
d="M1012 1460l15 -79l-727 -1313l-27 43h819l-37 -110h-869l-13 82l713 1287l16 -21h-747l38 110zM665 1650l253 233h-140l-222 -233h109z" />
    <glyph glyph-name="zacute" unicode="&#x17a;" 
d="M982 1003l15 -72l-693 -870l-21 43h779l-37 -103h-849l-13 75l679 844l16 -21h-693l38 103zM665 1274l253 323h-140l-222 -323h109z" />
    <glyph glyph-name="Zdotaccent" unicode="&#x17b;" 
d="M1012 1460l15 -79l-727 -1313l-27 43h819l-37 -110h-869l-13 82l713 1287l16 -21h-747l38 110zM543.5 1689q-29.5 26 -29.5 72t29.5 72t76.5 26t76.5 -26t29.5 -72t-29.5 -72t-76.5 -26t-76.5 26z" />
    <glyph glyph-name="zdotaccent" unicode="&#x17c;" 
d="M982 1003l15 -72l-693 -870l-21 43h779l-37 -103h-849l-13 75l679 844l16 -21h-693l38 103zM565 1324.5q-24 11.5 -37.5 34t-13.5 52.5q0 46 29.5 72t76.5 26t76.5 -26t29.5 -72t-29.5 -72t-76.5 -26q-31 0 -55 11.5z" />
    <glyph glyph-name="Zcaron" unicode="&#x17d;" 
d="M1012 1460l15 -79l-727 -1313l-27 43h819l-37 -110h-869l-13 82l713 1287l16 -21h-747l38 110zM562 1650h116l264 233h-131l-191 -178l-191 178h-131z" />
    <glyph glyph-name="zcaron" unicode="&#x17e;" 
d="M982 1003l15 -72l-693 -870l-21 43h779l-37 -103h-849l-13 75l679 844l16 -21h-693l38 103zM572 1274h96l274 323h-121l-201 -253l-201 253h-121z" />
    <glyph glyph-name="uni018F" unicode="&#x18f;" 
d="M324 87.5q-104 106.5 -145.5 275.5t-41.5 380h900v-110h-831l73 53q5 -197 39 -330t110 -206t202 -73q63 0 113.5 21.5t86.5 56.5q29 29 57.5 94t50.5 202t22 353q0 199 -39.5 319t-144 182t-298.5 62q-86 0 -163 -16t-146 -41l12 110q67 26 149.5 44.5t180.5 18.5
q208 0 336.5 -71t190 -225t61.5 -407q0 -264 -60 -443t-170.5 -267.5t-262.5 -88.5q-178 0 -282 106.5z" />
    <glyph glyph-name="florin" unicode="&#x192;" 
d="M283 838v-100h749v100h-749zM814 1457.5q-56 -26.5 -97.5 -98.5t-60.5 -202l-179 -1220q-15 -103 -40 -159t-61.5 -77.5t-91.5 -21.5q-26 0 -47.5 4.5t-46.5 15.5l-20 -94q30 -16 59 -22.5t67 -6.5q74 0 130 26.5t97.5 98.5t60.5 202l179 1220q15 103 40 159t61.5 77.5
t91.5 21.5q26 0 47.5 -4.5t46.5 -15.5l20 94q-30 16 -59 22.5t-67 6.5q-74 0 -130 -26.5z" />
    <glyph glyph-name="uni019D" unicode="&#x19d;" 
d="M-48 -314l-22 114q55 -25 91 -36.5t70 -11.5q20 0 42 4.5t38 17.5q18 14 25.5 38.5t9 56.5t1.5 100v31h120v-36q0 -118 -36.5 -188t-90.5 -98.5t-112 -28.5q-66 0 -136 37zM207 1460h150l544 -1212h12v1213h120v-1461h-151l-543 1248h-12v-1248h-120v1460z" />
    <glyph glyph-name="Gcaron" unicode="&#x1e6;" 
d="M941 1354.5q-80 13.5 -172 13.5q-66 0 -121 -9t-99.5 -25.5t-79.5 -40.5q-80 -54 -139.5 -178.5t-59.5 -383.5q0 -228 62.5 -373.5t171 -212.5t249.5 -67q120 0 259 33l-42 -33v606l67 -51h-421l20 110h460l1 -708q-84 -26 -174 -42.5t-181 -16.5q-184 0 -318 79.5
t-207 242.5t-73 409q0 232 67.5 405.5t216 272t382.5 98.5q68 0 135.5 -9t135.5 -28l18 -125q-78 20 -158 33.5zM682 1650h116l264 233h-131l-191 -178l-191 178h-131z" />
    <glyph glyph-name="gcaron" unicode="&#x1e7;" 
d="M360.5 393.5q-90.5 42.5 -142 117.5t-51.5 167t50.5 171t147.5 127t231 48q91 0 165 -25t137 -78l8 -29q3 -3 6 -7q32 -40 49 -85.5t17 -100.5q0 -100 -54 -179.5t-148 -124t-211 -44.5q-114 0 -204.5 42.5zM970.5 1009.5q67.5 23.5 136.5 25.5l27 -122l-299 -14l18 55
q50 32 117.5 55.5zM504 418l-68 -185q-5 -14 -5 -25t7.5 -19.5t23.5 -12.5l6 -1l440 -77l8 -1q62 -12 110 -35t78 -65t30 -106q0 -96 -74.5 -168t-207.5 -111.5t-305 -39.5q-136 0 -239.5 26.5t-161 79.5t-57.5 130q0 63 43 113.5t145 116.5l114 74l50 -41q-31 -13 -63 -30
q-49 -27 -87 -60.5t-60.5 -71.5t-22.5 -78q0 -53 40.5 -90.5t120.5 -57t195 -19.5q119 0 222 21t167 66.5t64 113.5q0 53 -43 85.5t-130 46.5l-359 56q-65 10 -102 23t-53.5 31.5t-16.5 46.5q0 30 19 71t52 98q20 35 22 40l37 72zM778.5 852.5q-80.5 67.5 -241.5 67.5
q-74 0 -120 -13t-72 -34q-25 -20 -39.5 -59t-14.5 -100q0 -130 80.5 -197.5t241.5 -67.5q74 0 120 13t72 34q25 20 39.5 59t14.5 100q0 130 -80.5 197.5zM572 1274h96l274 323h-121l-201 -253l-201 253h-121z" />
    <glyph glyph-name="uni01EA" unicode="&#x1ea;" 
d="M324 87q-104 106 -145.5 274.5t-41.5 376.5q0 236 61 402.5t173 252t262 85.5q178 0 282.5 -106t146 -274.5t41.5 -376.5q0 -236 -61.5 -402.5t-173.5 -252t-262 -85.5q-178 0 -282 106zM743.5 98.5q50.5 21.5 86.5 56.5q28 28 57 87t51 169.5t22 272.5q0 223 -31 373.5
t-108.5 233t-212.5 82.5q-63 0 -113.5 -21t-86.5 -56q-48 -48 -89 -173t-41 -356q0 -223 31 -373.5t108.5 -233.5t212.5 -83q63 0 113.5 21.5zM632.5 -122q-32.5 -54 -32.5 -96q0 -37 25.5 -56t83.5 -19h29v-107h-54q-104 0 -147 43t-43 109q0 70 44.5 135.5t141.5 149.5
l58 -37q-73 -68 -105.5 -122z" />
    <glyph glyph-name="uni01EB" unicode="&#x1eb;" 
d="M363 39.5q-107 63.5 -165 181.5t-58 279q0 174 68 292t179.5 175t243.5 57q140 0 246 -63.5t164.5 -182t58.5 -280.5q0 -173 -66.5 -290.5t-177 -174.5t-244.5 -57q-142 0 -249 63.5zM755 100.5q51 12.5 87 37.5q51 35 86 111t35 240q0 114 -25.5 206.5t-106 156
t-231.5 63.5q-67 0 -117 -12t-87 -38q-33 -23 -58.5 -58t-43.5 -106t-18 -186t25.5 -207.5t105.5 -156t231 -63.5q66 0 117 12.5zM672.5 -122q-32.5 -54 -32.5 -96q0 -37 25.5 -56t83.5 -19h29v-107h-54q-104 0 -147 43t-43 109q0 70 44.5 135.5t141.5 149.5l58 -37
q-73 -68 -105.5 -122z" />
    <glyph glyph-name="AEacute" unicode="&#x1fc;" 
d="M644 0v1460h126v-1460h-126zM555 1350l-359 -1350h-124l399 1460h213v-110h-129zM276 552h453v-105h-453v105zM1160 0h-434v110h454zM1047 694h-321v105h321v-105zM726 1350v110h434l20 -110h-454zM825 1650l253 233h-140l-222 -233h109z" />
    <glyph glyph-name="aeacute" unicode="&#x1fd;" 
d="M577 552v158q0 72 -25.5 118t-66 66t-87.5 20q-54 0 -133.5 -24.5t-162.5 -69.5l35 129q63 33 132.5 53.5t133.5 20.5q77 0 140.5 -32t101.5 -95.5t38 -153.5v-190h-106zM727 39q-71 63 -108 182.5t-37 285.5l22 32v94q0 132 44 220t113.5 129.5t145.5 41.5
q91 0 149 -47.5t85 -132.5t27 -201v-107h-544v87h455l-33 -58q7 47 7 99q0 125 -45 193.5t-121 68.5q-31 0 -60.5 -11.5t-50.5 -35.5q-34 -40 -56.5 -129.5t-22.5 -240.5q0 -116 25.5 -210.5t77 -150.5t126.5 -56q46 0 97.5 15t104.5 41l1 1l-11 -110q-48 -26 -105.5 -44.5
t-114.5 -18.5q-100 0 -171 63zM195.5 15q-61.5 39 -93 103.5t-31.5 140.5q0 138 99.5 211t224 95t241.5 22v-103h-20q-73 -1 -157 -11.5t-149 -33.5q-71 -25 -97 -66t-26 -95q0 -55 22.5 -100.5t64.5 -72t100 -26.5q67 0 151 38.5t158 108.5v-115h-45q-71 -75 -148 -105
t-147 -30q-86 0 -147.5 39zM665 1274l253 323h-140l-222 -323h109z" />
    <glyph glyph-name="Oslashacute" unicode="&#x1fe;" 
d="M958 1734l117 -47l-155 -383l-106 74zM824 1392l96 -64l-499 -1249l-92 74zM283 -273l-117 47l163 403l102 -84zM324 87q-104 106 -145.5 274.5t-41.5 376.5q0 236 61 402.5t173 252t262 85.5q178 0 282.5 -106t146 -274.5t41.5 -376.5q0 -236 -61.5 -402.5t-173.5 -252
t-262 -85.5q-178 0 -282 106zM743.5 98.5q50.5 21.5 86.5 56.5q28 28 57 87t51 169.5t22 272.5q0 223 -31 373.5t-108.5 233t-212.5 82.5q-63 0 -113.5 -21t-86.5 -56q-48 -48 -89 -173t-41 -356q0 -223 31 -373.5t108.5 -233.5t212.5 -83q63 0 113.5 21.5zM635 1650
l253 233h-140l-222 -233h109z" />
    <glyph glyph-name="oslashacute" unicode="&#x1ff;" 
d="M992 1213l105 -66l-185 -297l-95 82zM828 942l95 -62l-504 -812l-104 50zM248 -213l-105 66l184 295l102 -71zM363 39.5q-107 63.5 -165 181.5t-58 279q0 174 68 292t179.5 175t243.5 57q140 0 246 -63.5t164.5 -182t58.5 -280.5q0 -173 -66.5 -290.5t-177 -174.5
t-244.5 -57q-142 0 -249 63.5zM755 100.5q51 12.5 87 37.5q51 35 86 111t35 240q0 114 -25.5 206.5t-106 156t-231.5 63.5q-67 0 -117 -12t-87 -38q-33 -23 -58.5 -58t-43.5 -106t-18 -186t25.5 -207.5t105.5 -156t231 -63.5q66 0 117 12.5zM665 1274l253 323h-140
l-222 -323h109z" />
    <glyph glyph-name="uni0218" unicode="&#x218;" 
d="M676 1368q-116 0 -191 -19.5t-111 -48.5t-54.5 -63.5t-18.5 -92.5q0 -64 34.5 -116.5t100.5 -99t172 -98.5q20 -9 39 -19l46 -22q151 -72 226 -118t120 -113.5t45 -170.5q0 -122 -64.5 -214t-184 -142.5t-279.5 -50.5q-111 0 -210 23t-194 62v128q100 -44 214 -72.5
t229 -28.5t180 21t102 52q35 29 58 73.5t23 111.5q0 78 -35.5 129t-98.5 88t-194 99l-63 29q-133 63 -214 121.5t-122.5 130t-41.5 167.5q0 136 74 219t195 118t273 35q73 0 149 -9t154 -27l11 -128q-201 46 -369 46zM559 -509.5q-27 12.5 -41.5 36.5t-14.5 56q0 49 33 77
t82 28q55 0 91.5 -36t36.5 -105q0 -87 -57 -165.5t-141 -128.5l-55 66q41 29 71.5 56.5t53 59.5t33.5 70l26 -16q-24 -11 -55 -11q-36 0 -63 12.5z" />
    <glyph glyph-name="uni0219" unicode="&#x219;" 
d="M880 1012q73 -10 142 -29l5 -120q-81 21 -175.5 34.5t-200.5 13.5q-94 0 -166.5 -13t-118.5 -45q-28 -19 -43 -43.5t-15 -50.5q0 -39 34 -72t102 -62t175 -56l66 -16q132 -31 209.5 -59.5t125.5 -80t48 -135.5q0 -95 -62.5 -162t-176.5 -101t-268 -34q-109 0 -204.5 16.5
t-178.5 44.5l-8 125q100 -32 218 -52t259 -20q76 0 137.5 9t105.5 35l3 2q28 18 43 45.5t15 64.5q0 58 -40.5 94t-113 59.5t-224.5 60.5q-5 2 -11 3q-123 30 -200.5 65.5t-117 85t-39.5 118.5q0 100 75 164t193.5 92.5t253.5 28.5q80 0 153 -10zM559 -509.5
q-27 12.5 -41.5 36.5t-14.5 56q0 49 33 77t82 28q55 0 91.5 -36t36.5 -105q0 -87 -57 -165.5t-141 -128.5l-55 66q41 29 71.5 56.5t53 59.5t33.5 70l26 -16q-24 -11 -55 -11q-36 0 -63 12.5z" />
    <glyph glyph-name="uni021A" unicode="&#x21a;" 
d="M547 0v1460h126v-1460h-126zM132 1460h976l20 -110h-1016zM550 -509.5q-27 12.5 -41.5 36.5t-14.5 56q0 49 33 77t82 28q55 0 91.5 -36t36.5 -105q0 -87 -57 -165.5t-141 -128.5l-55 66q41 29 71.5 56.5t53 59.5t33.5 70l26 -16q-24 -11 -55 -11q-36 0 -63 12.5z" />
    <glyph glyph-name="uni021B" unicode="&#x21b;" 
d="M549 941v-696q0 -56 20 -90t68.5 -51t133.5 -17q76 0 156.5 15.5t146.5 36.5l-19 -104q-76 -26 -158.5 -42t-177.5 -16q-113 0 -177.5 28.5t-91 87t-26.5 155.5v693h125zM1072 1000l-29 -100h-911v46l381 301h41v-278l-98 31h616zM672 -509.5q-27 12.5 -41.5 36.5
t-14.5 56q0 49 33 77t82 28q55 0 91.5 -36t36.5 -105q0 -87 -57 -165.5t-141 -128.5l-55 66q41 29 71.5 56.5t53 59.5t33.5 70l26 -16q-24 -11 -55 -11q-36 0 -63 12.5z" />
    <glyph glyph-name="uni0232" unicode="&#x232;" 
d="M557 0v765h126v-765h-126zM386 1116q96 -167 229 -326h13q133 159 229 326t154 344h127q-69 -205 -186 -408.5t-280 -388.5h-106q-163 185 -280 388.5t-186 408.5h132q58 -177 154 -344zM927 1731h-614v100h614v-100z" />
    <glyph glyph-name="uni0233" unicode="&#x233;" 
d="M405 531q98 -223 226 -443h16q124 227 211 446.5t150 465.5h128q-57 -217 -157 -459t-207 -448l-58 -111q-61 -116 -131 -204t-168.5 -144.5t-225.5 -56.5q-56 0 -124 10l-28 116q83 -16 157 -16q91 0 158.5 30.5t110.5 76t74 100.5l53 94l20 -34l-17 -44
q-103 171 -189.5 343t-160.5 359t-132 388h130q66 -246 164 -469zM927 1339h-614v100h614v-100z" />
    <glyph glyph-name="uni0237" unicode="&#x237;" 
d="M852 1000v-982q0 -177 -59 -274.5t-163.5 -133.5t-261.5 -36q-71 0 -127 6t-109 19l-24 117q65 -19 133.5 -29.5t146.5 -10.5q110 0 176 19t97 47q30 26 48.5 77.5t18.5 140.5v986l45 -45h-599l20 99h658z" />
    <glyph glyph-name="uni0259" unicode="&#x259;" 
d="M907.5 259.5q46.5 86.5 46.5 231.5q0 119 -39.5 212t-134.5 149t-254 56q-86 0 -163 -16t-146 -41l12 110q67 26 149.5 44.5t180.5 18.5q166 0 280.5 -61.5t173 -174t58.5 -265.5q0 -172 -70.5 -295.5t-190 -187.5t-266.5 -64q-136 0 -219.5 52.5t-119 138t-35.5 190.5
v107h797v-87h-705l40 58q-4 -23 -6.5 -47t-2.5 -52q0 -86 30.5 -144t94 -88t162.5 -30q72 0 128 15.5t92 40.5q61 43 107.5 129.5z" />
    <glyph glyph-name="uni0272" unicode="&#x272;" 
d="M-35 -314l-22 114q55 -25 91 -36.5t70 -11.5q20 0 42 4.5t38 17.5q18 14 25.5 39t9 59.5t1.5 111.5v36h124v-56q0 -118 -37 -188.5t-91.5 -98.5t-114.5 -28q-66 0 -136 37zM344 0h-124v1001h117v-125l7 -14v-862zM893 0v713q0 74 -24.5 119t-68 65t-103.5 20
q-83 0 -183 -34.5t-211 -97.5v100h40q100 65 201 101.5t200 36.5q132 0 201.5 -66t70.5 -185l4 -772h-127z" />
    <glyph glyph-name="circumflex" unicode="&#x2c6;" 
d="M572 1597h96l274 -323h-121l-229 288h56l-229 -288h-121z" />
    <glyph glyph-name="caron" unicode="&#x2c7;" 
d="M572 1274h96l274 323h-121l-201 -253l-201 253h-121z" />
    <glyph glyph-name="breve" unicode="&#x2d8;" 
d="M485 1424.5q42 -59.5 135 -59.5t135 59.5t42 172.5h90q7 -159 -61 -244.5t-206 -85.5t-206 85.5t-61 244.5h90q0 -113 42 -172.5z" />
    <glyph glyph-name="dotaccent" unicode="&#x2d9;" 
d="M565 1324.5q-24 11.5 -37.5 34t-13.5 52.5q0 46 29.5 72t76.5 26t76.5 -26t29.5 -72t-29.5 -72t-76.5 -26q-31 0 -55 11.5z" />
    <glyph glyph-name="ring" unicode="&#x2da;" 
d="M507.5 1244q-49.5 29 -77.5 80t-28 115t28 114.5t77.5 79.5t112.5 29t112.5 -29t77.5 -79.5t28 -114.5t-28 -115t-77.5 -80t-112.5 -29t-112.5 29zM719.5 1337q37.5 40 37.5 102t-37.5 101.5t-99.5 39.5t-100 -39.5t-38 -101.5t38 -102t100 -40t99.5 40z" />
    <glyph glyph-name="ogonek" unicode="&#x2db;" 
d="M514.5 -122q-32.5 -54 -32.5 -96q0 -37 25.5 -56t83.5 -19h29v-107h-54q-104 0 -147 43t-43 109q0 70 44.5 135.5t141.5 149.5l58 -37q-73 -68 -105.5 -122z" />
    <glyph glyph-name="tilde" unicode="&#x2dc;" 
d="M539 1548.5q34 -17.5 58.5 -42t57.5 -63.5q38 -45 62 -65.5t53 -20.5q43 0 70 50t42 136l90 -32q-10 -82 -36.5 -139t-67.5 -86.5t-93 -29.5q-41 0 -74.5 17.5t-58 41.5t-57.5 64q-37 45 -61 65.5t-53 20.5q-44 0 -71 -50t-42 -136l-90 32q10 82 36 139t67 86.5t93 29.5
q41 0 75 -17.5z" />
    <glyph glyph-name="hungarumlaut" unicode="&#x2dd;" 
d="M528 1597h129l-175 -323h-101zM889 1597h130l-176 -323h-100z" />
    <glyph glyph-name="gravecomb" unicode="&#x300;" horiz-adv-x="0" 
d="M575 1274l-253 323h140l222 -323h-109z" />
    <glyph glyph-name="acutecomb" unicode="&#x301;" horiz-adv-x="0" 
d="M665 1274l253 323h-140l-222 -323h109z" />
    <glyph glyph-name="uni0302" unicode="&#x302;" horiz-adv-x="0" 
d="M572 1597h96l274 -323h-121l-229 288h56l-229 -288h-121z" />
    <glyph glyph-name="tildecomb" unicode="&#x303;" horiz-adv-x="0" 
d="M539 1548.5q34 -17.5 58.5 -42t57.5 -63.5q38 -45 62 -65.5t53 -20.5q43 0 70 50t42 136l90 -32q-10 -82 -36.5 -139t-67.5 -86.5t-93 -29.5q-41 0 -74.5 17.5t-58 41.5t-57.5 64q-37 45 -61 65.5t-53 20.5q-44 0 -71 -50t-42 -136l-90 32q10 82 36 139t67 86.5t93 29.5
q41 0 75 -17.5z" />
    <glyph glyph-name="uni0304" unicode="&#x304;" horiz-adv-x="0" 
d="M927 1339h-614v100h614v-100z" />
    <glyph glyph-name="uni0306" unicode="&#x306;" horiz-adv-x="0" 
d="M485 1424.5q42 -59.5 135 -59.5t135 59.5t42 172.5h90q7 -159 -61 -244.5t-206 -85.5t-206 85.5t-61 244.5h90q0 -113 42 -172.5z" />
    <glyph glyph-name="uni0307" unicode="&#x307;" horiz-adv-x="0" 
d="M565 1324.5q-24 11.5 -37.5 34t-13.5 52.5q0 46 29.5 72t76.5 26t76.5 -26t29.5 -72t-29.5 -72t-76.5 -26q-31 0 -55 11.5z" />
    <glyph glyph-name="uni0308" unicode="&#x308;" horiz-adv-x="0" 
d="M298.5 1339q-28.5 26 -28.5 72t28.5 72t75.5 26q46 0 74.5 -26t28.5 -72t-28.5 -72t-74.5 -26q-47 0 -75.5 26zM791.5 1339q-28.5 26 -28.5 72t28.5 72t75.5 26q46 0 74.5 -26t28.5 -72t-28.5 -72t-74.5 -26q-47 0 -75.5 26z" />
    <glyph glyph-name="uni030A" unicode="&#x30a;" horiz-adv-x="0" 
d="M507.5 1244q-49.5 29 -77.5 80t-28 115t28 114.5t77.5 79.5t112.5 29t112.5 -29t77.5 -79.5t28 -114.5t-28 -115t-77.5 -80t-112.5 -29t-112.5 29zM719.5 1337q37.5 40 37.5 102t-37.5 101.5t-99.5 39.5t-100 -39.5t-38 -101.5t38 -102t100 -40t99.5 40z" />
    <glyph glyph-name="uni030B" unicode="&#x30b;" horiz-adv-x="0" 
d="M528 1597h129l-175 -323h-101zM889 1597h130l-176 -323h-100z" />
    <glyph glyph-name="uni030C" unicode="&#x30c;" horiz-adv-x="0" 
d="M572 1274h96l274 323h-121l-201 -253l-201 253h-121z" />
    <glyph glyph-name="dotbelowcomb" unicode="&#x323;" horiz-adv-x="0" 
d="M565 -497.5q-24 11.5 -37.5 34t-13.5 52.5q0 46 29.5 72t76.5 26t76.5 -26t29.5 -72t-29.5 -72t-76.5 -26q-31 0 -55 11.5z" />
    <glyph glyph-name="uni0326" unicode="&#x326;" horiz-adv-x="0" 
d="M559 -509.5q-27 12.5 -41.5 36.5t-14.5 56q0 49 33 77t82 28q55 0 91.5 -36t36.5 -105q0 -87 -57 -165.5t-141 -128.5l-55 66q41 29 71.5 56.5t53 59.5t33.5 70l26 -16q-24 -11 -55 -11q-36 0 -63 12.5z" />
    <glyph glyph-name="uni0327" unicode="&#x327;" horiz-adv-x="0" 
d="M748.5 -211.5q44.5 -22.5 68 -63.5t23.5 -105q0 -63 -24.5 -103t-82 -61t-155.5 -21h-64v94h39q100 0 139 25t39 75q0 54 -39 81t-118 35v303h90l4 -276l-31 49q67 -10 111.5 -32.5z" />
    <glyph glyph-name="uni0328" unicode="&#x328;" horiz-adv-x="0" 
d="M514.5 -122q-32.5 -54 -32.5 -96q0 -37 25.5 -56t83.5 -19h29v-107h-54q-104 0 -147 43t-43 109q0 70 44.5 135.5t141.5 149.5l58 -37q-73 -68 -105.5 -122z" />
    <glyph glyph-name="uni03A9" unicode="&#x3a9;" 
d="M417 1315q-85 -52 -132.5 -165.5t-47.5 -292.5q0 -138 28.5 -245.5t80 -193t129.5 -169.5v-249h-347v106h287v91q-87 70 -156.5 160t-114 220t-44.5 299q0 201 65 337.5t182 203.5t273 67t273 -67t182 -203.5t65 -337.5q0 -169 -44.5 -299t-114 -220t-156.5 -160v-91h287
v-106h-347v249q78 84 129.5 169.5t80 193t28.5 245.5q0 179 -47.5 292.5t-132.5 165.5t-203 52t-203 -52z" />
    <glyph glyph-name="Wgrave" unicode="&#x1e80;" 
d="M727.5 447q-41.5 220 -82.5 484l-12 74h-14q-7 -40 -14 -81q-47 -271 -90 -485.5t-107 -437.5h-98q-115 352 -180.5 724t-93.5 735h131q22 -283 73.5 -611t119.5 -610h13q45 177 87 393.5t94 510.5l13 73h125q9 -52 18 -105q47 -276 87 -488.5t82 -383.5h12
q66 279 116.5 607t72.5 614h124q-29 -368 -93 -738.5t-178 -720.5h-102q-62 226 -103.5 446zM575 1650l-253 233h140l222 -233h-109z" />
    <glyph glyph-name="wgrave" unicode="&#x1e81;" 
d="M715.5 356.5q-52.5 175.5 -86.5 321.5h-14q-91 -361 -219 -677h-96q-113 256 -179 500t-91 499h125q21 -223 71 -436.5t121 -399.5h13q51 133 105.5 310.5t96.5 335.5l6 23h123l15 -59q39 -149 88 -316.5t94 -293.5h12q72 194 123.5 406t72.5 430h114q-25 -257 -92 -501
t-184 -498h-97q-69 180 -121.5 355.5zM575 1274l-253 323h140l222 -323h-109z" />
    <glyph glyph-name="Wacute" unicode="&#x1e82;" 
d="M727.5 447q-41.5 220 -82.5 484l-12 74h-14q-7 -40 -14 -81q-47 -271 -90 -485.5t-107 -437.5h-98q-115 352 -180.5 724t-93.5 735h131q22 -283 73.5 -611t119.5 -610h13q45 177 87 393.5t94 510.5l13 73h125q9 -52 18 -105q47 -276 87 -488.5t82 -383.5h12
q66 279 116.5 607t72.5 614h124q-29 -368 -93 -738.5t-178 -720.5h-102q-62 226 -103.5 446zM665 1650l253 233h-140l-222 -233h109z" />
    <glyph glyph-name="wacute" unicode="&#x1e83;" 
d="M715.5 356.5q-52.5 175.5 -86.5 321.5h-14q-91 -361 -219 -677h-96q-113 256 -179 500t-91 499h125q21 -223 71 -436.5t121 -399.5h13q51 133 105.5 310.5t96.5 335.5l6 23h123l15 -59q39 -149 88 -316.5t94 -293.5h12q72 194 123.5 406t72.5 430h114q-25 -257 -92 -501
t-184 -498h-97q-69 180 -121.5 355.5zM665 1274l253 323h-140l-222 -323h109z" />
    <glyph glyph-name="Wdieresis" unicode="&#x1e84;" 
d="M727.5 447q-41.5 220 -82.5 484l-12 74h-14q-7 -40 -14 -81q-47 -271 -90 -485.5t-107 -437.5h-98q-115 352 -180.5 724t-93.5 735h131q22 -283 73.5 -611t119.5 -610h13q45 177 87 393.5t94 510.5l13 73h125q9 -52 18 -105q47 -276 87 -488.5t82 -383.5h12
q66 279 116.5 607t72.5 614h124q-29 -368 -93 -738.5t-178 -720.5h-102q-62 226 -103.5 446zM298.5 1689q-28.5 26 -28.5 72t28.5 72t75.5 26q46 0 74.5 -26t28.5 -72t-28.5 -72t-74.5 -26q-47 0 -75.5 26zM791.5 1689q-28.5 26 -28.5 72t28.5 72t75.5 26q46 0 74.5 -26
t28.5 -72t-28.5 -72t-74.5 -26q-47 0 -75.5 26z" />
    <glyph glyph-name="wdieresis" unicode="&#x1e85;" 
d="M715.5 356.5q-52.5 175.5 -86.5 321.5h-14q-91 -361 -219 -677h-96q-113 256 -179 500t-91 499h125q21 -223 71 -436.5t121 -399.5h13q51 133 105.5 310.5t96.5 335.5l6 23h123l15 -59q39 -149 88 -316.5t94 -293.5h12q72 194 123.5 406t72.5 430h114q-25 -257 -92 -501
t-184 -498h-97q-69 180 -121.5 355.5zM298.5 1339q-28.5 26 -28.5 72t28.5 72t75.5 26q46 0 74.5 -26t28.5 -72t-28.5 -72t-74.5 -26q-47 0 -75.5 26zM791.5 1339q-28.5 26 -28.5 72t28.5 72t75.5 26q46 0 74.5 -26t28.5 -72t-28.5 -72t-74.5 -26q-47 0 -75.5 26z" />
    <glyph glyph-name="uni1E9E" unicode="&#x1e9e;" 
d="M190 0v1460h126v-1460h-126zM536 74l86 7q133 11 234 62t156 131t55 175q0 110 -57 180.5t-133 105t-154 50.5v68l218 516l13 -20h-704v111h835v-83l-245 -565l-14 21q93 -19 174.5 -59t139.5 -118.5t58 -201.5q0 -127 -70 -227t-199 -163t-301 -80l-80 -8z" />
    <glyph glyph-name="uni1EA0" unicode="&#x1ea0;" 
d="M1042 0l-417 1309h-11l-418 -1309h-124l479 1460h138l479 -1460h-126zM286 552h663v-103h-663v103zM565 -497.5q-24 11.5 -37.5 34t-13.5 52.5q0 46 29.5 72t76.5 26t76.5 -26t29.5 -72t-29.5 -72t-76.5 -26q-31 0 -55 11.5z" />
    <glyph glyph-name="uni1EB8" unicode="&#x1eb8;" 
d="M217 0v1460h126v-1460h-126zM1068 0h-766v110h786zM955 694h-653v105h653v-105zM302 1350v110h766l20 -110h-786zM565 -497.5q-24 11.5 -37.5 34t-13.5 52.5q0 46 29.5 72t76.5 26t76.5 -26t29.5 -72t-29.5 -72t-76.5 -26q-31 0 -55 11.5z" />
    <glyph glyph-name="uni1EB9" unicode="&#x1eb9;" 
d="M332.5 740.5q-46.5 -86.5 -46.5 -231.5q0 -119 39.5 -212t134.5 -149t254 -56q86 0 163 16t146 41l-12 -110q-67 -26 -149.5 -44.5t-180.5 -18.5q-166 0 -280.5 61.5t-173 174t-58.5 265.5q0 172 70.5 295.5t190 187.5t266.5 64q136 0 219.5 -52.5t119 -138t35.5 -190.5
v-107h-797v87h705l-40 -58q4 23 6.5 47t2.5 52q0 86 -30.5 144t-94 88t-162.5 30q-72 0 -128 -15.5t-92 -40.5q-61 -43 -107.5 -129.5zM565 -497.5q-24 11.5 -37.5 34t-13.5 52.5q0 46 29.5 72t76.5 26t76.5 -26t29.5 -72t-29.5 -72t-76.5 -26q-31 0 -55 11.5z" />
    <glyph glyph-name="uni1EBC" unicode="&#x1ebc;" 
d="M217 0v1460h126v-1460h-126zM1068 0h-766v110h786zM955 694h-653v105h653v-105zM302 1350v110h766l20 -110h-786zM540.5 1881.5q32.5 -12.5 55 -29.5t53.5 -46q36 -33 60.5 -48.5t55.5 -15.5q44 0 73.5 34.5t43.5 98.5l90 -26q-15 -100 -67 -153t-134 -53
q-40 0 -72.5 12.5t-55.5 30t-52 45.5q-37 33 -60.5 48.5t-54.5 15.5q-44 0 -74 -34.5t-44 -98.5l-90 26q15 100 66.5 153t133.5 53q40 0 72.5 -12.5z" />
    <glyph glyph-name="uni1EBD" unicode="&#x1ebd;" 
d="M332.5 740.5q-46.5 -86.5 -46.5 -231.5q0 -119 39.5 -212t134.5 -149t254 -56q86 0 163 16t146 41l-12 -110q-67 -26 -149.5 -44.5t-180.5 -18.5q-166 0 -280.5 61.5t-173 174t-58.5 265.5q0 172 70.5 295.5t190 187.5t266.5 64q136 0 219.5 -52.5t119 -138t35.5 -190.5
v-107h-797v87h705l-40 -58q4 23 6.5 47t2.5 52q0 86 -30.5 144t-94 88t-162.5 30q-72 0 -128 -15.5t-92 -40.5q-61 -43 -107.5 -129.5zM539 1548.5q34 -17.5 58.5 -42t57.5 -63.5q38 -45 62 -65.5t53 -20.5q43 0 70 50t42 136l90 -32q-10 -82 -36.5 -139t-67.5 -86.5
t-93 -29.5q-41 0 -74.5 17.5t-58 41.5t-57.5 64q-37 45 -61 65.5t-53 20.5q-44 0 -71 -50t-42 -136l-90 32q10 82 36 139t67 86.5t93 29.5q41 0 75 -17.5z" />
    <glyph glyph-name="uni1ECA" unicode="&#x1eca;" 
d="M547 0v1460h126v-1460h-126zM1068 1460l20 -110h-936l20 110h896zM152 110h936l-20 -110h-896zM565 -497.5q-24 11.5 -37.5 34t-13.5 52.5q0 46 29.5 72t76.5 26t76.5 -26t29.5 -72t-29.5 -72t-76.5 -26q-31 0 -55 11.5z" />
    <glyph glyph-name="uni1ECB" unicode="&#x1ecb;" 
d="M671 1000v-1000h-124v946l45 -45h-431l20 99h490zM141 99h956l-20 -99h-916zM523 1324.5q-24 11.5 -37.5 34t-13.5 52.5q0 46 29.5 72t76.5 26t76.5 -26t29.5 -72t-29.5 -72t-76.5 -26q-31 0 -55 11.5zM565 -497.5q-24 11.5 -37.5 34t-13.5 52.5q0 46 29.5 72t76.5 26
t76.5 -26t29.5 -72t-29.5 -72t-76.5 -26q-31 0 -55 11.5z" />
    <glyph glyph-name="uni1ECC" unicode="&#x1ecc;" 
d="M324 87q-104 106 -145.5 274.5t-41.5 376.5q0 236 61 402.5t173 252t262 85.5q178 0 282.5 -106t146 -274.5t41.5 -376.5q0 -236 -61.5 -402.5t-173.5 -252t-262 -85.5q-178 0 -282 106zM743.5 98.5q50.5 21.5 86.5 56.5q28 28 57 87t51 169.5t22 272.5q0 223 -31 373.5
t-108.5 233t-212.5 82.5q-63 0 -113.5 -21t-86.5 -56q-48 -48 -89 -173t-41 -356q0 -223 31 -373.5t108.5 -233.5t212.5 -83q63 0 113.5 21.5zM565 -497.5q-24 11.5 -37.5 34t-13.5 52.5q0 46 29.5 72t76.5 26t76.5 -26t29.5 -72t-29.5 -72t-76.5 -26q-31 0 -55 11.5z" />
    <glyph glyph-name="uni1ECD" unicode="&#x1ecd;" 
d="M363 39.5q-107 63.5 -165 181.5t-58 279q0 174 68 292t179.5 175t243.5 57q140 0 246 -63.5t164.5 -182t58.5 -280.5q0 -173 -66.5 -290.5t-177 -174.5t-244.5 -57q-142 0 -249 63.5zM755 100.5q51 12.5 87 37.5q51 35 86 111t35 240q0 114 -25.5 206.5t-106 156
t-231.5 63.5q-67 0 -117 -12t-87 -38q-33 -23 -58.5 -58t-43.5 -106t-18 -186t25.5 -207.5t105.5 -156t231 -63.5q66 0 117 12.5zM565 -497.5q-24 11.5 -37.5 34t-13.5 52.5q0 46 29.5 72t76.5 26t76.5 -26t29.5 -72t-29.5 -72t-76.5 -26q-31 0 -55 11.5z" />
    <glyph glyph-name="uni1EE4" unicode="&#x1ee4;" 
d="M355 46.5q-92 65.5 -128 170.5t-36 241v1002h126v-923q0 -152 17 -241.5t88 -148t221 -58.5q78 0 130 15t81 43q32 30 50.5 84t18.5 153v1076h126v-1019q0 -178 -55 -279t-151.5 -141t-236.5 -40q-159 0 -251 65.5zM565 -497.5q-24 11.5 -37.5 34t-13.5 52.5
q0 46 29.5 72t76.5 26t76.5 -26t29.5 -72t-29.5 -72t-76.5 -26q-31 0 -55 11.5z" />
    <glyph glyph-name="uni1EE5" unicode="&#x1ee5;" 
d="M896 1000h124v-1001h-117v125l-7 14v862zM347 1000v-713q0 -74 24.5 -119t68 -65t103.5 -20q83 0 183 34.5t211 97.5v-100h-40q-100 -65 -201 -101.5t-200 -36.5q-132 0 -201.5 66t-70.5 185l-4 772h127zM565 -497.5q-24 11.5 -37.5 34t-13.5 52.5q0 46 29.5 72t76.5 26
t76.5 -26t29.5 -72t-29.5 -72t-76.5 -26q-31 0 -55 11.5z" />
    <glyph glyph-name="Ygrave" unicode="&#x1ef2;" 
d="M557 0v765h126v-765h-126zM386 1116q96 -167 229 -326h13q133 159 229 326t154 344h127q-69 -205 -186 -408.5t-280 -388.5h-106q-163 185 -280 388.5t-186 408.5h132q58 -177 154 -344zM575 1650l-253 233h140l222 -233h-109z" />
    <glyph glyph-name="ygrave" unicode="&#x1ef3;" 
d="M405 531q98 -223 226 -443h16q124 227 211 446.5t150 465.5h128q-57 -217 -157 -459t-207 -448l-58 -111q-61 -116 -131 -204t-168.5 -144.5t-225.5 -56.5q-56 0 -124 10l-28 116q83 -16 157 -16q91 0 158.5 30.5t110.5 76t74 100.5l53 94l20 -34l-17 -44
q-103 171 -189.5 343t-160.5 359t-132 388h130q66 -246 164 -469zM575 1274l-253 323h140l222 -323h-109z" />
    <glyph glyph-name="uni1EF8" unicode="&#x1ef8;" 
d="M557 0v765h126v-765h-126zM386 1116q96 -167 229 -326h13q133 159 229 326t154 344h127q-69 -205 -186 -408.5t-280 -388.5h-106q-163 185 -280 388.5t-186 408.5h132q58 -177 154 -344zM540.5 1881.5q32.5 -12.5 55 -29.5t53.5 -46q36 -33 60.5 -48.5t55.5 -15.5
q44 0 73.5 34.5t43.5 98.5l90 -26q-15 -100 -67 -153t-134 -53q-40 0 -72.5 12.5t-55.5 30t-52 45.5q-37 33 -60.5 48.5t-54.5 15.5q-44 0 -74 -34.5t-44 -98.5l-90 26q15 100 66.5 153t133.5 53q40 0 72.5 -12.5z" />
    <glyph glyph-name="uni1EF9" unicode="&#x1ef9;" 
d="M405 531q98 -223 226 -443h16q124 227 211 446.5t150 465.5h128q-57 -217 -157 -459t-207 -448l-58 -111q-61 -116 -131 -204t-168.5 -144.5t-225.5 -56.5q-56 0 -124 10l-28 116q83 -16 157 -16q91 0 158.5 30.5t110.5 76t74 100.5l53 94l20 -34l-17 -44
q-103 171 -189.5 343t-160.5 359t-132 388h130q66 -246 164 -469zM539 1548.5q34 -17.5 58.5 -42t57.5 -63.5q38 -45 62 -65.5t53 -20.5q43 0 70 50t42 136l90 -32q-10 -82 -36.5 -139t-67.5 -86.5t-93 -29.5q-41 0 -74.5 17.5t-58 41.5t-57.5 64q-37 45 -61 65.5t-53 20.5
q-44 0 -71 -50t-42 -136l-90 32q10 82 36 139t67 86.5t93 29.5q41 0 75 -17.5z" />
    <glyph glyph-name="endash" unicode="&#x2013;" 
d="M170 701h900v-110h-900v110z" />
    <glyph glyph-name="emdash" unicode="&#x2014;" 
d="M0 701h1240v-110h-1240v110z" />
    <glyph glyph-name="quoteleft" unicode="&#x2018;" 
d="M700 1089q37 -19 57.5 -55t20.5 -83q0 -48 -21 -83t-57 -53t-80 -18q-49 0 -88.5 22.5t-63 69t-23.5 116.5q0 128 76.5 256.5t193.5 232.5l70 -60q-100 -97 -157.5 -184.5t-72.5 -178.5l-18 22q36 15 77 15q49 0 86 -19z" />
    <glyph glyph-name="quoteright" unicode="&#x2019;" 
d="M540 1192q-37 19 -57.5 55t-20.5 83q0 48 21 83t57 53t80 18q49 0 88.5 -22.5t63 -69t23.5 -116.5q0 -128 -76.5 -256.5t-193.5 -232.5l-70 60q100 97 157.5 184.5t72.5 178.5l18 -22q-36 -15 -77 -15q-49 0 -86 19z" />
    <glyph glyph-name="quotesinglbase" unicode="&#x201a;" 
d="M540 -13q-37 19 -57.5 55t-20.5 83q0 48 21 83t57 53t80 18q49 0 88.5 -22.5t63 -69t23.5 -116.5q0 -128 -76.5 -256.5t-193.5 -232.5l-70 60q100 97 157.5 184.5t72.5 178.5l18 -22q-36 -15 -77 -15q-49 0 -86 19z" />
    <glyph glyph-name="quotedblleft" unicode="&#x201c;" 
d="M455 1089q37 -19 57.5 -55t20.5 -83q0 -48 -21 -83t-57 -53t-80 -18q-49 0 -88.5 22.5t-63 69t-23.5 116.5q0 128 76.5 256.5t193.5 232.5l70 -60q-100 -97 -157.5 -184.5t-72.5 -178.5l-18 22q36 15 77 15q49 0 86 -19zM955 1089q37 -19 57.5 -55t20.5 -83
q0 -48 -21 -83t-57 -53t-80 -18q-49 0 -88.5 22.5t-63 69t-23.5 116.5q0 128 76.5 256.5t193.5 232.5l70 -60q-100 -97 -157.5 -184.5t-72.5 -178.5l-18 22q36 15 77 15q49 0 86 -19z" />
    <glyph glyph-name="quotedblright" unicode="&#x201d;" 
d="M285 1192q-37 19 -57.5 55t-20.5 83q0 48 21 83t57 53t80 18q49 0 88.5 -22.5t63 -69t23.5 -116.5q0 -128 -76.5 -256.5t-193.5 -232.5l-70 60q100 97 157.5 184.5t72.5 178.5l18 -22q-36 -15 -77 -15q-49 0 -86 19zM785 1192q-37 19 -57.5 55t-20.5 83q0 48 21 83t57 53
t80 18q49 0 88.5 -22.5t63 -69t23.5 -116.5q0 -128 -76.5 -256.5t-193.5 -232.5l-70 60q100 97 157.5 184.5t72.5 178.5l18 -22q-36 -15 -77 -15q-49 0 -86 19z" />
    <glyph glyph-name="quotedblbase" unicode="&#x201e;" 
d="M285 -13q-37 19 -57.5 55t-20.5 83q0 48 21 83t57 53t80 18q49 0 88.5 -22.5t63 -69t23.5 -116.5q0 -128 -76.5 -256.5t-193.5 -232.5l-70 60q100 97 157.5 184.5t72.5 178.5l18 -22q-36 -15 -77 -15q-49 0 -86 19zM785 -13q-37 19 -57.5 55t-20.5 83q0 48 21 83t57 53
t80 18q49 0 88.5 -22.5t63 -69t23.5 -116.5q0 -128 -76.5 -256.5t-193.5 -232.5l-70 60q100 97 157.5 184.5t72.5 178.5l18 -22q-36 -15 -77 -15q-49 0 -86 19z" />
    <glyph glyph-name="dagger" unicode="&#x2020;" 
d="M557 -200v1660h126v-1660h-126zM167 1010h906v-110h-906v110z" />
    <glyph glyph-name="daggerdbl" unicode="&#x2021;" 
d="M557 -200v1660h126v-1660h-126zM167 1010h906v-110h-906v110zM167 360h906v-110h-906v110z" />
    <glyph glyph-name="bullet" unicode="&#x2022;" 
d="M501 444.5q-53 27.5 -83.5 79.5t-30.5 121q0 70 30.5 122t83.5 79t118 27q66 0 119.5 -27t84 -78.5t30.5 -122.5q0 -69 -31 -121t-84 -79.5t-119 -27.5q-65 0 -118 27.5z" />
    <glyph glyph-name="uni2023" unicode="&#x2023;" 
d="M926 645l-534 -306v611z" />
    <glyph glyph-name="ellipsis" unicode="&#x2026;" 
d="M147 -9q-29 15 -45.5 43t-16.5 66t16.5 66.5t45.5 43t64 14.5q36 0 65 -14.5t45.5 -43t16.5 -66.5t-16.5 -66t-45.5 -43t-65 -15q-35 0 -64 15zM556 -9q-29 15 -45.5 43t-16.5 66t16.5 66.5t45.5 43t64 14.5q36 0 65 -14.5t45.5 -43t16.5 -66.5t-16.5 -66t-45.5 -43
t-65 -15q-35 0 -64 15zM965 -9q-29 15 -45.5 43t-16.5 66t16.5 66.5t45.5 43t64 14.5q36 0 65 -14.5t45.5 -43t16.5 -66.5t-16.5 -66t-45.5 -43t-65 -15q-35 0 -64 15z" />
    <glyph glyph-name="perthousand" unicode="&#x2030;" 
d="M200.5 1004.5q-53.5 31.5 -84.5 89.5t-31 136q0 77 31 134.5t84.5 88.5t118.5 31t118.5 -31t84.5 -88.5t31 -134.5q0 -78 -31 -136t-84.5 -89.5t-118.5 -31.5t-118.5 31.5zM413.5 1104q36.5 44 36.5 126q0 81 -36.5 124t-94.5 43t-94.5 -43t-36.5 -124q0 -82 36.5 -126
t94.5 -44t94.5 44zM241.5 7.5q-53.5 31.5 -85 90t-31.5 135.5t31.5 135t85 89t117.5 31q65 0 118.5 -31t84.5 -89t31 -135t-31 -135.5t-84.5 -90t-118.5 -31.5q-64 0 -117.5 31.5zM454.5 107q36.5 44 36.5 126q0 81 -36.5 124.5t-95.5 43.5q-58 0 -94.5 -43.5t-36.5 -124.5
q0 -82 36.5 -126t94.5 -44q59 0 95.5 44zM802.5 7.5q-53.5 31.5 -84.5 90t-31 135.5t31 135t84.5 89t118.5 31t118.5 -31t84.5 -89t31 -135t-31 -135.5t-84.5 -90t-118.5 -31.5t-118.5 31.5zM1016 107q37 44 37 126q0 81 -37 124.5t-95 43.5t-94.5 -43.5t-36.5 -124.5
q0 -82 36.5 -126t94.5 -44t95 44zM1053 1007l-921 -430l-47 99l921 431z" />
    <glyph glyph-name="guilsinglleft" unicode="&#x2039;" 
d="M729 -24l-389 524l105 43l375 -504zM820 961l-377 -503l-103 42l389 524z" />
    <glyph glyph-name="guilsinglright" unicode="&#x203a;" 
d="M511 1024l389 -524l-105 -43l-375 504zM420 39l377 503l103 -42l-389 -524z" />
    <glyph glyph-name="fraction" unicode="&#x2044;" 
d="M1052 1085l-794 -794l-72 68l794 794z" />
    <glyph glyph-name="uni2070" unicode="&#x2070;" 
d="M795 1163q-62 -72 -175 -72t-175 72t-62 215q0 98 28 161.5t81 94t128 30.5q114 0 175.5 -70t61.5 -216q0 -143 -62 -215zM739 1497q-15 45 -44.5 64.5t-74.5 19.5t-74.5 -19.5t-44.5 -64.5t-15 -119q0 -75 15 -120t44.5 -64.5t74.5 -19.5t74.5 19.5t44.5 64.5t15 120
q0 74 -15 119zM658 1332.5q13 15.5 13 42.5q0 29 -13 44t-38 15t-38 -15.5t-13 -43.5q0 -27 13 -42.5t38 -15.5t38 15.5z" />
    <glyph glyph-name="uni2074" unicode="&#x2074;" 
d="M680 1100v473l28 -4l-244 -272l-23 13h269l21 10h118v-79h-466v79l291 335h102v-555h-96z" />
    <glyph glyph-name="uni2075" unicode="&#x2075;" 
d="M803 1655v-80h-302l25 27l-30 -193l-10 13q31 16 66.5 24.5t79.5 8.5q97 0 151 -46.5t54 -130.5q0 -96 -56.5 -141.5t-166.5 -45.5q-108 0 -165.5 41t-58.5 123l95 9q9 -54 39.5 -74t89.5 -20q62 0 93 25t31 85q0 54 -31.5 83t-91.5 29q-37 0 -70 -12.5t-57 -34.5l-88 13
l40 297h363z" />
    <glyph glyph-name="uni2076" unicode="&#x2076;" 
d="M779.5 1626q56.5 -38 57.5 -113l-93 -8q-7 44 -34.5 63t-81.5 19q-42 0 -71.5 -19t-46 -66.5t-16.5 -128.5q0 -112 33 -157.5t96 -45.5q59 0 93 25.5t34 77.5q0 48 -30 73.5t-82 25.5q-55 0 -103 -26t-80 -62l-7 52l7 7q41 39 88.5 67t115.5 28q91 0 140.5 -40t49.5 -125
q0 -94 -58 -138t-171 -44q-72 0 -122 26t-78 90t-28 173q0 154 63.5 219t176.5 65q91 0 147.5 -38z" />
    <glyph glyph-name="uni2077" unicode="&#x2077;" 
d="M835 1655v-60l-218 -495h-102l224 502l35 -27h-365v80h426z" />
    <glyph glyph-name="uni2078" unicode="&#x2078;" 
d="M728.5 1648.5q47.5 -15.5 75 -48.5t27.5 -82q0 -62 -48.5 -96t-125.5 -55l-54 35l6 2q42 15 68 26.5t44.5 31.5t18.5 49q0 39 -32 57.5t-90 18.5q-54 0 -84.5 -16t-30.5 -51q0 -31 35 -55.5t112 -47.5q98 -30 149 -69t51 -97q0 -81 -59 -120.5t-171 -39.5
q-117 0 -174.5 37.5t-57.5 116.5q0 39 22 69t63.5 51t100.5 35l9 2l43 -30q-1 0 -2 -0.5t-2 -0.5q-42 -15 -69.5 -28.5t-48 -36t-20.5 -54.5q0 -46 37.5 -64.5t101.5 -18.5q58 0 91.5 20.5t33.5 55.5q0 23 -18.5 40t-50.5 30.5t-97 35.5l-3 1q-56 19 -93.5 43t-57.5 54.5
t-20 66.5q0 51 26.5 84t74 48.5t111.5 15.5q61 0 108.5 -15.5z" />
    <glyph glyph-name="uni2079" unicode="&#x2079;" 
d="M461.5 1130q-56.5 38 -57.5 112l92 8q7 -43 34.5 -62.5t81.5 -19.5q42 0 71.5 19t46 66.5t16.5 128.5q0 112 -33 158t-95 46q-59 0 -93 -26t-34 -78q0 -48 29.5 -73.5t82.5 -25.5q56 0 104 27t79 61l7 -52l-9 -8q-43 -41 -89 -67.5t-113 -26.5q-91 0 -140.5 40t-49.5 125
q0 94 57.5 138t171.5 44q71 0 121 -26t78.5 -90t28.5 -173q0 -154 -64 -218.5t-177 -64.5q-90 0 -146.5 38z" />
    <glyph glyph-name="uni2080" unicode="&#x2080;" 
d="M795 -217q-62 -72 -175 -72t-175 72t-62 215q0 98 28 161.5t81 94t128 30.5q114 0 175.5 -70t61.5 -216q0 -143 -62 -215zM739 117q-15 45 -44.5 64.5t-74.5 19.5t-74.5 -19.5t-44.5 -64.5t-15 -119q0 -75 15 -120t44.5 -64.5t74.5 -19.5t74.5 19.5t44.5 64.5t15 120
q0 74 -15 119zM658 -47.5q13 15.5 13 42.5q0 29 -13 44t-38 15t-38 -15.5t-13 -43.5q0 -27 13 -42.5t38 -15.5t38 15.5z" />
    <glyph glyph-name="uni2081" unicode="&#x2081;" 
d="M499 192q33 13 58 35.5t29 47.5h72q0 -44 -34 -89t-85 -74.5t-98 -29.5v97q25 0 58 13zM586 -280v555h98v-555h-98zM425 -200h423v-80h-423v80z" />
    <glyph glyph-name="uni2082" unicode="&#x2082;" 
d="M745.5 246q57.5 -38 57.5 -116q0 -55 -26 -93t-61 -61t-87 -48q-5 -3 -10 -5q-58 -29 -86.5 -47t-41 -39.5t-11.5 -54.5l-19 18h362v-80h-437v80q0 42 20.5 75.5t58 61t95.5 55.5l13 6q30 14 44 22q42 22 64.5 47t22.5 63q0 41 -28 59t-78 18q-54 0 -83.5 -20t-35.5 -71
l-93 8q0 51 25.5 87t70.5 54.5t104 18.5q102 0 159.5 -38z" />
    <glyph glyph-name="uni2083" unicode="&#x2083;" 
d="M754.5 246q55.5 -38 55.5 -110q0 -70 -51.5 -107.5t-122.5 -43.5v27q55 -3 97 -16.5t68 -44t26 -81.5q0 -77 -57.5 -118t-165.5 -41q-73 0 -122.5 18.5t-75 55t-26.5 90.5l93 9q9 -54 40 -74.5t91 -20.5t91 21t31 64q0 29 -22.5 48t-60.5 28t-86 9h-15v71h14
q72 0 115 26.5t43 72.5q0 42 -29 60t-84 18q-53 0 -81.5 -19.5t-34.5 -70.5l-91 9q2 77 54.5 117.5t149.5 40.5q101 0 156.5 -38z" />
    <glyph glyph-name="uni2084" unicode="&#x2084;" 
d="M680 -280v473l28 -4l-244 -272l-23 13h269l21 10h118v-79h-466v79l291 335h102v-555h-96z" />
    <glyph glyph-name="uni2085" unicode="&#x2085;" 
d="M803 275v-80h-302l25 27l-30 -193l-10 13q31 16 66.5 24.5t79.5 8.5q97 0 151 -46.5t54 -130.5q0 -96 -56.5 -141.5t-166.5 -45.5q-108 0 -165.5 41t-58.5 123l95 9q9 -54 39.5 -74t89.5 -20q62 0 93 25t31 85q0 54 -31.5 83t-91.5 29q-37 0 -70 -12.5t-57 -34.5l-88 13
l40 297h363z" />
    <glyph glyph-name="uni2086" unicode="&#x2086;" 
d="M779.5 246q56.5 -38 57.5 -113l-93 -8q-7 44 -34.5 63t-81.5 19q-42 0 -71.5 -19t-46 -66.5t-16.5 -128.5q0 -112 33 -157.5t96 -45.5q59 0 93 25.5t34 77.5q0 48 -30 73.5t-82 25.5q-55 0 -103 -26t-80 -62l-7 52l7 7q41 39 88.5 67t115.5 28q91 0 140.5 -40t49.5 -125
q0 -94 -58 -138t-171 -44q-72 0 -122 26t-78 90t-28 173q0 154 63.5 219t176.5 65q91 0 147.5 -38z" />
    <glyph glyph-name="uni2087" unicode="&#x2087;" 
d="M835 275v-60l-218 -495h-102l224 502l35 -27h-365v80h426z" />
    <glyph glyph-name="uni2088" unicode="&#x2088;" 
d="M728.5 268.5q47.5 -15.5 75 -48.5t27.5 -82q0 -62 -48.5 -96t-125.5 -55l-54 35l6 2q42 15 68 26.5t44.5 31.5t18.5 49q0 39 -32 57.5t-90 18.5q-54 0 -84.5 -16t-30.5 -51q0 -31 35 -55.5t112 -47.5q98 -30 149 -69t51 -97q0 -81 -59 -120.5t-171 -39.5
q-117 0 -174.5 37.5t-57.5 116.5q0 39 22 69t63.5 51t100.5 35l9 2l43 -30q-1 0 -2 -0.5t-2 -0.5q-42 -15 -69.5 -28.5t-48 -36t-20.5 -54.5q0 -46 37.5 -64.5t101.5 -18.5q58 0 91.5 20.5t33.5 55.5q0 23 -18.5 40t-50.5 30.5t-97 35.5q-1 0 -3 1q-56 19 -93.5 43
t-57.5 54.5t-20 66.5q0 51 26.5 84t74 48.5t111.5 15.5q61 0 108.5 -15.5z" />
    <glyph glyph-name="uni2089" unicode="&#x2089;" 
d="M461.5 -250q-56.5 38 -57.5 112l92 8q7 -43 34.5 -62.5t81.5 -19.5q42 0 71.5 19t46 66.5t16.5 128.5q0 112 -33 158t-95 46q-59 0 -93 -26t-34 -78q0 -48 29.5 -73.5t82.5 -25.5q56 0 104 27t79 61l7 -52l-9 -8q-43 -41 -89 -67.5t-113 -26.5q-91 0 -140.5 40t-49.5 125
q0 94 57.5 138t171.5 44q71 0 121 -26t78.5 -90t28.5 -173q0 -154 -64 -218.5t-177 -64.5q-90 0 -146.5 38z" />
    <glyph glyph-name="colonmonetary" unicode="&#x20a1;" 
d="M723 1775h-95l-307 -2090h95zM986 1775h-95l-307 -2090h95zM937 1463q-88 20 -190 20q-200 0 -342.5 -77.5t-220 -245t-77.5 -431.5q0 -262 77.5 -429t220 -244.5t342.5 -77.5q102 0 190 20t156 59l-52 98q-63 -29 -136 -44.5t-158 -15.5q-159 0 -269.5 59.5t-171 200
t-60.5 374.5q0 236 60.5 376.5t171 200.5t269.5 60q84 0 157 -15.5t136 -43.5l1 -1l52 98q-68 39 -156 59z" />
    <glyph glyph-name="uni20A9" unicode="&#x20a9;" 
d="M258 1460l119 -1212h13l173 968h133l159 -968h12l121 1212h118l-162 -1460h-132l-183 1005h-14l-195 -1005h-124l-162 1460h124zM34 596v109h1172v-109h-1172z" />
    <glyph glyph-name="Euro" unicode="&#x20ac;" 
d="M80 630v-109h703l29 109h-732zM80 941v-109h784l25 109h-809zM950.5 1464q-75.5 19 -170.5 19q-184 0 -310 -77t-193 -244.5t-67 -432.5q0 -264 67 -430.5t193 -243.5t310 -77q95 0 170.5 19t145.5 60l-60 98q-66 -31 -124 -45.5t-132 -14.5q-142 0 -236.5 59.5
t-144.5 199t-50 375.5q0 238 50 378t144.5 199.5t236.5 59.5q74 0 132 -14.5t124 -45.5l60 98q-70 41 -145.5 60z" />
    <glyph glyph-name="uni20B1" unicode="&#x20b1;" 
d="M257 0v1460h126v-1460h-126zM735.5 647q79.5 42 116 129.5t36.5 225.5q0 136 -34.5 211.5t-101.5 106t-175 30.5h-231v110h249q139 0 230.5 -43t139 -142.5t47.5 -267.5q0 -171 -50.5 -284t-154.5 -170t-266 -57h-211v109h197q129 0 208.5 42zM80 1073v109h1080v-109
h-1080zM80 773v109h1080v-109h-1080z" />
    <glyph glyph-name="uni20BA" unicode="&#x20ba;" 
d="M373 0h-126v1460h126v-1460zM908 165q-189 -165 -530 -165h-42v110h38q202 0 333.5 59.5t200.5 187t79 333.5h124q-14 -360 -203 -525zM50 863v107l718 260v-107zM50 592v107l718 260v-107z" />
    <glyph glyph-name="uni20BD" unicode="&#x20bd;" 
d="M277 0v1460h126v-1460h-126zM872.5 756.5q104.5 91.5 104.5 273.5q0 123 -44 193t-128 98.5t-213 28.5h-226v110h234q234 0 366.5 -96t132.5 -329q0 -147 -56.5 -254t-178.5 -166t-314 -59h-460v109h442q236 0 340.5 91.5zM90 259v109h775v-109h-775z" />
    <glyph glyph-name="uni20BF" unicode="&#x20bf;" 
d="M737 1775h109v-378h-109v378zM366 1775h109v-378h-109v378zM755 63h109v-378h-109v378zM384 63h109v-378h-109v378zM190 0v1460h126v-1460h-126zM846.5 1423.5q89.5 -36.5 135 -106t45.5 -166.5q0 -109 -47 -187t-115 -122t-133 -58v-7q96 -11 181.5 -45.5t145 -111.5
t59.5 -204q0 -128 -59 -221.5t-179.5 -144t-298.5 -50.5h-306v110h288q143 0 236.5 32t140.5 98.5t47 171.5q0 117 -55.5 184.5t-149 94.5t-219.5 27h-340l-1 107h341q103 0 177.5 36.5t114 104t39.5 159.5q0 71 -32 120.5t-105 77t-194 27.5h-288v110h352
q130 0 219.5 -36.5z" />
    <glyph glyph-name="uni2113" unicode="&#x2113;" 
d="M534.5 39.5q-86.5 62.5 -133 222t-46.5 444.5q0 286 41.5 457t121.5 245.5t201 74.5q93 0 147.5 -39t77 -104.5t22.5 -152.5q0 -212 -110 -401t-282 -337.5t-375 -260.5q-4 -1 -10 -5l-53 92q199 118 355.5 251t255 296t98.5 344q0 105 -33.5 155t-97.5 50
q-69 0 -119 -60t-79.5 -203t-29.5 -383q0 -254 29.5 -390.5t91 -189.5t167.5 -53q55 0 113 12.5t130 39.5l27 -107q-79 -30 -150 -45t-141 -15q-132 0 -218.5 62.5z" />
    <glyph glyph-name="uni2116" unicode="&#x2116;" 
d="M223 1163h-18v-1163h-105v1460h140l300 -1140h18v1140h105v-1460h-138zM1171.5 838q-23.5 -92 -68 -136t-106.5 -44t-106 44t-67.5 136t-23.5 233t23.5 233t67.5 136t106 44t106.5 -44t68 -136t23.5 -233t-23.5 -233zM1081 1298q-28 76 -84 76t-83.5 -76t-27.5 -227
t27.5 -226.5t83.5 -75.5t84 76t28 226q0 151 -28 227zM920 278q-30 31 -30 85t30 85t77 31t77.5 -31t30.5 -85t-30.5 -85t-77.5 -31t-77 31z" />
    <glyph glyph-name="trademark" unicode="&#x2122;" 
d="M242 862v668h95v-668h-95zM86 1530h406v-87h-406v87zM691 1530l160 -328h6l155 328h98v-668h-95v458h-5l-141 -286h-36l-143 286h-5v-458h-95v668h101z" />
    <glyph glyph-name="uni2123" unicode="&#x2123;" horiz-adv-x="7440" 
d="M393.5 551q88.5 -218 221.5 -425h13q133 207 221.5 425t131.5 449h127q-53 -255 -162.5 -510.5t-273.5 -489.5h-106q-164 234 -273.5 489.5t-162.5 510.5h132q43 -231 131.5 -449zM1797 0v1395l92 -45l-497 -129l20 110l441 129h70v-1460h-126zM1392 110h956l-20 -110
h-916zM3020 -12.5q-36 18.5 -57 54t-21 82.5q0 48 21 83t57 53.5t80 18.5q45 0 81 -18.5t57 -53.5t21 -83q0 -47 -21 -82.5t-57 -54t-81 -18.5q-44 0 -80 18.5zM4123 152q-85 83 -120 236t-35 379q0 236 44.5 358t96.5 174q39 38 90 60.5t126 22.5q145 0 230 -83t120 -236
t35 -379q0 -165 -24.5 -276.5t-55 -168t-61.5 -87.5q-39 -38 -90 -60.5t-126 -22.5q-145 0 -230 83zM4419 618q30 40 30 118q0 44 -9.5 80t-33 58.5t-63.5 22.5q-52 0 -82 -40t-30 -118q0 -44 9.5 -80t33 -58.5t63.5 -22.5q52 0 82 40zM4606 63q118 82 182.5 247.5
t64.5 410.5q0 207 -45 376t-156.5 275t-298.5 106q-162 0 -280 -82t-182 -247.5t-64 -410.5q0 -207 45 -376t156 -275t298 -106q162 0 280 82zM5363 152q-85 83 -120 236t-35 379q0 236 44.5 358t96.5 174q39 38 90 60.5t126 22.5q145 0 230 -83t120 -236t35 -379
q0 -165 -24.5 -276.5t-55 -168t-61.5 -87.5q-39 -38 -90 -60.5t-126 -22.5q-145 0 -230 83zM5659 618q30 40 30 118q0 44 -9.5 80t-33 58.5t-63.5 22.5q-52 0 -82 -40t-30 -118q0 -44 9.5 -80t33 -58.5t63.5 -22.5q52 0 82 40zM5846 63q118 82 182.5 247.5t64.5 410.5
q0 207 -45 376t-156.5 275t-298.5 106q-162 0 -280 -82t-182 -247.5t-64 -410.5q0 -207 45 -376t156 -275t298 -106q162 0 280 82zM6603 152q-85 83 -120 236t-35 379q0 236 44.5 358t96.5 174q39 38 90 60.5t126 22.5q145 0 230 -83t120 -236t35 -379q0 -165 -24.5 -276.5
t-55 -168t-61.5 -87.5q-39 -38 -90 -60.5t-126 -22.5q-145 0 -230 83zM6899 618q30 40 30 118q0 44 -9.5 80t-33 58.5t-63.5 22.5q-52 0 -82 -40t-30 -118q0 -44 9.5 -80t33 -58.5t63.5 -22.5q52 0 82 40zM7086 63q118 82 182.5 247.5t64.5 410.5q0 207 -45 376t-156.5 275
t-298.5 106q-162 0 -280 -82t-182 -247.5t-64 -410.5q0 -207 45 -376t156 -275t298 -106q162 0 280 82z" />
    <glyph glyph-name="uni2153" unicode="&#x2153;" 
d="M174 1377q33 13 58 35.5t29 47.5h72q0 -44 -34 -89t-85 -74.5t-98 -29.5v97q25 0 58 13zM261 905v555h98v-555h-98zM100 985h423v-80h-423v80zM1088 1085l-794 -794l-72 68l794 794zM1092.5 526q55.5 -38 55.5 -110q0 -70 -51.5 -107.5t-122.5 -43.5v27q55 -3 97 -16.5
t68 -44t26 -81.5q0 -77 -57.5 -118t-165.5 -41q-73 0 -122.5 18.5t-75 55t-26.5 90.5l93 9q9 -54 40 -74.5t91 -20.5t91 21t31 64q0 29 -22.5 48t-60.5 28t-86 9h-15v71h14q72 0 115 26.5t43 72.5q0 42 -29 60t-84 18q-53 0 -81.5 -19.5t-34.5 -70.5l-91 9q2 77 54.5 117.5
t149.5 40.5q101 0 156.5 -38z" />
    <glyph glyph-name="uni2154" unicode="&#x2154;" 
d="M467.5 1431q57.5 -38 57.5 -116q0 -55 -26 -93t-61 -61t-87 -48q-5 -2 -10 -5q-58 -29 -86.5 -47t-41 -39.5t-11.5 -54.5l-19 18h362v-80h-437v80q0 42 20.5 75.5t58 61t95.5 55.5l13 6q30 14 44 22q42 22 64.5 47t22.5 63q0 41 -28 59t-78 18q-54 0 -83.5 -20t-35.5 -71
l-93 8q0 51 25.5 87t70.5 54.5t104 18.5q102 0 159.5 -38zM1088 1085l-794 -794l-72 68l794 794zM1092.5 526q55.5 -38 55.5 -110q0 -70 -51.5 -107.5t-122.5 -43.5v27q55 -3 97 -16.5t68 -44t26 -81.5q0 -77 -57.5 -118t-165.5 -41q-73 0 -122.5 18.5t-75 55t-26.5 90.5
l93 9q9 -54 40 -74.5t91 -20.5t91 21t31 64q0 29 -22.5 48t-60.5 28t-86 9h-15v71h14q72 0 115 26.5t43 72.5q0 42 -29 60t-84 18q-53 0 -81.5 -19.5t-34.5 -70.5l-91 9q2 77 54.5 117.5t149.5 40.5q101 0 156.5 -38z" />
    <glyph glyph-name="oneeighth" unicode="&#x215b;" 
d="M174 1377q33 13 58 35.5t29 47.5h72q0 -44 -34 -89t-85 -74.5t-98 -29.5v97q25 0 58 13zM261 905v555h98v-555h-98zM100 985h423v-80h-423v80zM1088 1085l-794 -794l-72 68l794 794zM1043.5 548.5q47.5 -15.5 75 -48.5t27.5 -82q0 -62 -48.5 -96t-125.5 -55l-54 35l6 2
q42 15 68 26.5t44.5 31.5t18.5 49q0 39 -32 57.5t-90 18.5q-54 0 -84.5 -16t-30.5 -51q0 -31 35 -55.5t112 -47.5q98 -30 149 -69t51 -97q0 -81 -59 -120.5t-171 -39.5q-117 0 -174.5 37.5t-57.5 116.5q0 39 22 69t63 51t100 35l10 2l43 -30q-1 0 -2 -0.5t-2 -0.5
q-42 -15 -69.5 -28.5t-48 -36t-20.5 -54.5q0 -46 37.5 -64.5t101.5 -18.5q58 0 91.5 20.5t33.5 55.5q0 23 -18.5 40t-50.5 30.5t-97 35.5l-3 1q-56 19 -93.5 43t-57.5 54.5t-20 66.5q0 51 26.5 84t74 48.5t111.5 15.5q61 0 108.5 -15.5z" />
    <glyph glyph-name="threeeighths" unicode="&#x215c;" 
d="M469.5 1431q55.5 -38 55.5 -110q0 -70 -51.5 -107.5t-122.5 -43.5v27q55 -3 97 -16.5t68 -44t26 -81.5q0 -77 -57.5 -118t-165.5 -41q-73 0 -122.5 18.5t-75 55t-26.5 90.5l93 9q9 -54 40 -74.5t91 -20.5t91 21t31 64q0 29 -22.5 48t-60.5 28t-86 9h-15v71h14
q72 0 115 26.5t43 72.5q0 42 -29 60t-84 18q-53 0 -81.5 -19.5t-34.5 -70.5l-91 9q2 77 54.5 117.5t149.5 40.5q101 0 156.5 -38zM1088 1085l-794 -794l-72 68l794 794zM1043.5 548.5q47.5 -15.5 75 -48.5t27.5 -82q0 -62 -48.5 -96t-125.5 -55l-54 35l6 2q42 15 68 26.5
t44.5 31.5t18.5 49q0 39 -32 57.5t-90 18.5q-54 0 -84.5 -16t-30.5 -51q0 -31 35 -55.5t112 -47.5q98 -30 149 -69t51 -97q0 -81 -59 -120.5t-171 -39.5q-117 0 -174.5 37.5t-57.5 116.5q0 39 22 69t63 51t100 35l10 2l43 -30q-1 0 -2 -0.5t-2 -0.5q-42 -15 -69.5 -28.5
t-48 -36t-20.5 -54.5q0 -46 37.5 -64.5t101.5 -18.5q58 0 91.5 20.5t33.5 55.5q0 23 -18.5 40t-50.5 30.5t-97 35.5l-3 1q-56 19 -93.5 43t-57.5 54.5t-20 66.5q0 51 26.5 84t74 48.5t111.5 15.5q61 0 108.5 -15.5z" />
    <glyph glyph-name="fiveeighths" unicode="&#x215d;" 
d="M518 1460v-80h-302l25 27l-30 -193l-10 13q31 16 66.5 24.5t79.5 8.5q97 0 151 -46.5t54 -130.5q0 -96 -56.5 -141.5t-166.5 -45.5q-108 0 -165.5 41t-58.5 123l95 9q9 -54 39.5 -74t89.5 -20q62 0 93 25t31 85q0 54 -31.5 83t-91.5 29q-37 0 -70 -12.5t-57 -34.5l-88 13
l40 297h363zM1088 1085l-794 -794l-72 68l794 794zM1043.5 548.5q47.5 -15.5 75 -48.5t27.5 -82q0 -62 -48.5 -96t-125.5 -55l-54 35l6 2q42 15 68 26.5t44.5 31.5t18.5 49q0 39 -32 57.5t-90 18.5q-54 0 -84.5 -16t-30.5 -51q0 -31 35 -55.5t112 -47.5q98 -30 149 -69
t51 -97q0 -81 -59 -120.5t-171 -39.5q-117 0 -174.5 37.5t-57.5 116.5q0 39 22 69t63 51t100 35l10 2l43 -30q-1 0 -2 -0.5t-2 -0.5q-42 -15 -69.5 -28.5t-48 -36t-20.5 -54.5q0 -46 37.5 -64.5t101.5 -18.5q58 0 91.5 20.5t33.5 55.5q0 23 -18.5 40t-50.5 30.5t-97 35.5
l-3 1q-56 19 -93.5 43t-57.5 54.5t-20 66.5q0 51 26.5 84t74 48.5t111.5 15.5q61 0 108.5 -15.5z" />
    <glyph glyph-name="seveneighths" unicode="&#x215e;" 
d="M606 1460v-60l-218 -495h-102l224 502l35 -27h-365v80h426zM1058 1085l-794 -794l-72 68l794 794zM1043.5 548.5q47.5 -15.5 75 -48.5t27.5 -82q0 -62 -48.5 -96t-125.5 -55l-54 35l6 2q42 15 68 26.5t44.5 31.5t18.5 49q0 39 -32 57.5t-90 18.5q-54 0 -84.5 -16
t-30.5 -51q0 -31 35 -55.5t112 -47.5q98 -30 149 -69t51 -97q0 -81 -59 -120.5t-171 -39.5q-117 0 -174.5 37.5t-57.5 116.5q0 39 22 69t63 51t100 35l10 2l43 -30q-1 0 -2 -0.5t-2 -0.5q-42 -15 -69.5 -28.5t-48 -36t-20.5 -54.5q0 -46 37.5 -64.5t101.5 -18.5
q58 0 91.5 20.5t33.5 55.5q0 23 -18.5 40t-50.5 30.5t-97 35.5l-3 1q-56 19 -93.5 43t-57.5 54.5t-20 66.5q0 51 26.5 84t74 48.5t111.5 15.5q61 0 108.5 -15.5z" />
    <glyph glyph-name="arrowleft" unicode="&#x2190;" 
d="M617 1205l81 -81l-423 -419v50l423 -419l-81 -81l-473 475zM263 789h843v-118h-843v118zM397 730l-59 -158l-63 158l62 158z" />
    <glyph glyph-name="arrowup" unicode="&#x2191;" 
d="M1095 745l-81 -81l-419 423h50l-419 -423l-81 81l475 473zM679 1099v-843h-118v843h118zM620 965l-158 59l158 63l158 -62z" />
    <glyph glyph-name="arrowright" unicode="&#x2192;" 
d="M633 255l-81 81l423 419v-50l-423 419l81 81l473 -475zM987 671h-843v118h843v-118zM853 730l59 158l63 -158l-62 -158z" />
    <glyph glyph-name="arrowdown" unicode="&#x2193;" 
d="M145 715l81 81l419 -423h-50l419 423l81 -81l-475 -473zM561 361v843h118v-843h-118zM620 495l158 -59l-158 -63l-158 62z" />
    <glyph glyph-name="arrowboth" unicode="&#x2194;" 
d="M827 364l-81 81l312 310v-51l-312 310l81 81l363 -365zM1061 730l-66 -158l-61 158l62 158zM413 1096l81 -81l-312 -310v51l312 -310l-81 -81l-363 365zM1076 789v-118h-911v118h911zM179 730l66 158l61 -158l-62 -158z" />
    <glyph glyph-name="arrowupdn" unicode="&#x2195;" 
d="M254 523l81 81l310 -312h-51l310 312l81 -81l-365 -363zM620 289l-158 66l158 61l158 -62zM986 937l-81 -81l-310 312h51l-310 -312l-81 81l365 363zM679 274h-118v911h118v-911zM620 1171l158 -66l-158 -61l-158 62z" />
    <glyph glyph-name="uni2196" unicode="&#x2196;" 
d="M943 1079v-114l-595 2l35 36l3 -596h-114l1 671zM399 1035l596 -596l-83 -83l-596 596zM452 899l-153 -70l67 156l155 68z" />
    <glyph glyph-name="uni2197" unicode="&#x2197;" 
d="M968 408h-114l2 595l36 -35l-596 -3v114l671 -1zM924 952l-596 -596l-83 83l596 596zM788 899l-70 153l156 -67l68 -155z" />
    <glyph glyph-name="uni2198" unicode="&#x2198;" 
d="M297 381v114l595 -2l-35 -36l-3 596h114l-1 -671zM841 425l-596 596l83 83l596 -596zM788 561l153 70l-67 -156l-155 -68z" />
    <glyph glyph-name="uni2199" unicode="&#x2199;" 
d="M272 1052h114l-2 -595l-36 35l596 3v-114l-671 1zM316 508l596 596l83 -83l-596 -596zM452 561l70 -153l-156 67l-68 155z" />
    <glyph glyph-name="uni21A9" unicode="&#x21a9;" 
d="M563 906l81 -81l-403 -399v50l403 -399l-81 -81l-453 455zM363 451l-59 -158l-63 158l62 158zM923 1024q-36 72 -108 106t-182 34h-437v118h395q175 0 281.5 -43.5t157 -140.5t50.5 -260t-50.5 -260.5t-157.5 -141.5t-281 -44h-305v118h347q110 0 182 34.5t108 107
t36 186.5t-36 186z" />
    <glyph glyph-name="uni21AA" unicode="&#x21aa;" 
d="M677 -4l-81 81l403 399v-50l-403 399l81 81l453 -455zM999 451l-63 -158l-59 158l60 158zM317 651.5q36 -72.5 108 -107t182 -34.5h347v-118h-305q-174 0 -281 44t-157.5 141.5t-50.5 260.5t50.5 260t157 140.5t281.5 43.5h395v-118h-437q-110 0 -182 -34t-108 -106
t-36 -186t36 -186.5z" />
    <glyph glyph-name="uni21BA" unicode="&#x21ba;" 
d="M1165 1357v-115l-505 3l35 35l3 -495h-115l2 570zM691 1269l156 68l-70 -154l-154 -69zM907.5 1174q127.5 -80 205 -212t77.5 -311q0 -161 -68.5 -291.5t-197.5 -206t-304 -75.5t-304 75.5t-197.5 206t-68.5 291.5q0 216 126 377l99 -64q-50 -68 -77 -144t-27 -169
q0 -131 54.5 -235.5t156 -165t238.5 -60.5t238.5 60.5t156 165t54.5 235.5q0 149 -65.5 259t-171.5 177.5t-234 100.5l29 98q153 -32 280.5 -112z" />
    <glyph glyph-name="uni21BB" unicode="&#x21bb;" 
d="M657 785h-115l3 495l35 -35l-505 -3v115l580 -2zM463 1183l-70 154l156 -68l68 -155zM408 1087.5q-106 -67.5 -171.5 -177.5t-65.5 -259q0 -131 54.5 -235.5t156 -165t238.5 -60.5t238.5 60.5t156 165t54.5 235.5q0 93 -27 169t-77 144l99 64q126 -161 126 -377
q0 -161 -68.5 -291.5t-197.5 -206t-304 -75.5t-304 75.5t-197.5 206t-68.5 291.5q0 179 77.5 311t205 212t280.5 112l29 -98q-128 -33 -234 -100.5z" />
    <glyph glyph-name="uni21C4" unicode="&#x21c4;" 
d="M423 777l81 -81l-312 -310v51l312 -310l-81 -81l-363 366zM175 471h973v-118h-973v118zM316 412l-61 -158l-66 158l65 158zM817 683l-81 81l312 310v-51l-312 310l81 81l363 -366zM1065 989h-973v118h973v-118zM924 1048l61 158l66 -158l-65 -158z" />
    <glyph glyph-name="uni21C6" unicode="&#x21c6;" 
d="M817 46l-81 81l312 310v-51l-312 310l81 81l363 -365zM92 353v118h973v-118h-973zM1051 412l-66 -158l-61 158l62 158zM423 1414l81 -81l-312 -310v51l312 -310l-81 -81l-363 365zM1148 1107v-118h-973v118h973zM189 1048l66 158l61 -158l-62 -158z" />
    <glyph glyph-name="universal" unicode="&#x2200;" 
d="M198 1000l417 -872h11l418 872h124l-490 -1000h-116l-490 1000h126zM954 622h-663v105h663v-105z" />
    <glyph glyph-name="partialdiff" unicode="&#x2202;" 
d="M894.5 1422.5q105.5 -60.5 163 -206t57.5 -393.5q0 -290 -70 -479t-196.5 -278t-299.5 -89q-139 0 -228.5 54t-131.5 155.5t-42 245.5q0 165 53.5 299.5t162 213.5t266.5 79q94 0 177 -34t171 -110l63 14l9 -186q-79 101 -181 154t-209 53q-121 0 -206 -63t-128 -171
t-43 -240q0 -175 74 -264.5t204 -89.5q118 0 214 71.5t154 228t58 400.5q0 223 -41 350t-122.5 179t-210.5 52q-67 0 -137 -13t-140 -39l-27 107q77 29 160.5 44.5t166.5 15.5q154 0 259.5 -60.5z" />
    <glyph glyph-name="existential" unicode="&#x2203;" 
d="M162 110h780l-45 -45v674l45 -45h-657v105h657l-45 -45v641l45 -45h-780v110h861v-1460h-861v110z" />
    <glyph glyph-name="uni2206" unicode="&#x2206;" 
d="M1003 77v42l-378 1190h-11l-379 -1190v-46l-129 37l445 1350h138l446 -1350zM106 110h1029l-1 -110h-1028v110z" />
    <glyph glyph-name="gradient" unicode="&#x2207;" 
d="M238 1384v-42l378 -1190h11l379 1190v46l129 -37l-445 -1350h-138l-446 1350zM1135 1351h-1029l1 110h1028v-110z" />
    <glyph glyph-name="element" unicode="&#x2208;" 
d="M382 358q58 -135 174 -191.5t303 -56.5h156v-110h-190q-206 0 -345.5 70t-214.5 231.5t-75 428.5t75 428.5t214.5 231.5t345.5 70h190v-110h-156q-187 0 -303 -56.5t-174 -191.5t-58 -372t58 -372zM268 789h747v-110h-747v110z" />
    <glyph glyph-name="product" unicode="&#x220f;" 
d="M280 -400v1860h126v-1860h-126zM127 1460h986v-110h-986v110zM834 -400v1860h126v-1860h-126z" />
    <glyph glyph-name="uni2210" unicode="&#x2210;" 
d="M960 1460v-1860h-126v1860h126zM1113 -400h-986v110h986v-110zM406 1460v-1860h-126v1860h126z" />
    <glyph glyph-name="summation" unicode="&#x2211;" 
d="M671 491l-501 887l13 82h867v-110h-779l28 50l488 -867l-488 -867l-28 44h779v-110h-867l-13 82l501 887v-78z" />
    <glyph glyph-name="minus" unicode="&#x2212;" 
d="M170 701h900v-110h-900v110z" />
    <glyph glyph-name="radical" unicode="&#x221a;" 
d="M1170 1460v-110h-319l58 50l-462 -1800h-149l-287 832l105 36l244 -719h14l439 1711h357z" />
    <glyph glyph-name="infinity" unicode="&#x221e;" 
d="M716.5 385.5q81.5 -70.5 190.5 -70.5q66 0 127 28t103.5 101.5t42.5 201.5q0 130 -42.5 203.5t-103 100.5t-125.5 27q-86 0 -151 -42t-106 -112t-61 -156l58 -97q12 68 47.5 137.5t90.5 115.5t122 46q46 0 84.5 -24t61.5 -74t23 -125q0 -77 -24 -127t-62.5 -73t-84.5 -23
q-44 0 -84.5 24t-81 83.5t-79.5 161.5l-85 -93q58 -143 139.5 -213.5zM523.5 906.5q-81.5 70.5 -190.5 70.5q-66 0 -127 -28t-103.5 -101.5t-42.5 -201.5q0 -130 42.5 -203.5t103 -100.5t125.5 -27q86 0 151 42t106 112t61 156l-58 97q-12 -68 -47.5 -137.5t-90.5 -115.5
t-122 -46q-46 0 -84.5 24t-61.5 74t-23 125q0 77 24 127t62.5 73t84.5 23q44 0 84.5 -24t81 -83.5t79.5 -161.5l85 93q-58 143 -139.5 213.5z" />
    <glyph glyph-name="angle" unicode="&#x2220;" 
d="M167 0l-17 41l504 972l110 -48l-439 -842l7 -13h708v-110h-873z" />
    <glyph glyph-name="logicaland" unicode="&#x2227;" 
d="M982 235l-365 774h-14l-357 -774h-117l466 1000h39l478 -1000h-130z" />
    <glyph glyph-name="logicalor" unicode="&#x2228;" 
d="M258 1225l365 -774h14l357 774h117l-466 -1000h-39l-478 1000h130z" />
    <glyph glyph-name="integral" unicode="&#x222b;" 
d="M814 1457.5q-56 -26.5 -97.5 -98.5t-60.5 -202l-179 -1220q-15 -103 -40 -159t-61.5 -77.5t-91.5 -21.5q-26 0 -47.5 4.5t-46.5 15.5l-20 -94q30 -16 59 -22.5t67 -6.5q74 0 130 26.5t97.5 98.5t60.5 202l179 1220q15 103 40 159t61.5 77.5t91.5 21.5q26 0 47.5 -4.5
t46.5 -15.5l20 94q-30 16 -59 22.5t-67 6.5q-74 0 -130 -26.5z" />
    <glyph glyph-name="therefore" unicode="&#x2234;" 
d="M218 248.5q-36 18.5 -57 54t-21 82.5q0 48 21 83t57 53.5t80 18.5q45 0 81 -18.5t57 -53.5t21 -83q0 -47 -21 -82.5t-57 -54t-81 -18.5q-44 0 -80 18.5zM540 939.5q-36 18.5 -57 54t-21 82.5q0 48 21 83t57 53.5t80 18.5q45 0 81 -18.5t57 -53.5t21 -83q0 -47 -21 -82.5
t-57 -54t-81 -18.5q-44 0 -80 18.5zM861 248.5q-36 18.5 -57 54t-21 82.5q0 48 21 83t57 53.5t80 18.5q45 0 81 -18.5t57 -53.5t21 -83q0 -47 -21 -82.5t-57 -54t-81 -18.5q-44 0 -80 18.5z" />
    <glyph glyph-name="uni2237" unicode="&#x2237;" 
d="M228 248.5q-36 18.5 -57 54t-21 82.5q0 48 21 83t57 53.5t80 18.5q45 0 81 -18.5t57 -53.5t21 -83q0 -47 -21 -82.5t-57 -54t-81 -18.5q-44 0 -80 18.5zM228 939.5q-36 18.5 -57 54t-21 82.5q0 48 21 83t57 53.5t80 18.5q45 0 81 -18.5t57 -53.5t21 -83q0 -47 -21 -82.5
t-57 -54t-81 -18.5q-44 0 -80 18.5zM851 248.5q-36 18.5 -57 54t-21 82.5q0 48 21 83t57 53.5t80 18.5q45 0 81 -18.5t57 -53.5t21 -83q0 -47 -21 -82.5t-57 -54t-81 -18.5q-44 0 -80 18.5zM851 939.5q-36 18.5 -57 54t-21 82.5q0 48 21 83t57 53.5t80 18.5q45 0 81 -18.5
t57 -53.5t21 -83q0 -47 -21 -82.5t-57 -54t-81 -18.5q-44 0 -80 18.5z" />
    <glyph glyph-name="approxequal" unicode="&#x2248;" 
d="M732.5 762.5q-47.5 23.5 -80 56.5t-74.5 87q-34 44 -57 68.5t-52 41.5t-65 17q-41 0 -70 -26t-48.5 -84t-31.5 -157l-113 14q18 199 84.5 284t174.5 85q61 0 108 -23.5t79 -56.5t75 -87q35 -44 58 -68.5t52 -41.5t65 -17q41 0 69.5 26t48 84t31.5 157l113 -14
q-18 -199 -84 -284t-174 -85q-61 0 -108.5 23.5zM732.5 164.5q-47.5 23.5 -80 56.5t-74.5 87q-34 44 -57 68.5t-52 41.5t-65 17q-41 0 -70 -26t-48.5 -84t-31.5 -157l-113 14q18 199 84.5 284t174.5 85q61 0 108 -23.5t79 -56.5t75 -87q35 -44 58 -68.5t52 -41.5t65 -17
q41 0 69.5 26t48 84t31.5 157l113 -14q-18 -199 -84 -284t-174 -85q-61 0 -108.5 23.5z" />
    <glyph glyph-name="notequal" unicode="&#x2260;" 
d="M435 0l256 1290h114l-256 -1290h-114zM170 965h900v-110h-900v110zM170 435h900v-110h-900v110z" />
    <glyph glyph-name="equivalence" unicode="&#x2261;" 
d="M170 1129h900v-110h-900v110zM170 699h900v-110h-900v110zM170 269h900v-110h-900v110z" />
    <glyph glyph-name="lessequal" unicode="&#x2264;" 
d="M170 203v110h900v-110h-900zM1078 1352l-739 -343v-14l739 -345l-47 -100l-861 402v98l861 402z" />
    <glyph glyph-name="greaterequal" unicode="&#x2265;" 
d="M170 313h900v-110h-900v110zM162 650l739 343v14l-739 345l47 100l861 -402v-98l-861 -402z" />
    <glyph glyph-name="propersubset" unicode="&#x2282;" 
d="M360.5 260.5q54.5 -85.5 152 -118.5t241.5 -33h261v-109h-295q-251 0 -399.5 114t-148.5 386t148.5 386t399.5 114h295v-109h-261q-144 0 -241.5 -33t-152 -118.5t-54.5 -239.5t54.5 -239.5z" />
    <glyph glyph-name="circleplus" unicode="&#x2295;" 
d="M309 781h622v-100h-622v100zM675 1080v-698h-110v698h110zM1108.5 327q-71.5 -171 -198 -261t-290.5 -90t-291 90t-198 261t-71 405q0 232 71 402t198 260t291 90q163 0 290 -90t198.5 -260t71.5 -402q0 -234 -71.5 -405zM1046.5 1105q-63.5 155 -174.5 234.5t-252 79.5
t-252 -79.5t-174.5 -234.5t-63.5 -373q0 -220 63.5 -375.5t174.5 -235.5t252 -80t252 80t174.5 235.5t63.5 375.5q0 218 -63.5 373z" />
    <glyph glyph-name="triagup" unicode="&#x25b2;" 
d="M619 1217l544 -952h-1086z" />
    <glyph glyph-name="uni25B4" unicode="&#x25b4;" 
d="M619 1014l306 -534h-611z" />
    <glyph glyph-name="uni25B6" unicode="&#x25b6;" 
d="M1135 729l-952 -544v1086z" />
    <glyph glyph-name="uni25B8" unicode="&#x25b8;" 
d="M926 729l-534 -306v611z" />
    <glyph glyph-name="triagdn" unicode="&#x25bc;" 
d="M621 240l-544 952h1086z" />
    <glyph glyph-name="uni25BE" unicode="&#x25be;" 
d="M620 444l-306 534h611z" />
    <glyph glyph-name="uni25C0" unicode="&#x25c0;" 
d="M105 727l952 544v-1086z" />
    <glyph glyph-name="uni25C2" unicode="&#x25c2;" 
d="M314 729l534 306v-611z" />
    <glyph glyph-name="lozenge" unicode="&#x25ca;" 
d="M231 772l381 -664h15l382 664l102 -42l-432 -730h-119l-432 730zM1009 688l-382 664h-15l-381 -664l-103 42l432 730h119l432 -730z" />
    <glyph glyph-name="uni2B0E" unicode="&#x2b0e;" 
d="M190 685l81 81l419 -423h-50l419 423l81 -81l-475 -473zM606 1232h118v-901h-118v901zM665 343l-158 63l158 59l158 -60zM120 1111v121h604v-121h-604z" />
    <glyph glyph-name="uni2B0F" unicode="&#x2b0f;" 
d="M1140 775l-81 -81l-419 423h50l-419 -423l-81 81l475 473zM724 1129v-901h-118v901h118zM665 995l-158 59l158 63l158 -62zM724 228h-604v121h604v-121z" />
    <glyph glyph-name="uni2B10" unicode="&#x2b10;" 
d="M100 685l81 81l419 -423h-50l419 423l81 -81l-475 -473zM516 331v901h118v-901h-118zM575 465l158 -59l-158 -63l-158 62zM516 1232h604v-121h-604v121z" />
    <glyph glyph-name="uni2B11" unicode="&#x2b11;" 
d="M1050 775l-81 -81l-419 423h50l-419 -423l-81 81l475 473zM634 228h-118v901h118v-901zM575 1117l158 -63l-158 -59l-158 60zM1120 349v-121h-604v121h604z" />
    <glyph glyph-name="M.both" 
d="M263 1459l357 -897h12l346 897h149l106 -1459h-112l-99 1286h-15l-348 -897h-84l-356 897h-13l-89 -1286h-112l105 1459h153z" />
    <glyph glyph-name="T.both" 
d="M558 0v1460h126v-1460h-126zM3 1460h1235l20 -110h-1275z" />
    <glyph glyph-name="Tbar.both" 
d="M164 814h913v-110h-913v110zM558 0v1460h126v-1460h-126zM3 1460h1235l20 -110h-1275z" />
    <glyph glyph-name="Tcaron.both" 
d="M558 0v1460h126v-1460h-126zM3 1460h1235l20 -110h-1275zM542 1650h156l314 233h-147l-245 -185l-244 185h-147z" />
    <glyph glyph-name="uni0162.both" 
d="M558 0v1460h126v-1460h-126zM3 1460h1235l20 -110h-1275zM802.5 -215q63.5 -22 97.5 -64t34 -112q0 -67 -35.5 -108.5t-115 -62t-213.5 -20.5h-94v96h89q139 0 199 27t60 77q0 56 -59.5 83.5t-188.5 35.5v311h90l4 -283l-31 52q100 -10 163.5 -32z" />
    <glyph glyph-name="uni021A.both" 
d="M558 0v1460h126v-1460h-126zM3 1460h1235l20 -110h-1275zM562 -509.5q-27 12.5 -41.5 36.5t-14.5 56q0 49 33 77t82 28q55 0 91.5 -36t36.5 -105q0 -87 -57 -165.5t-141 -128.5l-55 66q41 29 71.5 56.5t53 59.5t33.5 70l26 -16q-24 -11 -55 -11q-36 0 -63 12.5z" />
    <glyph glyph-name="W.both" 
d="M778 383q-55 175 -94 322.5t-56 251.5h-19q-25 -132 -82.5 -330.5t-135.5 -432.5q-16 -48 -32.5 -96.5t-33.5 -96.5h-93q-86 251 -153.5 500t-114.5 491t-71 468h125q36 -291 108.5 -619.5t156.5 -605.5h16q18 53 26.5 79l25.5 78q48 148 88.5 289.5t73.5 274.5t60 260
h103q29 -133 58 -252t61.5 -239t70.5 -246q23 -80 77 -244h15q89 294 162 618t103 607h123q-36 -341 -124.5 -712t-223.5 -747h-96q-77 228 -124 382z" />
    <glyph glyph-name="Wacute.both" 
d="M778 383q-55 175 -94 322.5t-56 251.5h-19q-25 -132 -82.5 -330.5t-135.5 -432.5q-16 -48 -32.5 -96.5t-33.5 -96.5h-93q-86 251 -153.5 500t-114.5 491t-71 468h125q36 -291 108.5 -619.5t156.5 -605.5h16q18 53 26.5 79l25.5 78q48 148 88.5 289.5t73.5 274.5t60 260
h103q29 -133 58 -252t61.5 -239t70.5 -246q23 -80 77 -244h15q89 294 162 618t103 607h123q-36 -341 -124.5 -712t-223.5 -747h-96q-77 228 -124 382zM670 1652l311 232h-154l-277 -232h120z" />
    <glyph glyph-name="Wcircumflex.both" 
d="M778 383q-55 175 -94 322.5t-56 251.5h-19q-25 -132 -82.5 -330.5t-135.5 -432.5q-16 -48 -32.5 -96.5t-33.5 -96.5h-93q-86 251 -153.5 500t-114.5 491t-71 468h125q36 -291 108.5 -619.5t156.5 -605.5h16q18 53 26.5 79l25.5 78q48 148 88.5 289.5t73.5 274.5t60 260
h103q29 -133 58 -252t61.5 -239t70.5 -246q23 -80 77 -244h15q89 294 162 618t103 607h123q-36 -341 -124.5 -712t-223.5 -747h-96q-77 228 -124 382zM539 1883h160l319 -233h-148l-282 210h63l-281 -210h-149z" />
    <glyph glyph-name="Wdieresis.both" 
d="M778 383q-55 175 -94 322.5t-56 251.5h-19q-25 -132 -82.5 -330.5t-135.5 -432.5q-16 -48 -32.5 -96.5t-33.5 -96.5h-93q-86 251 -153.5 500t-114.5 491t-71 468h125q36 -291 108.5 -619.5t156.5 -605.5h16q18 53 26.5 79l25.5 78q48 148 88.5 289.5t73.5 274.5t60 260
h103q29 -133 58 -252t61.5 -239t70.5 -246q23 -80 77 -244h15q89 294 162 618t103 607h123q-36 -341 -124.5 -712t-223.5 -747h-96q-77 228 -124 382zM231.5 1689q-29.5 26 -29.5 72t29.5 72t76.5 26q48 0 77.5 -26t29.5 -72t-29.5 -72t-77.5 -26q-47 0 -76.5 26z
M855.5 1689q-29.5 26 -29.5 72t29.5 72t76.5 26q48 0 77.5 -26t29.5 -72t-29.5 -72t-77.5 -26q-47 0 -76.5 26z" />
    <glyph glyph-name="Wgrave.both" 
d="M778 383q-55 175 -94 322.5t-56 251.5h-19q-25 -132 -82.5 -330.5t-135.5 -432.5q-16 -48 -32.5 -96.5t-33.5 -96.5h-93q-86 251 -153.5 500t-114.5 491t-71 468h125q36 -291 108.5 -619.5t156.5 -605.5h16q18 53 26.5 79l25.5 78q48 148 88.5 289.5t73.5 274.5t60 260
h103q29 -133 58 -252t61.5 -239t70.5 -246q23 -80 77 -244h15q89 294 162 618t103 607h123q-36 -341 -124.5 -712t-223.5 -747h-96q-77 228 -124 382zM570 1652l-311 232h154l277 -232h-120z" />
    <glyph glyph-name="E.left" 
d="M217 0v1460h126v-1460h-126zM991 0h-689v110h709zM874 694h-572v105h572v-105zM302 1350v110h689l20 -110h-709z" />
    <glyph glyph-name="Eacute.left" 
d="M217 0v1460h126v-1460h-126zM991 0h-689v110h709zM874 694h-572v105h572v-105zM302 1350v110h689l20 -110h-709zM600 1649l232 234h-135l-202 -234h105z" />
    <glyph glyph-name="Ebreve.left" 
d="M217 0v1460h126v-1460h-126zM991 0h-689v110h709zM874 694h-572v105h572v-105zM302 1350v110h689l20 -110h-709zM439.5 1765q38.5 -47 117.5 -47q80 0 118 47t38 118h87q6 -67 -20 -121.5t-83 -86.5t-140 -32t-140 32t-83 86.5t-20 121.5h87q0 -71 38.5 -118z" />
    <glyph glyph-name="Ecaron.left" 
d="M217 0v1460h126v-1460h-126zM991 0h-689v110h709zM874 694h-572v105h572v-105zM302 1350v110h689l20 -110h-709zM507 1650h100l244 233h-124l-170 -174l-170 174h-124z" />
    <glyph glyph-name="Ecircumflex.left" 
d="M217 0v1460h126v-1460h-126zM991 0h-689v110h709zM874 694h-572v105h572v-105zM302 1350v110h689l20 -110h-709zM507 1883h100l244 -233h-124l-197 202h54l-197 -202h-124z" />
    <glyph glyph-name="Edieresis.left" 
d="M217 0v1460h126v-1460h-126zM991 0h-689v110h709zM874 694h-572v105h572v-105zM302 1350v110h689l20 -110h-709zM259.5 1689q-28.5 26 -28.5 72t28.5 72t74.5 26q47 0 75 -26t28 -72t-28 -72t-75 -26q-46 0 -74.5 26zM705 1689q-28 26 -28 72t28 72t75 26q46 0 74.5 -26
t28.5 -72t-28.5 -72t-74.5 -26q-47 0 -75 26z" />
    <glyph glyph-name="Edotaccent.left" 
d="M217 0v1460h126v-1460h-126zM991 0h-689v110h709zM874 694h-572v105h572v-105zM302 1350v110h689l20 -110h-709zM480.5 1689q-29.5 26 -29.5 72t29.5 72t76.5 26t76.5 -26t29.5 -72t-29.5 -72t-76.5 -26t-76.5 26z" />
    <glyph glyph-name="uni1EB8.left" 
d="M217 0v1460h126v-1460h-126zM991 0h-689v110h709zM874 694h-572v105h572v-105zM302 1350v110h689l20 -110h-709zM502 -497.5q-24 11.5 -37.5 34t-13.5 52.5q0 46 29.5 72t76.5 26t76.5 -26t29.5 -72t-29.5 -72t-76.5 -26q-31 0 -55 11.5z" />
    <glyph glyph-name="Egrave.left" 
d="M217 0v1460h126v-1460h-126zM991 0h-689v110h709zM874 694h-572v105h572v-105zM302 1350v110h689l20 -110h-709zM514 1649l-232 234h135l202 -234h-105z" />
    <glyph glyph-name="Emacron.left" 
d="M217 0v1460h126v-1460h-126zM991 0h-689v110h709zM874 694h-572v105h572v-105zM302 1350v110h689l20 -110h-709zM821 1731h-528v100h528v-100z" />
    <glyph glyph-name="Eogonek.left" 
d="M217 0v1460h126v-1460h-126zM991 0h-689v110h709zM874 694h-572v105h572v-105zM302 1350v110h689l20 -110h-709zM860 -122.5q-29 -54.5 -29 -95.5q0 -36 22.5 -55.5t70.5 -19.5h29v-107h-54q-94 0 -134 43.5t-40 108.5q0 68 41 134.5t129 150.5l58 -37
q-64 -68 -93 -122.5z" />
    <glyph glyph-name="uni1EBC.left" 
d="M217 0v1460h126v-1460h-126zM991 0h-689v110h709zM874 694h-572v105h572v-105zM302 1350v110h689l20 -110h-709zM488.5 1881.5q28.5 -12.5 49 -29.5t46.5 -45q30 -32 50.5 -47t46.5 -15q37 0 61.5 33.5t36.5 96.5l87 -26q-9 -66 -32.5 -112t-60.5 -70t-85 -24
q-35 0 -63 12t-48 29.5t-47 45.5q-29 32 -49.5 47t-46.5 15q-37 0 -62 -33.5t-37 -96.5l-87 26q9 66 32.5 112t60 70t84.5 24q35 0 63.5 -12.5z" />
    <glyph glyph-name="F.left" 
d="M227 0v1460h126v-1460h-126zM849 667h-537v99h569zM312 1360v100h667l20 -100h-687z" />
    <glyph glyph-name="I.left" 
d="M475 0v1460h126v-1460h-126zM924 1460l20 -110h-792l20 110h752zM152 110h792l-20 -110h-752z" />
    <glyph glyph-name="Iacute.left" 
d="M475 0v1460h126v-1460h-126zM924 1460l20 -110h-792l20 110h752zM152 110h792l-20 -110h-752zM580 1649l221 234h-132l-192 -234h103z" />
    <glyph glyph-name="Ibreve.left" 
d="M475 0v1460h126v-1460h-126zM924 1460l20 -110h-792l20 110h752zM152 110h792l-20 -110h-752zM428.5 1765q35.5 -48 109.5 -48t109 48t35 118h87q7 -65 -17.5 -119.5t-79 -87.5t-134.5 -33t-135 33t-79.5 87.5t-17.5 119.5h87q0 -70 35.5 -118z" />
    <glyph glyph-name="Icircumflex.left" 
d="M475 0v1460h126v-1460h-126zM924 1460l20 -110h-792l20 110h752zM152 110h792l-20 -110h-752zM492 1883h92l234 -233h-122l-184 201h52l-185 -201h-122z" />
    <glyph glyph-name="Idieresis.left" 
d="M475 0v1460h126v-1460h-126zM924 1460l20 -110h-792l20 110h752zM152 110h792l-20 -110h-752zM252.5 1689q-28.5 26 -28.5 72t28.5 72t74.5 26t74 -26t28 -72t-28 -72t-74 -26t-74.5 26zM674 1689q-28 26 -28 72t28 72t74 26t74.5 -26t28.5 -72t-28.5 -72t-74.5 -26
t-74 26z" />
    <glyph glyph-name="Igrave.left" 
d="M475 0v1460h126v-1460h-126zM924 1460l20 -110h-792l20 110h752zM152 110h792l-20 -110h-752zM495 1649l-221 234h132l192 -234h-103z" />
    <glyph glyph-name="Imacron.left" 
d="M475 0v1460h126v-1460h-126zM924 1460l20 -110h-792l20 110h752zM152 110h792l-20 -110h-752zM780 1731h-485v100h485v-100z" />
    <glyph glyph-name="Iogonek.left" 
d="M475 0v1460h126v-1460h-126zM924 1460l20 -110h-792l20 110h752zM152 110h792l-20 -110h-752zM530.5 -122.5q-27.5 -55.5 -27.5 -95.5q0 -35 20.5 -55t64.5 -20h29v-107h-54q-90 0 -128 43.5t-38 108.5q0 67 39.5 134t122.5 151l58 -37q-59 -67 -86.5 -122.5z" />
    <glyph glyph-name="L.left" 
d="M207 0v1460h126v-1460h-126zM973 0h-681v110h713z" />
    <glyph glyph-name="Lacute.left" 
d="M207 0v1460h126v-1460h-126zM973 0h-681v110h713zM324 1649l221 234h-132l-192 -234h103z" />
    <glyph glyph-name="Lcaron.left" 
d="M207 0v1460h126v-1460h-126zM973 0h-681v110h713zM510 1548h121l-41 -336h-97z" />
    <glyph glyph-name="uni013B.left" 
d="M207 0v1460h126v-1460h-126zM973 0h-681v110h713zM464 -509.5q-27 12.5 -41.5 36.5t-14.5 56q0 49 33 77t82 28q55 0 91.5 -36t36.5 -105q0 -87 -57 -165.5t-141 -128.5l-55 66q41 29 71.5 56.5t53 59.5t33.5 70l26 -16q-24 -11 -55 -11q-36 0 -63 12.5z" />
    <glyph glyph-name="Lslash.left" 
d="M643 913l-623 -314v113l623 314v-113zM207 0v1460h126v-1460h-126zM973 0h-681v110h713z" />
    <glyph glyph-name="M.left" 
d="M259 1459l307 -881h12l294 881h159l82 -1459h-113l-75 1286h-15l-305 -897h-84l-314 897h-13l-65 -1286h-112l81 1459h161z" />
    <glyph glyph-name="S.left" 
d="M788 1356.5q-83 11.5 -163 11.5q-102 0 -170.5 -18.5t-100.5 -46.5q-32 -29 -46.5 -60t-14.5 -88q0 -63 31 -116.5t91 -103t154 -104.5q12 -7 17.5 -10t16.5 -10l63 -36q126 -71 189.5 -116.5t102 -111.5t38.5 -164q0 -120 -59 -211.5t-168 -141.5t-254 -50
q-101 0 -189 23t-174 62v128q91 -44 193 -72.5t206 -28.5q106 0 162 19.5t89 50.5q30 28 49.5 72t19.5 108q0 76 -31.5 127t-86 89t-166.5 99l-64 36q-118 66 -190.5 127t-110 133.5t-37.5 166.5q0 135 67 216.5t176.5 115.5t247.5 34q66 0 135 -9t139 -27l11 -128
q-90 23 -173 34.5z" />
    <glyph glyph-name="Sacute.left" 
d="M788 1356.5q-83 11.5 -163 11.5q-102 0 -170.5 -18.5t-100.5 -46.5q-32 -29 -46.5 -60t-14.5 -88q0 -63 31 -116.5t91 -103t154 -104.5q12 -7 17.5 -10t16.5 -10l63 -36q126 -71 189.5 -116.5t102 -111.5t38.5 -164q0 -120 -59 -211.5t-168 -141.5t-254 -50
q-101 0 -189 23t-174 62v128q91 -44 193 -72.5t206 -28.5q106 0 162 19.5t89 50.5q30 28 49.5 72t19.5 108q0 76 -31.5 127t-86 89t-166.5 99l-64 36q-118 66 -190.5 127t-110 133.5t-37.5 166.5q0 135 67 216.5t176.5 115.5t247.5 34q66 0 135 -9t139 -27l11 -128
q-90 23 -173 34.5zM617 1650l238 233h-137l-207 -233h106z" />
    <glyph glyph-name="Scaron.left" 
d="M788 1356.5q-83 11.5 -163 11.5q-102 0 -170.5 -18.5t-100.5 -46.5q-32 -29 -46.5 -60t-14.5 -88q0 -63 31 -116.5t91 -103t154 -104.5q12 -7 17.5 -10t16.5 -10l63 -36q126 -71 189.5 -116.5t102 -111.5t38.5 -164q0 -120 -59 -211.5t-168 -141.5t-254 -50
q-101 0 -189 23t-174 62v128q91 -44 193 -72.5t206 -28.5q106 0 162 19.5t89 50.5q30 28 49.5 72t19.5 108q0 76 -31.5 127t-86 89t-166.5 99l-64 36q-118 66 -190.5 127t-110 133.5t-37.5 166.5q0 135 67 216.5t176.5 115.5t247.5 34q66 0 135 -9t139 -27l11 -128
q-90 23 -173 34.5zM522 1650h104l249 233h-126l-175 -175l-175 175h-126z" />
    <glyph glyph-name="Scedilla.left" 
d="M788 1356.5q-83 11.5 -163 11.5q-102 0 -170.5 -18.5t-100.5 -46.5q-32 -29 -46.5 -60t-14.5 -88q0 -63 31 -116.5t91 -103t154 -104.5q12 -7 17.5 -10t16.5 -10l63 -36q126 -71 189.5 -116.5t102 -111.5t38.5 -164q0 -120 -59 -211.5t-168 -141.5t-254 -50
q-101 0 -189 23t-174 62v128q91 -44 193 -72.5t206 -28.5q106 0 162 19.5t89 50.5q30 28 49.5 72t19.5 108q0 76 -31.5 127t-86 89t-166.5 99l-64 36q-118 66 -190.5 127t-110 133.5t-37.5 166.5q0 135 67 216.5t176.5 115.5t247.5 34q66 0 135 -9t139 -27l11 -128
q-90 23 -173 34.5zM722 -239q44 -46 44 -138q0 -61 -21 -101t-72 -61t-138 -21h-55v94h24q88 0 121 24.5t33 73.5q0 54 -33 81t-97 34v301h90l4 -274l-31 48q87 -15 131 -61z" />
    <glyph glyph-name="Scircumflex.left" 
d="M788 1356.5q-83 11.5 -163 11.5q-102 0 -170.5 -18.5t-100.5 -46.5q-32 -29 -46.5 -60t-14.5 -88q0 -63 31 -116.5t91 -103t154 -104.5q12 -7 17.5 -10t16.5 -10l63 -36q126 -71 189.5 -116.5t102 -111.5t38.5 -164q0 -120 -59 -211.5t-168 -141.5t-254 -50
q-101 0 -189 23t-174 62v128q91 -44 193 -72.5t206 -28.5q106 0 162 19.5t89 50.5q30 28 49.5 72t19.5 108q0 76 -31.5 127t-86 89t-166.5 99l-64 36q-118 66 -190.5 127t-110 133.5t-37.5 166.5q0 135 67 216.5t176.5 115.5t247.5 34q66 0 135 -9t139 -27l11 -128
q-90 23 -173 34.5zM522 1883h104l249 -233h-126l-202 203h54l-202 -203h-126z" />
    <glyph glyph-name="uni0218.left" 
d="M788 1356.5q-83 11.5 -163 11.5q-102 0 -170.5 -18.5t-100.5 -46.5q-32 -29 -46.5 -60t-14.5 -88q0 -63 31 -116.5t91 -103t154 -104.5q12 -7 17.5 -10t16.5 -10l63 -36q126 -71 189.5 -116.5t102 -111.5t38.5 -164q0 -120 -59 -211.5t-168 -141.5t-254 -50
q-101 0 -189 23t-174 62v128q91 -44 193 -72.5t206 -28.5q106 0 162 19.5t89 50.5q30 28 49.5 72t19.5 108q0 76 -31.5 127t-86 89t-166.5 99l-64 36q-118 66 -190.5 127t-110 133.5t-37.5 166.5q0 135 67 216.5t176.5 115.5t247.5 34q66 0 135 -9t139 -27l11 -128
q-90 23 -173 34.5zM513 -509.5q-27 12.5 -41.5 36.5t-14.5 56q0 49 33 77t82 28q55 0 91.5 -36t36.5 -105q0 -87 -57 -165.5t-141 -128.5l-55 66q41 29 71.5 56.5t53 59.5t33.5 70l26 -16q-24 -11 -55 -11q-36 0 -63 12.5z" />
    <glyph glyph-name="T.left" 
d="M452 0v1460h126v-1460h-126zM-75 1460h1183l20 -110h-1223z" />
    <glyph glyph-name="Tbar.left" 
d="M82 814h869v-110h-869v110zM452 0v1460h126v-1460h-126zM-75 1460h1183l20 -110h-1223z" />
    <glyph glyph-name="Tcaron.left" 
d="M452 0v1460h126v-1460h-126zM-75 1460h1183l20 -110h-1223zM442 1650h148l304 233h-143l-234 -184l-234 184h-144z" />
    <glyph glyph-name="uni0162.left" 
d="M452 0v1460h126v-1460h-126zM-75 1460h1183l20 -110h-1223zM686 -214q60 -22 92 -64t32 -111q0 -66 -33 -107.5t-108.5 -62t-202.5 -20.5h-88v96h79q131 0 187 26.5t56 76.5q0 56 -55.5 83.5t-174.5 35.5v309h90l4 -282l-31 52q93 -10 153 -32z" />
    <glyph glyph-name="uni021A.left" 
d="M452 0v1460h126v-1460h-126zM-75 1460h1183l20 -110h-1223zM456 -509.5q-27 12.5 -41.5 36.5t-14.5 56q0 49 33 77t82 28q55 0 91.5 -36t36.5 -105q0 -87 -57 -165.5t-141 -128.5l-55 66q41 29 71.5 56.5t53 59.5t33.5 70l26 -16q-24 -11 -55 -11q-36 0 -63 12.5z" />
    <glyph glyph-name="W.left" 
d="M795 35q-72 248 -127.5 500t-87.5 452h-16q-39 -216 -99.5 -474.5t-138.5 -511.5h-96q-119 360 -193 734.5t-104 724.5h128q27 -286 86.5 -615.5t133.5 -607.5h13q62 214 117 461.5t107 517.5h117l10 -52q51 -267 100 -495t106 -432h13q73 283 132 612t85 611h123
q-31 -355 -104.5 -728.5t-194.5 -730.5h-100z" />
    <glyph glyph-name="Wacute.left" 
d="M795 35q-72 248 -127.5 500t-87.5 452h-16q-39 -216 -99.5 -474.5t-138.5 -511.5h-96q-119 360 -193 734.5t-104 724.5h128q27 -286 86.5 -615.5t133.5 -607.5h13q62 214 117 461.5t107 517.5h117l10 -52q51 -267 100 -495t106 -432h13q73 283 132 612t85 611h123
q-31 -355 -104.5 -728.5t-194.5 -730.5h-100zM615 1651l274 232h-145l-242 -232h113z" />
    <glyph glyph-name="Wcircumflex.left" 
d="M795 35q-72 248 -127.5 500t-87.5 452h-16q-39 -216 -99.5 -474.5t-138.5 -511.5h-96q-119 360 -193 734.5t-104 724.5h128q27 -286 86.5 -615.5t133.5 -607.5h13q62 214 117 461.5t107 517.5h117l10 -52q51 -267 100 -495t106 -432h13q73 283 132 612t85 611h123
q-31 -355 -104.5 -728.5t-194.5 -730.5h-100zM502 1883h132l284 -233h-137l-242 206h58l-241 -206h-137z" />
    <glyph glyph-name="Wdieresis.left" 
d="M795 35q-72 248 -127.5 500t-87.5 452h-16q-39 -216 -99.5 -474.5t-138.5 -511.5h-96q-119 360 -193 734.5t-104 724.5h128q27 -286 86.5 -615.5t133.5 -607.5h13q62 214 117 461.5t107 517.5h117l10 -52q51 -267 100 -495t106 -432h13q73 283 132 612t85 611h123
q-31 -355 -104.5 -728.5t-194.5 -730.5h-100zM222.5 1689q-28.5 26 -28.5 72t28.5 72t75.5 26t76 -26t29 -72t-29 -72t-76 -26t-75.5 26zM763 1689q-29 26 -29 72t29 72t76 26t76 -26t29 -72t-29 -72t-76 -26t-76 26z" />
    <glyph glyph-name="Wgrave.left" 
d="M795 35q-72 248 -127.5 500t-87.5 452h-16q-39 -216 -99.5 -474.5t-138.5 -511.5h-96q-119 360 -193 734.5t-104 724.5h128q27 -286 86.5 -615.5t133.5 -607.5h13q62 214 117 461.5t107 517.5h117l10 -52q51 -267 100 -495t106 -432h13q73 283 132 612t85 611h123
q-31 -355 -104.5 -728.5t-194.5 -730.5h-100zM522 1651l-275 232h146l242 -232h-113z" />
    <glyph glyph-name="E.right" 
d="M294 0v1460h126v-1460h-126zM1068 0h-689v110h709zM951 694h-572v105h572v-105zM379 1350v110h689l20 -110h-709z" />
    <glyph glyph-name="Eacute.right" 
d="M294 0v1460h126v-1460h-126zM1068 0h-689v110h709zM951 694h-572v105h572v-105zM379 1350v110h689l20 -110h-709zM677 1649l232 234h-135l-202 -234h105z" />
    <glyph glyph-name="Ebreve.right" 
d="M294 0v1460h126v-1460h-126zM1068 0h-689v110h709zM951 694h-572v105h572v-105zM379 1350v110h689l20 -110h-709zM516 1765q38 -47 118 -47t117.5 47t37.5 118h88q6 -67 -20 -121.5t-83 -86.5t-140 -32t-140 32t-83 86.5t-20 121.5h87q0 -71 38 -118z" />
    <glyph glyph-name="Ecaron.right" 
d="M294 0v1460h126v-1460h-126zM1068 0h-689v110h709zM951 694h-572v105h572v-105zM379 1350v110h689l20 -110h-709zM584 1650h100l244 233h-125l-169 -174l-170 174h-124z" />
    <glyph glyph-name="Ecircumflex.right" 
d="M294 0v1460h126v-1460h-126zM1068 0h-689v110h709zM951 694h-572v105h572v-105zM379 1350v110h689l20 -110h-709zM584 1883h100l244 -233h-125l-196 202h54l-197 -202h-124z" />
    <glyph glyph-name="Edieresis.right" 
d="M294 0v1460h126v-1460h-126zM1068 0h-689v110h709zM951 694h-572v105h572v-105zM379 1350v110h689l20 -110h-709zM336.5 1689q-28.5 26 -28.5 72t28.5 72t74.5 26t74.5 -26t28.5 -72t-28.5 -72t-74.5 -26t-74.5 26zM781.5 1689q-28.5 26 -28.5 72t28.5 72t74.5 26
q47 0 75 -26t28 -72t-28 -72t-75 -26q-46 0 -74.5 26z" />
    <glyph glyph-name="Edotaccent.right" 
d="M294 0v1460h126v-1460h-126zM1068 0h-689v110h709zM951 694h-572v105h572v-105zM379 1350v110h689l20 -110h-709zM557.5 1689q-29.5 26 -29.5 72t29.5 72t76.5 26t76.5 -26t29.5 -72t-29.5 -72t-76.5 -26t-76.5 26z" />
    <glyph glyph-name="uni1EB8.right" 
d="M294 0v1460h126v-1460h-126zM1068 0h-689v110h709zM951 694h-572v105h572v-105zM379 1350v110h689l20 -110h-709zM579 -497.5q-24 11.5 -37.5 34t-13.5 52.5q0 46 29.5 72t76.5 26t76.5 -26t29.5 -72t-29.5 -72t-76.5 -26q-31 0 -55 11.5z" />
    <glyph glyph-name="Egrave.right" 
d="M294 0v1460h126v-1460h-126zM1068 0h-689v110h709zM951 694h-572v105h572v-105zM379 1350v110h689l20 -110h-709zM591 1649l-232 234h135l202 -234h-105z" />
    <glyph glyph-name="Emacron.right" 
d="M294 0v1460h126v-1460h-126zM1068 0h-689v110h709zM951 694h-572v105h572v-105zM379 1350v110h689l20 -110h-709zM898 1731h-528v100h528v-100z" />
    <glyph glyph-name="Eogonek.right" 
d="M324 0v1460h126v-1460h-126zM1098 0h-689v110h709zM981 694h-572v105h572v-105zM409 1350v110h689l20 -110h-709zM967 -122.5q-29 -54.5 -29 -95.5q0 -36 22.5 -55.5t70.5 -19.5h29v-107h-54q-94 0 -134 43.5t-40 108.5q0 68 41 134.5t129 150.5l58 -37
q-64 -68 -93 -122.5z" />
    <glyph glyph-name="uni1EBC.right" 
d="M294 0v1460h126v-1460h-126zM1068 0h-689v110h709zM951 694h-572v105h572v-105zM379 1350v110h689l20 -110h-709zM565.5 1881.5q28.5 -12.5 49 -29.5t46.5 -45q30 -32 50.5 -47t46.5 -15q37 0 61.5 33.5t36.5 96.5l87 -26q-14 -100 -59.5 -153t-118.5 -53q-35 0 -63 12.5
t-48 29.5t-46 45q-30 32 -51 47t-47 15q-37 0 -61.5 -34t-36.5 -96l-87 26q8 66 31.5 112t60.5 70t85 24q35 0 63.5 -12.5z" />
    <glyph glyph-name="F.right" 
d="M346 0v1460h126v-1460h-126zM968 667h-537v99h569zM431 1360v100h667l20 -100h-687z" />
    <glyph glyph-name="I.right" 
d="M618 0v1460h126v-1460h-126zM1067 1460l20 -110h-792l20 110h752zM295 110h792l-20 -110h-752z" />
    <glyph glyph-name="Iacute.right" 
d="M618 0v1460h126v-1460h-126zM1067 1460l20 -110h-792l20 110h752zM295 110h792l-20 -110h-752zM723 1649l221 234h-132l-192 -234h103z" />
    <glyph glyph-name="Ibreve.right" 
d="M618 0v1460h126v-1460h-126zM1067 1460l20 -110h-792l20 110h752zM295 110h792l-20 -110h-752zM571.5 1765q35.5 -48 109.5 -48q75 0 110 48t35 118h86q7 -65 -17.5 -119.5t-79 -87.5t-134.5 -33t-134.5 33t-79 87.5t-17.5 119.5h86q0 -70 35.5 -118z" />
    <glyph glyph-name="Icircumflex.right" 
d="M618 0v1460h126v-1460h-126zM1067 1460l20 -110h-792l20 110h752zM295 110h792l-20 -110h-752zM635 1883h92l234 -233h-121l-185 201h52l-185 -201h-121z" />
    <glyph glyph-name="Idieresis.right" 
d="M618 0v1460h126v-1460h-126zM1067 1460l20 -110h-792l20 110h752zM295 110h792l-20 -110h-752zM395.5 1689q-28.5 26 -28.5 72t28.5 72t74.5 26t74.5 -26t28.5 -72t-28.5 -72t-74.5 -26t-74.5 26zM817.5 1689q-28.5 26 -28.5 72t28.5 72t74.5 26t74 -26t28 -72t-28 -72
t-74 -26t-74.5 26z" />
    <glyph glyph-name="Igrave.right" 
d="M618 0v1460h126v-1460h-126zM1067 1460l20 -110h-792l20 110h752zM295 110h792l-20 -110h-752zM639 1649l-222 234h133l192 -234h-103z" />
    <glyph glyph-name="Imacron.right" 
d="M618 0v1460h126v-1460h-126zM1067 1460l20 -110h-792l20 110h752zM295 110h792l-20 -110h-752zM923 1731h-485v100h485v-100z" />
    <glyph glyph-name="Iogonek.right" 
d="M618 0v1460h126v-1460h-126zM1067 1460l20 -110h-792l20 110h752zM295 110h792l-20 -110h-752zM673.5 -122.5q-27.5 -55.5 -27.5 -95.5q0 -35 21 -55t64 -20h29v-107h-54q-89 0 -127.5 43.5t-38.5 108.5q0 67 39.5 134t122.5 151l58 -37q-59 -67 -86.5 -122.5z" />
    <glyph glyph-name="L.right" 
d="M320 0v1460h126v-1460h-126zM1086 0h-681v110h713z" />
    <glyph glyph-name="Lacute.right" 
d="M320 0v1460h126v-1460h-126zM1086 0h-681v110h713zM436 1649l222 234h-133l-192 -234h103z" />
    <glyph glyph-name="Lcaron.right" 
d="M320 0v1460h126v-1460h-126zM1086 0h-681v110h713zM623 1548h121l-41 -336h-97z" />
    <glyph glyph-name="uni013B.right" 
d="M320 0v1460h126v-1460h-126zM1086 0h-681v110h713zM577 -509.5q-27 12.5 -41.5 36.5t-14.5 56q0 49 33 77t82 28q55 0 91.5 -36t36.5 -105q0 -87 -57 -165.5t-141 -128.5l-55 66q41 29 71.5 56.5t53 59.5t33.5 70l26 -16q-24 -11 -55 -11q-36 0 -63 12.5z" />
    <glyph glyph-name="Lslash.right" 
d="M755 913l-622 -314v113l622 314v-113zM320 0v1460h126v-1460h-126zM1086 0h-681v110h713z" />
    <glyph glyph-name="M.right" 
d="M370 1459l306 -881h12l295 881h158l82 -1459h-113l-75 1286h-15l-305 -897h-84l-313 897h-13l-65 -1286h-113l81 1459h162z" />
    <glyph glyph-name="S.right" 
d="M876 1356.5q-83 11.5 -163 11.5q-102 0 -170.5 -18.5t-100.5 -46.5q-32 -29 -46.5 -60t-14.5 -88q0 -63 31 -116.5t91 -103t154 -104.5q12 -7 17.5 -10t16.5 -10l63 -36q126 -71 189.5 -116.5t102 -111.5t38.5 -164q0 -120 -59 -211.5t-168 -141.5t-254 -50
q-101 0 -189 23t-174 62v128q91 -44 193 -72.5t206 -28.5q106 0 162 19.5t89 50.5q30 28 49.5 72t19.5 108q0 76 -31.5 127t-86 89t-166.5 99l-64 36q-118 66 -190.5 127t-110 133.5t-37.5 166.5q0 135 67 216.5t176.5 115.5t247.5 34q66 0 135 -9t139 -27l10 -128
q-89 23 -172 34.5z" />
    <glyph glyph-name="Sacute.right" 
d="M876 1356.5q-83 11.5 -163 11.5q-102 0 -170.5 -18.5t-100.5 -46.5q-32 -29 -46.5 -60t-14.5 -88q0 -63 31 -116.5t91 -103t154 -104.5q12 -7 17.5 -10t16.5 -10l63 -36q126 -71 189.5 -116.5t102 -111.5t38.5 -164q0 -120 -59 -211.5t-168 -141.5t-254 -50
q-101 0 -189 23t-174 62v128q91 -44 193 -72.5t206 -28.5q106 0 162 19.5t89 50.5q30 28 49.5 72t19.5 108q0 76 -31.5 127t-86 89t-166.5 99l-64 36q-118 66 -190.5 127t-110 133.5t-37.5 166.5q0 135 67 216.5t176.5 115.5t247.5 34q66 0 135 -9t139 -27l10 -128
q-89 23 -172 34.5zM705 1650l237 233h-136l-207 -233h106z" />
    <glyph glyph-name="Scaron.right" 
d="M876 1356.5q-83 11.5 -163 11.5q-102 0 -170.5 -18.5t-100.5 -46.5q-32 -29 -46.5 -60t-14.5 -88q0 -63 31 -116.5t91 -103t154 -104.5q12 -7 17.5 -10t16.5 -10l63 -36q126 -71 189.5 -116.5t102 -111.5t38.5 -164q0 -120 -59 -211.5t-168 -141.5t-254 -50
q-101 0 -189 23t-174 62v128q91 -44 193 -72.5t206 -28.5q106 0 162 19.5t89 50.5q30 28 49.5 72t19.5 108q0 76 -31.5 127t-86 89t-166.5 99l-64 36q-118 66 -190.5 127t-110 133.5t-37.5 166.5q0 135 67 216.5t176.5 115.5t247.5 34q66 0 135 -9t139 -27l10 -128
q-89 23 -172 34.5zM610 1650h104l249 233h-126l-175 -175l-175 175h-126z" />
    <glyph glyph-name="Scedilla.right" 
d="M876 1356.5q-83 11.5 -163 11.5q-102 0 -170.5 -18.5t-100.5 -46.5q-32 -29 -46.5 -60t-14.5 -88q0 -63 31 -116.5t91 -103t154 -104.5q12 -7 17.5 -10t16.5 -10l63 -36q126 -71 189.5 -116.5t102 -111.5t38.5 -164q0 -120 -59 -211.5t-168 -141.5t-254 -50
q-101 0 -189 23t-174 62v128q91 -44 193 -72.5t206 -28.5q106 0 162 19.5t89 50.5q30 28 49.5 72t19.5 108q0 76 -31.5 127t-86 89t-166.5 99l-64 36q-118 66 -190.5 127t-110 133.5t-37.5 166.5q0 135 67 216.5t176.5 115.5t247.5 34q66 0 135 -9t139 -27l10 -128
q-89 23 -172 34.5zM810 -239q44 -46 44 -138q0 -61 -21 -101t-72 -61t-138 -21h-55v94h24q88 0 121 24.5t33 73.5q0 54 -33 81t-97 34v301h90l4 -274l-31 48q87 -15 131 -61z" />
    <glyph glyph-name="Scircumflex.right" 
d="M876 1356.5q-83 11.5 -163 11.5q-102 0 -170.5 -18.5t-100.5 -46.5q-32 -29 -46.5 -60t-14.5 -88q0 -63 31 -116.5t91 -103t154 -104.5q12 -7 17.5 -10t16.5 -10l63 -36q126 -71 189.5 -116.5t102 -111.5t38.5 -164q0 -120 -59 -211.5t-168 -141.5t-254 -50
q-101 0 -189 23t-174 62v128q91 -44 193 -72.5t206 -28.5q106 0 162 19.5t89 50.5q30 28 49.5 72t19.5 108q0 76 -31.5 127t-86 89t-166.5 99l-64 36q-118 66 -190.5 127t-110 133.5t-37.5 166.5q0 135 67 216.5t176.5 115.5t247.5 34q66 0 135 -9t139 -27l10 -128
q-89 23 -172 34.5zM610 1883h104l249 -233h-126l-202 203h54l-202 -203h-126z" />
    <glyph glyph-name="uni0218.right" 
d="M876 1356.5q-83 11.5 -163 11.5q-102 0 -170.5 -18.5t-100.5 -46.5q-32 -29 -46.5 -60t-14.5 -88q0 -63 31 -116.5t91 -103t154 -104.5q12 -7 17.5 -10t16.5 -10l63 -36q126 -71 189.5 -116.5t102 -111.5t38.5 -164q0 -120 -59 -211.5t-168 -141.5t-254 -50
q-101 0 -189 23t-174 62v128q91 -44 193 -72.5t206 -28.5q106 0 162 19.5t89 50.5q30 28 49.5 72t19.5 108q0 76 -31.5 127t-86 89t-166.5 99l-64 36q-118 66 -190.5 127t-110 133.5t-37.5 166.5q0 135 67 216.5t176.5 115.5t247.5 34q66 0 135 -9t139 -27l10 -128
q-89 23 -172 34.5zM601 -509.5q-27 12.5 -41.5 36.5t-14.5 56q0 49 33 77t82 28q55 0 91.5 -36t36.5 -105q0 -87 -57 -165.5t-141 -128.5l-55 66q41 29 71.5 56.5t53 59.5t33.5 70l26 -16q-24 -11 -55 -11q-36 0 -63 12.5z" />
    <glyph glyph-name="T.right" 
d="M659 0v1460h126v-1460h-126zM132 1460h1184l20 -110h-1224z" />
    <glyph glyph-name="Tbar.right" 
d="M290 814h868v-110h-868v110zM659 0v1460h126v-1460h-126zM132 1460h1184l20 -110h-1224z" />
    <glyph glyph-name="Tcaron.right" 
d="M659 0v1460h126v-1460h-126zM132 1460h1184l20 -110h-1224zM650 1650h148l304 233h-144l-234 -184l-234 184h-144z" />
    <glyph glyph-name="uni0162.right" 
d="M659 0v1460h126v-1460h-126zM132 1460h1184l20 -110h-1224zM893 -214q60 -22 92 -64t32 -111q0 -66 -33 -107.5t-108.5 -62t-202.5 -20.5h-88v96h79q132 0 187.5 26.5t55.5 76.5q0 56 -55.5 83.5t-174.5 35.5v309h90l4 -282l-31 52q93 -10 153 -32z" />
    <glyph glyph-name="uni021A.right" 
d="M659 0v1460h126v-1460h-126zM132 1460h1184l20 -110h-1224zM663 -509.5q-27 12.5 -41.5 36.5t-14.5 56q0 49 33 77t82 28q55 0 91.5 -36t36.5 -105q0 -87 -57 -165.5t-141 -128.5l-55 66q41 29 71.5 56.5t53 59.5t33.5 70l26 -16q-24 -11 -55 -11q-36 0 -63 12.5z" />
    <glyph glyph-name="W.right" 
d="M903 22q-74 253 -131.5 510.5t-88.5 454.5h-15q-38 -212 -99 -472t-139 -514h-96q-120 359 -193.5 733.5t-104.5 725.5h129q26 -284 85.5 -612.5t133.5 -610.5h14q63 216 118.5 467.5t104.5 511.5h117l8 -42q56 -288 103.5 -510.5t104.5 -426.5h14q74 284 132.5 612.5
t83.5 610.5h124q-32 -355 -105.5 -728.5t-193.5 -730.5h-100q-3 11 -6 21z" />
    <glyph glyph-name="Wacute.right" 
d="M903 22q-74 253 -131.5 510.5t-88.5 454.5h-15q-38 -212 -99 -472t-139 -514h-96q-120 359 -193.5 733.5t-104.5 725.5h129q26 -284 85.5 -612.5t133.5 -610.5h14q63 216 118.5 467.5t104.5 511.5h117l8 -42q56 -288 103.5 -510.5t104.5 -426.5h14q74 284 132.5 612.5
t83.5 610.5h124q-32 -355 -105.5 -728.5t-193.5 -730.5h-100q-3 11 -6 21zM719 1651l274 232h-145l-242 -232h113z" />
    <glyph glyph-name="Wcircumflex.right" 
d="M903 22q-74 253 -131.5 510.5t-88.5 454.5h-15q-38 -212 -99 -472t-139 -514h-96q-120 359 -193.5 733.5t-104.5 725.5h129q26 -284 85.5 -612.5t133.5 -610.5h14q63 216 118.5 467.5t104.5 511.5h117l8 -42q56 -288 103.5 -510.5t104.5 -426.5h14q74 284 132.5 612.5
t83.5 610.5h124q-32 -355 -105.5 -728.5t-193.5 -730.5h-100q-3 11 -6 21zM606 1883h132l284 -233h-138l-241 206h58l-241 -206h-138z" />
    <glyph glyph-name="Wdieresis.right" 
d="M903 22q-74 253 -131.5 510.5t-88.5 454.5h-15q-38 -212 -99 -472t-139 -514h-96q-120 359 -193.5 733.5t-104.5 725.5h129q26 -284 85.5 -612.5t133.5 -610.5h14q63 216 118.5 467.5t104.5 511.5h117l8 -42q56 -288 103.5 -510.5t104.5 -426.5h14q74 284 132.5 612.5
t83.5 610.5h124q-32 -355 -105.5 -728.5t-193.5 -730.5h-100q-3 11 -6 21zM326 1689q-29 26 -29 72t29 72t76 26t76 -26t29 -72t-29 -72t-76 -26t-76 26zM867 1689q-29 26 -29 72t29 72t76 26t75.5 -26t28.5 -72t-28.5 -72t-75.5 -26t-76 26z" />
    </font>
</defs>
</svg>
